<svg width="115" height="122" viewBox="0 0 115 122" fill="none" xmlns="http://www.w3.org/2000/svg">
<path d="M36.399 80.4706C-0.795394 53.094 32.826 12.7279 42.4355 2.46683C43.6811 1.13684 45.7245 1.34362 46.6925 2.87984C54.5051 15.278 82.192 64.5793 40.0817 81.2143L36.399 80.4706Z" fill="#CD7F3F" stroke="#CD7F3F"/>
<path d="M43.5343 5.70349C40.9285 -16.9439 92.161 63.885 39.7436 80.8803C39.2215 80.8803 39.0375 80.1668 39.4859 79.8925C56.2635 69.6293 58.112 57.6237 48.0208 27.3659C48.0208 27.3659 44.5246 14.3108 43.5343 5.70349Z" fill="#AC6A34" stroke="#AC6A34"/>
<path d="M22.5771 45.3343C25.9175 61.2868 28.6102 69.4333 38.6028 78.9176C25.3021 70.4342 23.403 60.1509 22.5771 45.3343Z" fill="#B66121" stroke="#B66121" stroke-width="0.5"/>
<path d="M46.0066 41.0472C45.0431 57.2239 44.0795 65.5573 39.306 76.4637C46.0066 65.0671 47.9337 56.2435 46.0066 41.0472Z" fill="#B66121" stroke="#B66121" stroke-width="0.5"/>
<path d="M41.8906 12.6154C39.2938 30.2627 37.8165 44.1666 37.8165 57.7141C35.4077 39.0864 36.3712 29.2823 41.8906 12.6154Z" fill="#B66121" stroke="#B66121" stroke-width="0.5"/>
<path d="M44.5613 3.79181C46.3717 17.1693 47.3583 27.7157 47.2062 38.0084C49.2785 23.8279 48.6433 16.3904 44.5613 3.79181Z" fill="#894A1A" stroke="#894A1A" stroke-width="0.5"/>
<path d="M40.6817 78.7977C49.5976 70.5496 52.3311 67.4622 57.0488 56.6988C53.1691 72.5085 48.0307 74.8205 40.6817 78.7977Z" fill="#894A1A" stroke="#894A1A" stroke-width="0.5"/>
<path d="M31.7396 18.4276C27.0363 37.6086 25.5491 47.7846 30.1722 62.2776C21.9942 47.6307 25.2616 35.3644 31.7396 18.4276Z" fill="#E2A374" stroke="#E2A374" stroke-width="0.5"/>
<path d="M49.7021 19.9953C52.1769 38.0054 52.6685 47.3951 47.8753 59.6642C55.5762 47.8391 53.782 36.279 49.7021 19.9953Z" fill="#E2A374" stroke="#E2A374" stroke-width="0.5"/>
<path d="M34.9259 42.0276C33.7236 56.5809 34.4441 64.5769 38.2983 76.3418C32.0353 64.0867 30.5899 58.6945 34.9259 42.0276Z" fill="#E2A374" stroke="#E2A374" stroke-width="0.5"/>
<path d="M41.1019 5.72868C36.1169 20.6504 31.12 38.1619 30.6407 51.4729C30.6347 51.6592 30.6289 51.8462 30.6231 52.034C30.6281 51.8478 30.6339 51.6608 30.6407 51.4729C31.3931 27.9237 33.5732 17.044 41.1019 5.72868Z" fill="#B66121" stroke="#B66121" stroke-width="0.5"/>
<path d="M56.9526 49.0999C54.9011 33.4786 51.7292 15.5318 46.345 3.39058C46.269 3.22106 46.1926 3.05087 46.1157 2.88C46.1926 3.04902 46.269 3.21922 46.345 3.39058C55.9562 24.8269 58.7549 35.559 56.9526 49.0999Z" fill="#894A1A" stroke="#894A1A" stroke-width="0.5"/>
<path d="M43.3892 19.3404C39.8342 43.6254 39.5742 52.6139 40.3203 65.415C43.1022 50.5153 43.8073 40.4889 43.3892 19.3404Z" fill="#E2A374" stroke="#E2A374" stroke-width="0.5"/>
<path d="M34.161 85.0314C40.177 45.2451 83.9292 53.9655 96.2987 57.2662C98.0467 57.7326 98.8119 59.6267 97.8992 61.21C91.1489 72.9204 64.5801 113.735 35.0742 88.1995L34.161 85.0314Z" fill="#CD7F3F" stroke="#CD7F3F"/>
<path d="M94.6539 59.5708C111.053 48.1568 69.4469 121.456 35.1952 87.7984C34.9845 87.393 35.46 86.9543 35.8523 87.1887C50.5322 95.9617 60.5294 92.4191 79.7723 72.0368C79.7723 72.0368 88.4211 63.9088 94.6539 59.5708Z" fill="#AC6A34" stroke="#AC6A34"/>
<path d="M55.6574 59.7292C44.713 68.9377 39.5224 74.4066 36.2471 86.0988C37.416 72.2527 44.5735 66.5141 55.6574 59.7292Z" fill="#B66121" stroke="#B66121" stroke-width="0.5"/>
<path d="M68.417 76.1456C55.5629 82.1049 48.7525 84.812 38.4219 85.6273C49.908 86.1052 57.485 83.943 68.417 76.1456Z" fill="#B66121" stroke="#B66121" stroke-width="0.5"/>
<path d="M88.6643 61.1604C74.0178 66.4612 62.7077 71.0791 52.2685 76.6964C65.6502 67.102 73.5937 63.7851 88.6643 61.1604Z" fill="#B66121" stroke="#B66121" stroke-width="0.5"/>
<path d="M96.5414 59.5757C86.9639 66.5284 79.2354 71.6674 71.2427 75.8171C83.0061 71.5465 88.4808 67.9694 96.5414 59.5757Z" fill="#894A1A" stroke="#894A1A" stroke-width="0.5"/>
<path d="M37.1785 87.6634C47.1327 91.1669 50.615 92.0094 60.813 91.21C47.0647 94.7526 43.2093 91.7211 37.1785 87.6634Z" fill="#894A1A" stroke="#894A1A" stroke-width="0.5"/>
<path d="M80.0887 55.6877C63.4102 59.9886 54.9687 63.0531 45.6667 72.6525C53.6525 60.2288 64.4232 57.6799 80.0887 55.6877Z" fill="#E2A374" stroke="#E2A374" stroke-width="0.5"/>
<path d="M86.1304 70.2863C73.2513 79.6758 66.2143 83.9509 54.8256 85.316C67.0457 86.3929 75.2294 80.2063 86.1304 70.2863Z" fill="#E2A374" stroke="#E2A374" stroke-width="0.5"/>
<path d="M63.1893 67.9475C51.4898 73.0483 45.6191 76.9232 38.109 84.7943C45.0246 74.8494 48.5964 71.4912 63.1893 67.9475Z" fill="#E2A374" stroke="#E2A374" stroke-width="0.5"/>
<path d="M93.6528 57.6924C80.1426 60.0085 64.6321 63.3892 54.1816 68.5363C54.0357 68.6089 53.8892 68.6819 53.7421 68.7553C53.8876 68.6819 54.0341 68.6089 54.1816 68.5363C72.6315 59.3561 81.8949 56.5379 93.6528 57.6924Z" fill="#B66121" stroke="#B66121" stroke-width="0.5"/>
<path d="M66.6296 87.9845C77.839 79.9142 90.388 70.0097 97.5705 60.7944C97.6705 60.6651 97.7708 60.5352 97.8714 60.4046C97.7722 60.5344 97.6719 60.6643 97.5705 60.7944C84.9315 77.1462 77.7912 83.7695 66.6296 87.9845Z" fill="#894A1A" stroke="#894A1A" stroke-width="0.5"/>
<path d="M84.0872 65.1125C63.9391 72.4215 56.908 75.9465 47.345 81.8338C59.9489 77.8161 67.9595 74.2062 84.0872 65.1125Z" fill="#E2A374" stroke="#E2A374" stroke-width="0.5"/>
</svg>
