<svg width="124" height="49" viewBox="0 0 124 49" fill="none" xmlns="http://www.w3.org/2000/svg">
<path d="M19.1471 39.819L7.29411 25.598H114.882L105.765 39.819C81.1471 50.2478 45.5882 51.1959 19.1471 39.819Z" fill="#ACB1B4" stroke="#ACB1B4"/>
<path d="M124 21.446C124 28.3071 96.2962 36.9748 62.1218 36.9748C27.9475 36.9748 0.243668 28.3071 0.243668 21.446C-3.07123 10.8865 27.9475 0 62.1218 0C96.2962 0 124 10.8865 124 21.446Z" fill="#666B6F"/>
<path d="M111.235 18.2095C111.235 23.9872 88.8278 31.2864 61.1868 31.2864C33.5457 31.2864 11.1383 23.9872 11.1383 18.2095C8.45709 9.31724 33.5457 0.948059 61.1868 0.948059C88.8278 0.948059 111.235 9.31724 111.235 18.2095Z" fill="#8A9094"/>
<path d="M103.029 24.6499C96.6471 29.3903 83.154 31.2864 59.7612 31.2864C36.3684 31.2864 24.6176 27.4941 18.2353 24.6499C22.7941 21.8057 40.6593 16.1172 59.7612 16.1172C83.154 16.1172 96.3853 21.0807 103.029 24.6499Z" fill="#6B5730"/>
<path d="M25.6346 16.8C21.2436 18.9074 18.8289 20.1081 20.2692 24.6C38.1538 33.6 91.2115 34.8 105.519 22.8L103.135 20.4C103.135 20.4 103.135 16.8 99.5577 16.8C95.9808 16.8 94.9257 13.3072 92.4038 15C89.8429 13.5323 88.4071 13.2023 85.8462 15C85.0507 12.8546 84.1953 11.7864 79.8846 10.8C79.8846 8.99998 74.7978 6.59997 72.7308 8.99998C72.0566 5.99067 69.5981 6.52028 66.1731 4.79999C64.3369 2.56806 62.9056 1.68796 57.2308 2.99999C51.4322 2.13088 49.5936 3.19313 47.6923 6.59999C43.9673 7.0402 41.8788 7.95979 38.1538 10.8C35.8257 9.10184 34.5204 9.27875 32.1923 10.8C28.9376 11.7169 27.3375 12.6929 25.6346 16.8Z" fill="#E9E3D4" stroke="#E9E3D4"/>
<path d="M60.4505 3.6171C58.4342 3.7161 57.2303 3.83166 56.2494 4.61747C56.1761 4.67615 56.2238 4.78828 56.3174 4.78187C58.1947 4.65334 59.4171 4.43027 60.5058 3.7904C60.593 3.73917 60.5515 3.61214 60.4505 3.6171Z" fill="#CAC0A8" stroke="#CAC0A8"/>
<path d="M57.0076 7.22116C54.8278 7.43058 53.5792 7.64501 52.5554 9.43078C52.515 9.50115 52.5729 9.5861 52.6533 9.57544C54.6769 9.30737 55.9466 8.83554 57.0945 7.37841C57.148 7.31044 57.0937 7.21289 57.0076 7.22116Z" fill="#CAC0A8" stroke="#CAC0A8"/>
<path d="M66.2786 7.22116C64.0988 7.43058 62.8502 7.64501 61.8264 9.43078C61.786 9.50115 61.8439 9.5861 61.9243 9.57544C63.9479 9.30737 65.2176 8.83554 66.3655 7.37841C66.419 7.31044 66.3647 7.21289 66.2786 7.22116Z" fill="#CAC0A8" stroke="#CAC0A8"/>
<path d="M59.3674 9.90138C58.445 10.2701 57.9094 10.5542 57.6588 11.4455C57.6368 11.5237 57.7153 11.5892 57.7893 11.5559C58.6342 11.1764 59.149 10.7897 59.4907 10.0269C59.5261 9.94775 59.4477 9.86924 59.3674 9.90138Z" fill="#CAC0A8" stroke="#CAC0A8"/>
<path d="M52.1801 5.10139C51.2577 5.47013 50.7221 5.7542 50.4715 6.64548C50.4495 6.7237 50.528 6.78919 50.6021 6.75593C51.4469 6.37637 51.9617 5.98974 52.3034 5.22687C52.3388 5.14776 52.2605 5.06925 52.1801 5.10139Z" fill="#CAC0A8" stroke="#CAC0A8"/>
<path d="M64.0975 12.0184C62.5928 12.1174 61.6937 12.2356 60.9601 13.0238C60.9002 13.0881 60.9528 13.1878 61.0403 13.1797C62.4388 13.0505 63.3512 12.8255 64.1648 12.1852C64.2393 12.1266 64.1921 12.0121 64.0975 12.0184Z" fill="#CAC0A8" stroke="#CAC0A8"/>
<path d="M51.4174 16.2192C49.9807 15.7488 49.1013 15.5228 48.1428 15.9824C48.0643 16.02 48.0779 16.1333 48.1621 16.1584C49.5105 16.561 50.4394 16.6926 51.421 16.4006C51.511 16.3738 51.5075 16.2487 51.4174 16.2192Z" fill="#CAC0A8" stroke="#CAC0A8"/>
<path d="M46.6809 24.0184C45.1762 24.1174 44.277 24.2356 43.5434 25.0238C43.4836 25.0881 43.5361 25.1878 43.6236 25.1797C45.0222 25.0505 45.9345 24.8255 46.7482 24.1852C46.8227 24.1266 46.7754 24.0121 46.6809 24.0184Z" fill="#CAC0A8" stroke="#CAC0A8"/>
<path d="M49.7898 9.61836C48.2851 9.71736 47.3859 9.83564 46.6523 10.6238C46.5925 10.6881 46.645 10.7878 46.7325 10.7797C48.1311 10.6505 49.0434 10.4255 49.8571 9.78523C49.9316 9.72662 49.8843 9.61214 49.7898 9.61836Z" fill="#CAC0A8" stroke="#CAC0A8"/>
<path d="M49.7898 27.6184C48.2851 27.7174 47.3859 27.8356 46.6523 28.6238C46.5925 28.6881 46.645 28.7878 46.7325 28.7797C48.1311 28.6505 49.0434 28.4255 49.8571 27.7852C49.9316 27.7266 49.8843 27.6121 49.7898 27.6184Z" fill="#CAC0A8" stroke="#CAC0A8"/>
<path d="M55.1337 14.4057C56.6402 14.4689 57.5468 14.4478 58.3597 13.7429C58.4261 13.6854 58.3844 13.5806 58.2965 13.5792C56.8922 13.5576 55.9613 13.6833 55.0844 14.2326C55.0041 14.2828 55.039 14.4018 55.1337 14.4057Z" fill="#CAC0A8" stroke="#CAC0A8"/>
<path d="M33.6721 13.2057C35.1787 13.2689 36.0852 13.2478 36.8982 12.543C36.9645 12.4854 36.9228 12.3806 36.835 12.3793C35.4307 12.3576 34.4997 12.4833 33.6229 13.0326C33.5426 13.0829 33.5774 13.2018 33.6721 13.2057Z" fill="#CAC0A8" stroke="#CAC0A8"/>
<path d="M53.3667 12.0184C51.862 12.1174 50.9629 12.2356 50.2293 13.0238C50.1694 13.0881 50.222 13.1878 50.3095 13.1797C51.708 13.0505 52.6204 12.8255 53.434 12.1852C53.5085 12.1266 53.4613 12.0121 53.3667 12.0184Z" fill="#CAC0A8" stroke="#CAC0A8"/>
<path d="M38.6196 25.9187C37.9365 26.7979 37.5715 27.3687 37.7571 28.3038C37.7734 28.386 37.8755 28.4066 37.9242 28.3391C38.531 27.4969 38.8283 26.8478 38.7873 25.9713C38.7831 25.8815 38.6743 25.8483 38.6196 25.9187Z" fill="#CAC0A8" stroke="#CAC0A8"/>
<path d="M43.8257 27.4928C42.7912 27.8536 42.1865 28.1315 41.857 29.0261C41.8285 29.1036 41.9044 29.1751 41.9813 29.1451C42.932 28.7729 43.5203 28.3908 43.9415 27.6265C43.9842 27.5491 43.9091 27.4637 43.8257 27.4928Z" fill="#CAC0A8" stroke="#CAC0A8"/>
<path d="M46.1428 8.41709C44.1265 8.51608 42.9226 8.63165 41.9417 9.41746C41.8685 9.47613 41.9161 9.58827 42.0097 9.58186C43.887 9.45333 45.1094 9.23025 46.1981 8.59039C46.2853 8.53916 46.2438 8.41213 46.1428 8.41709Z" fill="#CAC0A8" stroke="#CAC0A8"/>
<path d="M42.6999 12.0212C40.5201 12.2306 39.2715 12.445 38.2477 14.2308C38.2073 14.3012 38.2652 14.3861 38.3456 14.3755C40.3692 14.1074 41.6389 13.6356 42.7868 12.1784C42.8403 12.1105 42.786 12.0129 42.6999 12.0212Z" fill="#CAC0A8" stroke="#CAC0A8"/>
<path d="M46.2185 13.5014C45.2962 13.8701 44.7606 14.1542 44.51 15.0455C44.488 15.1237 44.5665 15.1892 44.6405 15.1559C45.4854 14.7764 46.0002 14.3897 46.3418 13.6269C46.3773 13.5478 46.2989 13.4692 46.2185 13.5014Z" fill="#CAC0A8" stroke="#CAC0A8"/>
<path d="M43.9954 18.0184C42.4907 18.1174 41.5916 18.2356 40.8579 19.0238C40.7981 19.0881 40.8507 19.1878 40.9381 19.1797C42.3367 19.0505 43.249 18.8255 44.0627 18.1852C44.1372 18.1266 44.0899 18.0121 43.9954 18.0184Z" fill="#CAC0A8" stroke="#CAC0A8"/>
<path d="M39.7899 23.1417C41.2744 22.8683 42.1554 22.646 42.8032 21.7768C42.856 21.7059 42.7935 21.6128 42.7075 21.631C41.3315 21.9222 40.4483 22.2521 39.7059 22.9836C39.6379 23.0505 39.6966 23.1589 39.7899 23.1417Z" fill="#CAC0A8" stroke="#CAC0A8"/>
<path d="M39.059 16.8183C37.5543 16.9173 36.6552 17.0356 35.9216 17.8237C35.8617 17.8881 35.9143 17.9878 36.0018 17.9797C37.4003 17.8505 38.3127 17.6255 39.1263 16.9852C39.2008 16.9266 39.1536 16.8121 39.059 16.8183Z" fill="#CAC0A8" stroke="#CAC0A8"/>
<path d="M31.8351 14.4171C29.8188 14.5161 28.6149 14.6317 27.634 15.4175C27.5607 15.4761 27.6084 15.5883 27.702 15.5819C29.5793 15.4533 30.8017 15.2303 31.8904 14.5904C31.9776 14.5392 31.9361 14.4121 31.8351 14.4171Z" fill="#CAC0A8" stroke="#CAC0A8"/>
<path d="M28.3922 18.0212C26.2124 18.2306 24.9638 18.445 23.94 20.2308C23.8996 20.3012 23.9575 20.3861 24.0379 20.3755C26.0615 20.1074 27.3312 19.6356 28.4791 18.1784C28.5326 18.1105 28.4783 18.0129 28.3922 18.0212Z" fill="#CAC0A8" stroke="#CAC0A8"/>
<path d="M31.9108 19.5014C30.9885 19.8701 30.4529 20.1542 30.2023 21.0455C30.1803 21.1237 30.2588 21.1892 30.3328 21.1559C31.1777 20.7764 31.6925 20.3897 32.0341 19.6269C32.0696 19.5478 31.9912 19.4692 31.9108 19.5014Z" fill="#CAC0A8" stroke="#CAC0A8"/>
<path d="M34.8636 22.59C35.9227 22.843 36.5549 23.0532 36.9861 23.811C37.0281 23.8848 36.9607 23.9679 36.8792 23.9455C35.9007 23.6769 35.2727 23.3764 34.767 22.7377C34.7103 22.6662 34.7752 22.5689 34.8636 22.59Z" fill="#CAC0A8" stroke="#CAC0A8"/>
<path d="M34.2898 26.4184C32.7851 26.5173 31.8859 26.6356 31.1523 27.4237C31.0925 27.4881 31.145 27.5878 31.2325 27.5797C32.6311 27.4505 33.5434 27.2255 34.3571 26.5852C34.4316 26.5266 34.3843 26.4121 34.2898 26.4184Z" fill="#CAC0A8" stroke="#CAC0A8"/>
<path d="M26.5183 25.2057C28.0248 25.2689 28.9313 25.2478 29.7443 24.543C29.8107 24.4854 29.769 24.3806 29.6811 24.3793C28.2768 24.3576 27.3459 24.4833 26.469 25.0326C26.3887 25.0829 26.4236 25.2018 26.5183 25.2057Z" fill="#CAC0A8" stroke="#CAC0A8"/>
<path d="M24.7513 22.8183C23.2466 22.9173 22.3475 23.0356 21.6139 23.8237C21.554 23.8881 21.6066 23.9878 21.6941 23.9797C23.0926 23.8505 24.005 23.6255 24.8186 22.9852C24.8931 22.9266 24.8459 22.8121 24.7513 22.8183Z" fill="#CAC0A8" stroke="#CAC0A8"/>
<path d="M91.0368 16.8166C92.978 16.8956 94.159 16.9927 95.1196 17.5977C95.2027 17.65 95.1599 17.7701 95.0617 17.7645C93.2514 17.6613 92.053 17.4835 90.9913 16.9907C90.8956 16.9463 90.9315 16.8123 91.0368 16.8166Z" fill="#CAC0A8" stroke="#CAC0A8"/>
<path d="M94.443 19.7649C96.5883 19.9342 97.828 20.1128 98.8429 21.5355C98.8918 21.604 98.8365 21.6963 98.7528 21.6871C96.7602 21.4698 95.4999 21.0884 94.3647 19.9286C94.3014 19.864 94.3529 19.7578 94.443 19.7649Z" fill="#CAC0A8" stroke="#CAC0A8"/>
<path d="M90.9211 20.9818C91.8141 21.2749 92.3401 21.5069 92.5933 22.203C92.6205 22.2776 92.537 22.3505 92.4595 22.3219C91.6409 22.0195 91.1341 21.7098 90.7946 21.1142C90.7525 21.0403 90.8365 20.954 90.9211 20.9818Z" fill="#CAC0A8" stroke="#CAC0A8"/>
<path d="M87.3713 23.6902C88.8212 23.7693 89.7037 23.8683 90.4225 24.4754C90.4928 24.5347 90.4443 24.6427 90.3526 24.6356C89.0029 24.532 88.108 24.3528 87.3143 23.8597C87.23 23.8073 87.2723 23.6848 87.3713 23.6902Z" fill="#CAC0A8" stroke="#CAC0A8"/>
<path d="M88.5636 26.6357C90.0135 26.7147 90.896 26.8138 91.6148 27.4208C91.6851 27.4802 91.6366 27.5881 91.5449 27.5811C90.1952 27.4774 89.3003 27.2983 88.5066 26.8051C88.4223 26.7528 88.4646 26.6303 88.5636 26.6357Z" fill="#CAC0A8" stroke="#CAC0A8"/>
<path d="M96.2443 25.6426C94.7917 25.6914 93.9011 25.6704 93.1075 25.1294C93.0301 25.0766 93.0645 24.9655 93.1567 24.9644C94.5128 24.9489 95.426 25.0485 96.2794 25.4695C96.3699 25.5142 96.3435 25.6392 96.2443 25.6426Z" fill="#CAC0A8" stroke="#CAC0A8"/>
<path d="M98.1021 23.6902C99.5519 23.7693 100.435 23.8683 101.153 24.4754C101.224 24.5347 101.175 24.6427 101.083 24.6356C99.7337 24.532 98.8388 24.3528 98.045 23.8597C97.9608 23.8073 98.003 23.6848 98.1021 23.6902Z" fill="#CAC0A8" stroke="#CAC0A8"/>
<path d="M73.182 14.2765C75.0035 13.3835 76.1166 12.9016 77.3652 13.1332C77.4568 13.1502 77.4681 13.2712 77.3835 13.3106C75.67 14.1093 74.4874 14.5031 73.2158 14.4557C73.1155 14.452 73.0916 14.3208 73.182 14.2765Z" fill="#CAC0A8" stroke="#CAC0A8"/>
<path d="M77.9684 15.8355C79.9837 14.9641 81.1833 14.5496 82.9586 15.6574C83.027 15.7001 83.0167 15.8022 82.9414 15.8316C81.0344 16.5745 79.6897 16.7675 77.9667 16.0153C77.888 15.9809 77.8894 15.8696 77.9684 15.8355Z" fill="#CAC0A8" stroke="#CAC0A8"/>
<path d="M75.6112 18.8693C76.6032 18.7518 77.2125 18.7461 77.8708 19.4273C77.9273 19.4858 77.8901 19.5804 77.8094 19.5865C76.8803 19.6566 76.2387 19.5594 75.5634 19.0382C75.4948 18.9853 75.5257 18.8794 75.6112 18.8693Z" fill="#CAC0A8" stroke="#CAC0A8"/>
<path d="M74.1075 23.5778C75.479 22.9341 76.3259 22.6028 77.3584 22.9567C77.4409 22.985 77.4421 23.0974 77.362 23.1324C76.0691 23.6974 75.1578 23.9386 74.1276 23.7571C74.0349 23.7407 74.0221 23.6179 74.1075 23.5778Z" fill="#CAC0A8" stroke="#CAC0A8"/>
<path d="M76.917 26.2269C78.2885 25.5832 79.1354 25.2519 80.1679 25.6058C80.2504 25.634 80.2516 25.7465 80.1715 25.7815C78.8786 26.3464 77.9673 26.5877 76.9371 26.4061C76.8444 26.3898 76.8317 26.267 76.917 26.2269Z" fill="#CAC0A8" stroke="#CAC0A8"/>
<path d="M83.1387 21.3642C81.8454 22.1547 81.0398 22.5769 79.9784 22.3366C79.8935 22.3174 79.8805 22.2054 79.9563 22.1619C81.1799 21.4584 82.0588 21.119 83.1 21.1878C83.1936 21.194 83.2192 21.315 83.1387 21.3642Z" fill="#CAC0A8" stroke="#CAC0A8"/>
<path d="M83.5085 18.3705C84.88 17.7267 85.7269 17.3955 86.7594 17.7493C86.8419 17.7776 86.8431 17.8901 86.763 17.9251C85.4702 18.49 84.5588 18.7313 83.5286 18.5497C83.436 18.5334 83.4232 18.4106 83.5085 18.3705Z" fill="#CAC0A8" stroke="#CAC0A8"/>
</svg>
