<svg width="104" height="87" viewBox="0 0 104 87" fill="none" xmlns="http://www.w3.org/2000/svg">
<path d="M52.5976 25.0548C52.5976 25.0548 50.2072 61.525 52.5976 75.1044C54.988 88.6837 44.6295 87.9077 44.6295 75.1044" stroke="#4B3A2E" stroke-width="3"/>
<path d="M102 46.7817C82.4781 -5.59567 23.5139 -8.69952 2 46.7817C12.757 38.2462 20.6097 37.7757 35.0677 46.7817C49.3818 38.7281 57.4071 40.7989 71.7211 46.7817C82.97 39.4927 89.6494 38.2462 102 46.7817Z" fill="#76264C" stroke="#76264C"/>
<path d="M52.1992 6.43172C40.2558 21.333 37.3837 31.0827 35.8645 46.7817C49.8675 41.4054 57.3198 41.7843 71.3227 46.7817C68.9181 30.3232 64.344 20.5971 52.1992 6.43172Z" fill="#C67FA1" stroke="#C67FA1"/>
<path d="M44.6295 75.1044C46.2231 87.1318 54.5896 89.4596 52.1992 68.8967" stroke="#362643" stroke-width="5"/>
<ellipse cx="52.1992" cy="6.04375" rx="4.38247" ry="1.9399" fill="#8A4848"/>
<path d="M51.004 3.08157V5.93173C51.004 6.20788 51.2278 6.43173 51.504 6.43173H52.8944C53.1706 6.43173 53.3944 6.20788 53.3944 5.93173V3.08157C53.3944 2.98895 53.3687 2.89815 53.3201 2.81929L52.6249 1.69092C52.4296 1.37395 51.9688 1.37395 51.7735 1.69092L51.0783 2.81929C51.0297 2.89815 51.004 2.98895 51.004 3.08157Z" fill="#8A4848" stroke="#8A4848"/>
</svg>
