<svg width="143" height="71" viewBox="0 0 143 71" fill="none" xmlns="http://www.w3.org/2000/svg">
<path d="M92.9305 30.5C92.9305 40.9934 83.4761 46.5 72.4305 46.5C61.3848 46.5 51.4305 40.9934 51.4305 30.5C51.4305 20.0066 61.3848 8.5 72.4305 8.5C83.4761 8.5 92.9305 20.0066 92.9305 30.5Z" fill="#1DB38F"/>
<ellipse cx="72.4305" cy="48.5" rx="20" ry="19" fill="#1DB38F"/>
<path d="M135.139 19.0035L82.5524 35.3953L79.3096 47.0458C88.1944 58.7903 95.5364 60.0084 110.43 57C103.43 54.5 101.714 50.091 103.43 52.5C105.147 54.909 113.065 51.7667 119.43 45.5C111.543 46.1691 109.767 47.9363 108.767 43.207C119.391 42.388 127.245 31.0165 135.139 19.0035Z" fill="#1DB38F" stroke="#1DB38F"/>
<path d="M7.54575 19.0035L60.1319 35.3953L63.3747 47.0458C54.4899 58.7903 47.1479 60.0084 32.2539 57C39.2539 54.5 40.9699 50.091 39.2539 52.5C37.5378 54.909 29.6193 51.7667 23.2539 45.5C31.1412 46.1691 32.917 47.9363 33.9169 43.207C23.2935 42.388 15.4389 31.0165 7.54575 19.0035Z" fill="#1DB38F" stroke="#1DB38F"/>
<path d="M75.9304 1C69.406 3.14456 67.3217 5.45231 64.9304 10.5C71.257 15.0824 73.7287 13.7086 77.9304 10.5C78.0975 7.63991 78.4546 6.42595 79.9304 5.5C76.4721 4.7623 73.9609 5.13916 73.9304 7.5C73.9 9.86084 72.6534 3.73369 75.9304 1Z" fill="#1DB38F" stroke="#1DB38F"/>
<path d="M84.9304 54.5C87.2247 62.6842 81.4361 67.8599 72.4304 67.5C63.329 68.3053 56.807 62.1218 58.9304 53.5C60.9007 45.5 65.2507 39.5 72.4304 39.5C79.6101 39.5 82.828 47 84.9304 54.5Z" fill="#6DD8BE"/>
<path d="M71.6547 28.5L76.9304 35.3239L71.6547 41.5L66.9304 35.3239L71.6547 28.5Z" fill="#D8A33E"/>
<path d="M71.6547 30.5L75.4606 35.3468L71.6547 39.5L68.4304 35.3468L71.6547 30.5Z" fill="#876728"/>
<path d="M59.4304 25.5C63.3262 29.5553 65.5279 29.6985 69.4304 25.8551C65.5636 30.7713 63.3741 30.774 59.4304 25.5Z" fill="#393535" stroke="#393535"/>
<path d="M73.4304 25.5C77.3262 29.5553 79.5279 29.6985 83.4304 25.8551C79.5636 30.7713 77.3741 30.774 73.4304 25.5Z" fill="#393535" stroke="#393535"/>
<path d="M64.4304 61.5L67.7638 65.82M67.7638 65.82L70.4304 61.5M67.7638 65.82V70.5" stroke="#513F1E" stroke-width="2"/>
<path d="M74.4304 61.5L77.7638 65.82M77.7638 65.82L80.4304 61.5M77.7638 65.82V70.5" stroke="#513F1E" stroke-width="2"/>
</svg>
