<svg width="80" height="94" viewBox="0 0 80 94" fill="none" xmlns="http://www.w3.org/2000/svg">
<path d="M76.3277 68.6903L73.8745 65.917L72.7432 64.1455L68.7675 66.845L69.5659 68.0355L70.3361 69.1684L70.9459 71.9968C71.2185 72.6682 71.22 72.9821 71.6629 72.6228L71.6574 70.4948L72.5586 70.9855L73.4348 74.1945C73.6383 74.79 73.7806 74.914 74.1108 74.5625L73.0345 71.4304L72.6727 69.417L73.6393 71.3822L75.2888 74.4685L75.3053 74.4883C75.6875 74.948 75.7504 75.0237 75.9112 74.4188L73.6007 69.6833L75.2775 71.2514L76.3084 73.2117C76.8016 74.0074 77.242 73.1372 77.242 73.1372L75.0013 69.912L75.6486 69.5199L76.7689 71.1324C77.3421 72.0464 77.6866 71.2775 77.4266 70.597L76.3277 68.6903Z" fill="#F3C2A2" stroke="#F3C2A2"/>
<path d="M11.776 47.9479C11.8118 49.3874 12.2833 51.0148 11.4532 51.9391L12.6004 52.9317L8.54817 55.174L7.33763 53.798C4.938 52.5125 4.3908 52.2384 1.5423 51.5547C1.5423 51.5547 0.167466 50.9463 1.57013 50.8989C2.9728 50.8515 7.41072 52.0757 7.41072 52.0757L0.966648 48.8562C0.966648 48.8562 0.0398803 48.3047 0.99674 48.1472C1.9536 47.9896 7.45051 51.1383 7.45051 51.1383L2.87758 46.8318C2.79504 45.3222 2.72081 45.5467 4.09206 46.0623L8.73989 50.6566L5.40051 45.0593C5.40051 45.0593 5.68868 43.8304 6.8358 44.823C7.98292 45.8156 9.35233 49.0839 9.35233 49.0839L10.5653 46.5719C11.7118 45.214 12.5425 46.6402 11.776 47.9479Z" fill="#F3C2A2" stroke="#F3C2A2"/>
<path d="M29.4386 87.42C26.7361 80.3404 25.0164 74.9696 26.7361 67.89H57.3062C58.2921 74.4632 57.3062 79.608 54.252 87.42H46.1446C42.9508 81.8051 42.4595 77.4109 41.0809 74.106C41.0809 79.9467 39.5113 82.0492 37.7916 87.42H29.4386Z" fill="#AEA3A3" stroke="#AEA3A3"/>
<path d="M25.7046 65.9967L58.2272 65.1L62.3256 76.9818C61.9432 78.0079 61.0471 78.645 58.2272 79.8962C44.8833 81.2923 37.396 81.4685 24.0151 78.9995L22.3256 76.9818L25.7046 65.9967Z" fill="#C4C4C4"/>
<path d="M34.7038 46.9204H46.7339L48.7347 50.1809C43.9436 52.0209 40.7973 52.6928 33.5011 50.1809L34.7038 46.9204Z" fill="#F3C2A2"/>
<path d="M34.4839 46.9204C36.0564 48.4899 38.1874 49.3714 40.4092 49.3714H42.412C44.464 49.3714 46.414 48.4763 47.7519 46.9204H34.4839Z" fill="#D5B48E"/>
<path d="M59.8636 31.2337C63.2457 45.6948 49.4574 47.6557 40.6121 47.6557C25.2628 47.6557 21.3605 39.9885 21.3605 32.9494C21.3605 25.9103 29.9797 18.4882 40.6121 18.4882C51.2444 18.4882 59.8636 24.1946 59.8636 31.2337Z" fill="#F3C2A2"/>
<ellipse cx="34.3683" cy="34.6651" rx="2.08125" ry="1.96083" fill="#393535"/>
<ellipse cx="35.1488" cy="34.42" rx="0.780468" ry="0.735313" fill="#E5E5E5"/>
<ellipse cx="47.8964" cy="34.6651" rx="2.08125" ry="1.96083" fill="#393535"/>
<ellipse cx="48.6769" cy="34.42" rx="0.780468" ry="0.735313" fill="#E5E5E5"/>
<path d="M42.9535 38.0062C42.4331 36.0454 40.6121 36.2905 40.0917 38.0062" stroke="#5A402D"/>
<path d="M30.7261 32.7043C31.6392 31.6134 32.2831 31.1372 34.3683 31.2498" stroke="#4B3A2E"/>
<path d="M51.0183 32.7043C50.2356 31.6134 49.6837 31.1372 47.8964 31.2498" stroke="#4B3A2E"/>
<g filter="url(#filter0_f)">
<ellipse cx="33.5878" cy="38.3417" rx="2.86172" ry="0.735313" fill="#E1D6D6"/>
<ellipse cx="33.5878" cy="38.3417" rx="2.86172" ry="0.735313" fill="#A05B5B"/>
<ellipse cx="33.5878" cy="38.3417" rx="2.86172" ry="0.735313" fill="#CA7E7E"/>
</g>
<g filter="url(#filter1_f)">
<ellipse cx="48.1566" cy="38.3417" rx="2.86172" ry="0.735313" fill="#E1D6D6"/>
<ellipse cx="48.1566" cy="38.3417" rx="2.86172" ry="0.735313" fill="#FBFBFB"/>
<ellipse cx="48.1566" cy="38.3417" rx="2.86172" ry="0.735313" fill="#D09286"/>
</g>
<path d="M23.962 37.1162C23.962 38.876 22.7973 40.3025 21.3605 40.3025C19.9237 40.3025 18.7589 38.876 18.7589 37.1162C18.7589 35.3564 18.883 34.1749 20.3198 34.1749C21.7567 34.1749 23.962 35.3564 23.962 37.1162Z" fill="#F3C2A2"/>
<path d="M22.4011 37.6192C22.4011 38.3481 22.1896 38.7126 21.5652 39.077C20.7327 39.077 20.7327 38.2523 20.7327 37.8497C20.7327 37.4472 21.2204 36.8903 21.5652 36.8903C21.9101 36.8903 22.4011 37.2167 22.4011 37.6192Z" fill="#A2896C"/>
<path d="M22.193 37.8015C22.193 37.8015 21.3605 33.7925 20.3199 36.7081" stroke="#A2896C"/>
<path d="M57.7824 36.7436C57.7824 38.5738 58.9471 40.0574 60.3839 40.0574C61.8207 40.0574 62.9855 38.5738 62.9855 36.7436C62.9855 34.9135 62.8614 33.6847 61.4246 33.6847C59.9878 33.6847 57.7824 34.9135 57.7824 36.7436Z" fill="#F3C2A2"/>
<path d="M59.3433 37.6192C59.3433 38.3481 59.6077 38.7126 60.3881 39.077C61.4288 39.077 61.4288 38.2523 61.4288 37.8497C61.4288 37.4472 60.8192 36.8903 60.3881 36.8903C59.9571 36.8903 59.3433 37.2167 59.3433 37.6192Z" fill="#A3896C"/>
<path d="M59.6035 37.8015C59.6035 37.8015 60.6441 33.7925 61.9449 36.7081" stroke="#A2896C"/>
<path d="M38.7047 42.2928C40.4667 42.7555 42.3183 42.7555 44.0803 42.2928L45.8152 40.0574H36.9699L38.7047 42.2928Z" fill="#913E1C"/>
<path d="M44.2543 42.0183C44.2543 42.289 43.6183 42.9987 41.3925 42.9987C39.1668 42.9987 38.5308 42.289 38.5308 42.0183C38.5308 41.7475 39.8121 41.5281 41.3925 41.5281C42.973 41.5281 44.2543 41.7475 44.2543 42.0183Z" fill="#D64A38"/>
<path d="M37.4902 40.0574C38.267 40.6915 39.239 41.0379 40.2418 41.0379H41.8845C42.9295 41.0379 43.9453 40.6933 44.7746 40.0574H37.4902Z" fill="#C4C4C4"/>
<path d="M26.3104 14.9365C27.4003 12.9707 29.703 11.2793 32.1597 10.9115C32.1597 10.9115 34.0998 10.5727 34.8459 10.3174C36.1055 9.88632 37.3638 9.9162 38.6921 9.67756C40.0486 9.43384 40.9892 9.3 42.3645 9.3C44.1318 9.3 46.0499 9.68758 47.697 10.3265C48.3194 10.5679 48.9703 10.6639 49.5387 11.012C50.201 11.4177 50.6992 11.9536 51.4618 12.2277C52.8178 12.7149 54.4973 13.6269 55.949 13.7084C57.4315 13.7916 58.842 14.0466 60.3446 14.0466C61.0946 14.0466 62.1069 14.1878 62.7256 13.7175C62.9272 13.5643 63.0919 13.1862 63.0919 13.1874C63.0919 14.0089 62.9703 14.1103 62.1762 14.467C61.1608 14.9231 60.4462 15.5027 59.3271 15.7649C58.8755 15.8707 58.4855 16.0934 58.0247 16.1762C57.7094 16.2329 58.5918 16.4492 58.8794 16.5784C59.8662 17.0216 60.8553 17.3393 61.7081 18.0134C62.6194 18.7337 63.8069 19.8472 64.3842 20.8194L64.3977 20.8422C64.7766 21.4804 65.1658 22.1359 65.4525 22.812C65.583 23.1197 65.9293 23.3882 66.002 23.6986C66.0885 24.0675 66.0224 24.4924 66.0224 24.8685C66.0224 24.9722 65.5792 24.1298 65.4322 23.9545C64.8868 23.3041 64.1958 22.3563 63.2344 22.2727C62.5633 22.2144 61.0556 21.4204 62.4407 22.099C63.1522 22.4476 63.4012 23.3055 63.7126 23.9271C64.641 25.7804 65.1672 28.0891 64.8827 30.1332C64.6637 31.7072 63.1197 33.0308 61.932 34.0818C61.2209 34.711 60.5697 35.3696 59.6527 35.7636C59.0439 36.0251 59.5273 35.186 59.5713 34.7947C59.7899 32.8537 58.9177 31.3131 58.0553 29.5848C57.484 28.44 56.8945 27.8932 55.9388 27.0347C55.5302 26.6676 55.0572 26.5473 54.5914 26.4275C54.6162 26.456 54.6413 26.4848 54.667 26.5137C55.189 27.1033 56.043 30.5019 56.2746 31.2301C55.9446 31.7152 55.0272 28.8509 54.667 28.6891C53.2888 28.0701 51.4618 24.8685 42.3645 27.0347C38.9053 27.8812 35.296 25.752 34.0115 24.8685C33.72 24.6066 31.6434 23.6945 32.5158 24.576C33.1287 25.1954 33.5473 25.7223 34.0115 26.4223C34.9728 27.8718 36.1965 28.5346 37.8984 29.1461C38.074 29.2092 38.2582 29.2374 38.4364 29.2431C38.6333 29.2161 38.7943 29.1838 38.9053 29.1461C40.0251 28.7661 39.3027 29.2709 38.4364 29.2431C37.2364 29.4077 34.7024 29.3743 34.0115 29.1461C32.1313 28.5251 31.6818 28.0316 30.4431 26.6715L30.3994 26.6234C28.5372 24.5789 27.8447 28.3446 27.6521 29.5209C27.4777 30.5862 27.1942 31.7274 27.1942 32.8022C27.1942 32.9854 27.2244 34.4014 27.0111 34.2098C26.257 33.5324 25.185 32.1747 25.0167 31.2301C24.8523 30.3066 25.0566 29.2027 24.7929 28.3144C24.702 28.0082 24.2246 29.0106 23.9585 29.9961C22.961 31.2301 22.2295 32.8605 22.961 34.2098C22.5551 35.5707 24.8025 38.5284 23.9585 38.0852C21.1578 36.6144 18.4436 32.6377 18.4436 30.6634C18.4436 30.6634 17.7357 27.4627 18.4436 23.9271C18.7415 22.4395 19.2895 20.8975 20.8111 19.4017C20.0253 19.4017 19.2287 17.9827 18.4436 18.0134C18.4436 18.0134 19.0596 17.3568 19.1292 17.4126C19.07 17.098 21.75 16.835 22.2084 16.9714C22.5166 16.6023 22.3324 15.4144 22.534 14.9423C23.0864 13.6488 23.9098 12.8492 25.2202 12.2002C25.7001 11.9626 26.1241 11.8047 26.6226 11.6653C26.6891 11.6388 26.7513 11.6216 26.8076 11.6153C26.7447 11.6318 26.6831 11.6484 26.6226 11.6653C25.7535 12.0117 24.1418 13.9493 25.2202 14.0466C25.2074 14.7497 25.8854 14.7024 26.3104 14.9365Z" fill="#4B3A2E"/>
<path d="M28.2477 8.02861C28.7709 6.54162 29.9656 5.38921 31.471 4.91941L41.6462 1.74392C42.7016 1.41455 43.8517 1.61691 44.7321 2.28686C44.8484 2.37535 44.9497 2.4819 45.0322 2.60246L51.3969 11.9003C43.0966 18.4031 36.2023 16.9727 25.6791 15.3281L28.2477 8.02861Z" fill="#964F32"/>
<path d="M30.6977 6.51C40.3128 5.62603 42.5761 4.50686 43.7209 2.79" stroke="#CAA68E"/>
<path d="M12.0935 59.9925C20.085 54.9663 22.5508 46.1503 33.602 48.8693C54.3407 58.015 42.417 52.7991 48.5118 48.8693C61.8699 47.139 70.0663 61.0655 74.4186 65.6776C73.0746 68.479 72.3272 67.9049 69.3991 68.6438L58.9419 61.1466V71.0585C44.8996 71.7742 39.1027 71.8132 25.0605 71.0585V61.1466L19.8268 65.6776C13.1342 62.7114 12.0664 62.3819 12.0935 59.9925Z" fill="#C4C4C4" stroke="#C4C4C4"/>
<g filter="url(#filter2_d)">
<path d="M47.6323 47.6374L52.1983 49.1264L47.6323 54.87L41.3953 52.08L47.6323 47.6374Z" fill="#C4C4C4"/>
</g>
<path d="M43.1654 58.1392L50.0624 48.9953C51.4855 46.4615 54.3608 47.3492 59.5457 48.9953V59.7067V69.8956L57.3904 70.9406H43.1654V58.1392Z" fill="#100F0F" stroke="#100F0F"/>
<path d="M40.7084 58.2341L34.1563 49.158C33.0975 47.1333 31.8438 46.5416 25.1472 49.158V59.79V69.9033L27.1947 70.9406H40.7084V58.2341Z" fill="#100F0F" stroke="#100F0F"/>
<path d="M37.9066 93H29.0956C28.5434 93 28.0956 92.5523 28.0956 92V88.532C28.0956 88.3126 28.1708 88.0944 28.3059 87.9216C32.8063 82.1639 35.0166 83.7577 38.6594 87.9106C38.8184 88.0919 38.9066 88.3266 38.9066 88.5677V92C38.9066 92.5523 38.4589 93 37.9066 93Z" fill="#523E18" stroke="#523E18"/>
<path d="M30.8774 86.9567C30.9856 86.7403 31.1599 86.5624 31.3795 86.461C32.9749 85.7248 34.0024 85.8103 35.5902 86.4661C35.8291 86.5648 36.0214 86.7501 36.1371 86.9812C36.5064 87.7194 35.9696 88.5881 35.1442 88.5881H31.8855C31.0475 88.5881 30.5025 87.7061 30.8774 86.9567Z" fill="#B89C7B"/>
<path d="M54.123 93H45.8035C45.2512 93 44.8035 92.5523 44.8035 92V88.8018C44.8035 88.5807 44.8796 88.3612 45.0168 88.1878C49.2981 82.7765 51.4073 84.2708 54.8724 88.1769C55.0337 88.3586 55.123 88.5948 55.123 88.8377V92C55.123 92.5523 54.6753 93 54.123 93Z" fill="#56421D" stroke="#523E18"/>
<path d="M47.4594 87.2911C47.5623 87.0877 47.7273 86.9206 47.9347 86.8258C49.4608 86.1283 50.4424 86.2094 51.9613 86.8307C52.1868 86.923 52.3687 87.0967 52.4786 87.3141C52.8307 88.0104 52.3247 88.8332 51.5445 88.8332H48.4077C47.6157 88.8332 47.1021 87.9979 47.4594 87.2911Z" fill="#B89C7B"/>
<path d="M12.8581 51.8548L19.9037 54.7358L21.4617 64.3713C19.0046 66.7738 16.8746 65.1831 15.3701 64.3713L7.48848 55.0683L12.8581 51.8548Z" fill="#C4C4C4" stroke="#C4C4C4"/>
<path d="M28.8372 14.4508L30.9914 6.93923L32.5581 6.51L30.5998 14.88L28.8372 14.4508Z" fill="#CAA68E" stroke="#CAA68E"/>
<path d="M33.4884 14.88L34.2495 5.80143L36.2791 5.58V14.88H33.4884Z" fill="#CAA68E" stroke="#CAA68E"/>
<path d="M42.0073 14.88L39.0698 5.09478L40.8323 4.65L44.6512 14.4352L42.0073 14.88Z" fill="#CAA68E" stroke="#CAA68E"/>
<path d="M48.1796 13.95L42.7907 4.03L43.5605 2.79L50.2326 12.71L48.1796 13.95Z" fill="#CAA68E" stroke="#CAA68E"/>
<defs>
<filter id="filter0_f" x="26.7261" y="33.6064" width="13.7234" height="9.47063" filterUnits="userSpaceOnUse" color-interpolation-filters="sRGB">
<feFlood flood-opacity="0" result="BackgroundImageFix"/>
<feBlend mode="normal" in="SourceGraphic" in2="BackgroundImageFix" result="shape"/>
<feGaussianBlur stdDeviation="2" result="effect1_foregroundBlur"/>
</filter>
<filter id="filter1_f" x="41.2949" y="33.6064" width="13.7234" height="9.47063" filterUnits="userSpaceOnUse" color-interpolation-filters="sRGB">
<feFlood flood-opacity="0" result="BackgroundImageFix"/>
<feBlend mode="normal" in="SourceGraphic" in2="BackgroundImageFix" result="shape"/>
<feGaussianBlur stdDeviation="2" result="effect1_foregroundBlur"/>
</filter>
<filter id="filter2_d" x="37.3953" y="47.6374" width="18.803" height="15.2326" filterUnits="userSpaceOnUse" color-interpolation-filters="sRGB">
<feFlood flood-opacity="0" result="BackgroundImageFix"/>
<feColorMatrix in="SourceAlpha" type="matrix" values="0 0 0 0 0 0 0 0 0 0 0 0 0 0 0 0 0 0 127 0"/>
<feOffset dy="4"/>
<feGaussianBlur stdDeviation="2"/>
<feColorMatrix type="matrix" values="0 0 0 0 0 0 0 0 0 0 0 0 0 0 0 0 0 0 0.25 0"/>
<feBlend mode="normal" in2="BackgroundImageFix" result="effect1_dropShadow"/>
<feBlend mode="normal" in="SourceGraphic" in2="effect1_dropShadow" result="shape"/>
</filter>
</defs>
</svg>
