<svg width="64" height="83" viewBox="0 0 64 83" fill="none" xmlns="http://www.w3.org/2000/svg">
<path d="M2.85416 61.5214L5.51147 59.8048L6.85354 58.6462L9.45661 61.2235L8.52364 61.9967L7.62724 62.7309L6.46022 64.7511C6.07897 65.2125 6.00342 65.4461 5.72727 65.1153L6.23564 63.5309L5.38447 63.768L3.91009 66.0338C3.60315 66.4485 3.45773 66.5206 3.27171 66.2117L4.89102 64.0317L5.66287 62.5833L4.40925 63.9096L2.33324 65.9739L2.31507 65.9863C1.89457 66.2744 1.82535 66.3218 1.83741 65.8483L4.84299 62.6496L3.10422 63.5789L1.79934 64.8925C1.2087 65.4149 1.0556 64.704 1.0556 64.704L3.64661 62.6204L3.21156 62.2362L1.91608 63.2779C1.23228 63.8771 1.13336 63.2553 1.50646 62.7853L2.85416 61.5214Z" fill="#F3C1A2" stroke="#F2C1A2"/>
<ellipse cx="42.9714" cy="36" rx="9.14286" ry="10" fill="#4B3A2E"/>
<path d="M25.7076 40.916H33.8821L35.2417 44.8544C31.9861 47.0769 29.8481 47.8885 24.8904 44.8544L25.7076 40.916Z" fill="#F3C2A2"/>
<path d="M25.6401 41.256C26.5767 42.8109 28.2592 43.7616 30.0744 43.7616C32.0101 43.7616 33.7841 42.6817 34.673 40.9622L34.6969 40.916H25.4352L25.6401 41.256Z" fill="#D5B48E"/>
<path d="M49.4066 22.7041C52.9478 39.4932 38.5105 41.7697 29.2488 41.7697C13.1771 41.7697 9.09108 32.8683 9.09108 24.696C9.09108 16.5238 18.116 7.90699 29.2488 7.90699C40.3816 7.90699 49.4066 14.5319 49.4066 22.7041Z" fill="#F3C2A2"/>
<path d="M31.7004 30.5669C31.1556 28.2904 29.2488 28.575 28.704 30.5669" stroke="#5A402D"/>
<path d="M18.7912 23.4283C19.7473 22.1617 20.4215 21.6089 22.6049 21.7397" stroke="#4B3A2E"/>
<path d="M40.1316 23.4283C39.3121 22.1617 38.7342 21.6089 36.8628 21.7397" stroke="#4B3A2E"/>
<g filter="url(#filter0_f)">
<ellipse cx="21.894" cy="30.9564" rx="2.99642" ry="0.853681" fill="#E1D6D6"/>
<ellipse cx="21.894" cy="30.9564" rx="2.99642" ry="0.853681" fill="#A05B5B"/>
<ellipse cx="21.894" cy="30.9564" rx="2.99642" ry="0.853681" fill="#CA7E7E"/>
</g>
<g filter="url(#filter1_f)">
<ellipse cx="37.1485" cy="30.9564" rx="2.99642" ry="0.853681" fill="#E1D6D6"/>
<ellipse cx="37.1485" cy="30.9564" rx="2.99642" ry="0.853681" fill="#FBFBFB"/>
<ellipse cx="37.1485" cy="30.9564" rx="2.99642" ry="0.853681" fill="#D09286"/>
</g>
<ellipse cx="22.7112" cy="26.688" rx="2.17922" ry="2.27648" fill="#393535"/>
<ellipse cx="23.5284" cy="26.4034" rx="0.817205" ry="0.853681" fill="#E5E5E5"/>
<path d="M21.5518 25.3466L20.0735 24.2326" stroke="#393535" stroke-width="0.5"/>
<path d="M21.0502 26.7442L19.356 26.1163" stroke="#393535" stroke-width="0.5"/>
<path d="M11.8151 29.5336C11.8151 31.5766 10.5955 33.2328 9.09108 33.2328C7.58664 33.2328 6.36706 31.5766 6.36706 29.5336C6.36706 27.4905 6.49703 26.1188 8.00147 26.1188C9.5059 26.1188 11.8151 27.4905 11.8151 29.5336Z" fill="#F3C2A2"/>
<path d="M10.1807 30.1176C10.1807 30.9638 9.95924 31.3869 9.30548 31.81C8.43379 31.81 8.43379 30.8525 8.43379 30.3852C8.43379 29.9178 8.94441 29.2714 9.30548 29.2714C9.66654 29.2714 10.1807 29.6502 10.1807 30.1176Z" fill="#A2896C"/>
<path d="M9.96276 30.3292C9.96276 30.3292 9.09108 25.6749 8.00147 29.0598" stroke="#A2896C"/>
<path d="M47.2273 29.101C47.2273 31.2258 48.4469 32.9483 49.9514 32.9483C51.4558 32.9483 52.6754 31.2258 52.6754 29.101C52.6754 26.9763 52.5454 25.5497 51.041 25.5497C49.5365 25.5497 47.2273 26.9763 47.2273 29.101Z" fill="#F3C2A2"/>
<path d="M48.8618 30.1176C48.8618 30.9638 49.1386 31.3869 49.9558 31.81C51.0454 31.81 51.0454 30.8525 51.0454 30.3852C51.0454 29.9178 50.4071 29.2714 49.9558 29.2714C49.5044 29.2714 48.8618 29.6502 48.8618 30.1176Z" fill="#A3896C"/>
<path d="M49.1342 30.3292C49.1342 30.3292 50.2238 25.6749 51.5858 29.0598" stroke="#A2896C"/>
<path d="M27.2517 35.5435C29.0897 36.0787 31.0423 36.0787 32.8804 35.5435L34.6969 32.9483H25.4352L27.2517 35.5435Z" fill="#913E1C"/>
<path d="M33.0624 35.2248C33.0624 35.5391 32.3966 36.363 30.066 36.363C27.7355 36.363 27.0696 35.5391 27.0696 35.2248C27.0696 34.9105 28.4111 34.6556 30.066 34.6556C31.7209 34.6556 33.0624 34.9105 33.0624 35.2248Z" fill="#D64A38"/>
<path d="M25.98 32.9483C26.7894 33.6809 27.8422 34.0865 28.9339 34.0865H30.5109C31.6454 34.0865 32.7429 33.6831 33.6072 32.9483H25.98Z" fill="#C4C4C4"/>
<ellipse cx="36.8761" cy="26.688" rx="2.17921" ry="2.27648" fill="#393535"/>
<ellipse cx="37.6933" cy="26.4034" rx="0.817205" ry="0.853681" fill="#E5E5E5"/>
<path d="M38.557 26.1163L40.2512 25.4884" stroke="#453B3B" stroke-width="0.5"/>
<path d="M38.3085 25.8076L39.3959 24.2326" stroke="#453B3B" stroke-width="0.5"/>
<g filter="url(#filter2_f)">
<ellipse cx="21.0502" cy="31.7674" rx="4.51788" ry="1.25581" fill="#E1D6D6"/>
<ellipse cx="21.0502" cy="31.7674" rx="4.51788" ry="1.25581" fill="#A05B5B"/>
<ellipse cx="21.0502" cy="31.7674" rx="4.51788" ry="1.25581" fill="#CA7E7E"/>
</g>
<g filter="url(#filter3_f)">
<ellipse cx="37.4275" cy="31.1395" rx="3.95315" ry="1.88372" fill="#E1D6D6"/>
<ellipse cx="37.4275" cy="31.1395" rx="3.95315" ry="1.88372" fill="#A05B5B"/>
<ellipse cx="37.4275" cy="31.1395" rx="3.95315" ry="1.88372" fill="#CA7E7E"/>
</g>
<path d="M27.3584 1C47.4285 1.00001 54.0256 14.9512 50.1366 27L30.6918 16.2195L29.5806 11.7805L29.0251 16.2195L9.58027 27C5.13574 16.2195 11.8025 0.99999 27.3584 1Z" fill="#4B3A2E"/>
<path d="M52.7886 54.0071C46.7233 49.2511 44.8519 40.9091 36.4643 43.4819C20.7242 52.1359 29.774 47.2005 25.1482 43.4819C15.0098 41.8447 8.78902 55.0224 5.48572 59.3866C6.50577 62.0373 7.07306 61.4941 9.29535 62.1933L17.2321 55.0991V64.4781C27.8898 65.1554 32.2895 65.1923 42.9471 64.4781V55.0991L50.2023 60.4706C54.1645 57.2353 52.8092 56.2681 52.7886 54.0071Z" fill="#964F32" stroke="#964F32"/>
<path d="M34.6575 43.0698L42.5101 46.8372L34.6575 55.1697L23.7432 52.4618L34.6575 43.0698Z" fill="#C4C4C4"/>
<path d="M16.4571 62.5V55.1883C16.4571 54.9122 16.681 54.6883 16.9571 54.6883H17.6909C17.788 54.6883 17.883 54.66 17.9643 54.6069L35.5984 43.0862C35.6842 43.0301 35.7873 43.0018 35.8898 43.0053C40.2189 43.1538 41.7622 43.6551 42.5131 45.3788C42.5261 45.4087 42.5359 45.4403 42.5425 45.4722L44.7896 56.3004C44.7965 56.3338 44.8 56.3679 44.8 56.402V62.5C44.8 62.7761 44.5761 63 44.3 63H16.9571C16.681 63 16.4571 62.7761 16.4571 62.5Z" fill="#964F32" stroke="#964F32"/>
<path d="M35.5867 42.1648L19.9207 53.1163" stroke="#CB8466" stroke-width="0.5"/>
<path d="M20.1143 53V65" stroke="#CB8366" stroke-width="0.5"/>
<path d="M16.4571 47.1529V53L28.3429 46.5L24.6073 43.0599C21.5932 42.571 19.8256 45.1764 16.4571 47.1529Z" fill="#964F32" stroke="#964F32"/>
<path d="M15.5429 80L16.8944 62H45.277L46.6286 80H15.5429Z" fill="#CAA68E" stroke="#CAA68E"/>
<path d="M29.1642 59.3954L27.5478 75.6496" stroke="#9B734F" stroke-width="0.8"/>
<path d="M31.3193 59.702L33.4744 75.0363" stroke="#9B734F" stroke-width="0.8"/>
<path d="M30.2417 59.3954V75.6496V76.5697" stroke="#9B734F" stroke-width="0.8"/>
<path d="M44.7217 59H16.5141C16.0546 59 15.6543 59.3131 15.5436 59.759L14.9312 62.2254C14.7763 62.8493 15.2417 63.4551 15.8844 63.4662L45.3616 63.978C46.0078 63.9892 46.4948 63.3937 46.3555 62.7627L45.6982 59.7845C45.5971 59.3263 45.191 59 44.7217 59Z" fill="#E5E5E5"/>
<path d="M27.9565 82H22.0502C21.4979 82 21.0502 81.5523 21.0502 81V78.9254C21.0502 78.7015 21.1268 78.4808 21.2679 78.3069C24.4857 74.3415 26.0985 75.4213 28.7012 78.2959C28.8662 78.4781 28.9565 78.7157 28.9565 78.9615V81C28.9565 81.5523 28.5088 82 27.9565 82Z" fill="#4C1F19" stroke="#4C1F19"/>
<path d="M23.0859 77.697C23.1642 77.5447 23.289 77.4201 23.4452 77.3497C24.6183 76.8215 25.3712 76.8831 26.539 77.3536C26.7086 77.4219 26.846 77.5514 26.9296 77.7141C27.1988 78.2376 26.8186 78.8605 26.23 78.8605H23.7959C23.1985 78.8605 22.8127 78.2284 23.0859 77.697Z" fill="#B89C7B"/>
<path d="M39.2512 82H33.3449C32.7926 82 32.3449 81.5523 32.3449 81V78.9254C32.3449 78.7015 32.4216 78.4808 32.5626 78.3069C35.7804 74.3415 37.3932 75.4213 39.9959 78.2959C40.1609 78.4781 40.2512 78.7157 40.2512 78.9615V81C40.2512 81.5523 39.8035 82 39.2512 82Z" fill="#4D1F19" stroke="#4D1F19"/>
<path d="M34.3806 77.697C34.4589 77.5447 34.5838 77.4201 34.7399 77.3497C35.913 76.8215 36.6659 76.8831 37.8337 77.3536C38.0033 77.4219 38.1407 77.5514 38.2243 77.7141C38.4935 78.2376 38.1134 78.8605 37.5247 78.8605H35.0906C34.4932 78.8605 34.1074 78.2284 34.3806 77.697Z" fill="#B89C7B"/>
<path d="M55.8685 42.4515C55.7005 43.8183 55.2223 45.3534 55.6852 46.2508L54.8184 47.1671L57.3053 49.3917L58.2528 48.1126C59.987 46.9471 60.3805 46.6995 62.3548 46.1162C62.3548 46.1162 63.3355 45.5703 62.4017 45.4926C61.468 45.4149 58.3762 46.4747 58.3762 46.4747L63.0099 43.566C63.0099 43.566 63.6851 43.0636 63.0606 42.8917C62.4362 42.7198 58.4434 45.5832 58.4434 45.5832L61.9338 41.5983C62.14 40.1661 62.1672 40.3811 61.1982 40.839L57.6289 45.0955L60.4231 39.8557C60.4231 39.8557 60.3532 38.6815 59.4864 39.5978C58.6196 40.5141 57.3764 43.5872 57.3764 43.5872L56.8161 41.1725C56.1849 39.8558 55.4864 41.1914 55.8685 42.4515Z" fill="#F2C1A2" stroke="#F3C2A2"/>
<path d="M54.7184 46.6234L49.8548 50.5858L49.287 59.3954C49.287 60.6512 52.0328 59.9416 52.9779 58.9968L58.0031 49.1624L54.7184 46.6234Z" fill="#964F32" stroke="#964F32"/>
<path d="M20.1321 53.1368C19.8336 52.7938 17.6595 49.5414 17.4143 51.7817C17.3699 52.1879 17.3457 52.7993 17.4143 53.2026C17.4536 53.4336 18.1649 53.3062 18.3155 53.3062C19.9758 53.3062 21.7713 53.1101 22.8571 55" stroke="#CB8366" stroke-width="0.5" stroke-linecap="round" stroke-linejoin="round"/>
<path d="M20.2216 53.239C19.7701 52.887 18.9066 52.2477 19.5405 51.6517C20.0715 51.1526 20.6354 50.5576 20.9239 51.4917C21.4752 53.2767 19.6935 54.3763 19.2 56" stroke="#CB8366" stroke-width="0.5" stroke-linecap="round" stroke-linejoin="round"/>
<ellipse cx="30.6286" cy="15" rx="3.2" ry="3" fill="#C89B44"/>
<path d="M27.4286 1L29.4857 13H30.1714L29.4857 1H27.4286Z" fill="#C89B44" stroke="#C89B44" stroke-width="0.5"/>
<path d="M8.59846 21.4549L26.9443 14.0635C27.3907 13.8836 27.8086 14.3765 27.5581 14.7875L27.505 14.8746C27.4551 14.9565 27.3827 15.0223 27.2965 15.0641L9.21586 23.8437C9.02333 23.9371 8.78846 23.9008 8.65423 23.7341C8.22792 23.2047 8.14809 22.7022 8.29895 21.8206C8.3273 21.6549 8.44256 21.5178 8.59846 21.4549Z" fill="#C89B44" stroke="#C89B44" stroke-width="0.1"/>
<path d="M51.7407 21.4565L32.0849 13.4091C31.6907 13.2477 31.2882 13.6216 31.4201 14.0266L31.6154 14.6266C31.6584 14.7584 31.7542 14.8666 31.8799 14.9251L51.0819 23.8587C51.2657 23.9442 51.4863 23.913 51.6224 23.7628C52.1133 23.221 52.206 22.7149 52.0356 21.8121C52.0052 21.6511 51.8923 21.5185 51.7407 21.4565Z" fill="#C89B44" stroke="#C89B44" stroke-width="0.1"/>
<path d="M29.597 20.3548C28.9079 19.7347 29.0876 19.2079 30.0127 18.0772C30.9544 18.6033 30.1018 18.6876 29.597 20.3548Z" fill="#C89B44" stroke="#C89B44"/>
<defs>
<filter id="filter0_f" x="14.8975" y="26.1027" width="13.9928" height="9.70736" filterUnits="userSpaceOnUse" color-interpolation-filters="sRGB">
<feFlood flood-opacity="0" result="BackgroundImageFix"/>
<feBlend mode="normal" in="SourceGraphic" in2="BackgroundImageFix" result="shape"/>
<feGaussianBlur stdDeviation="2" result="effect1_foregroundBlur"/>
</filter>
<filter id="filter1_f" x="30.152" y="26.1027" width="13.9928" height="9.70736" filterUnits="userSpaceOnUse" color-interpolation-filters="sRGB">
<feFlood flood-opacity="0" result="BackgroundImageFix"/>
<feBlend mode="normal" in="SourceGraphic" in2="BackgroundImageFix" result="shape"/>
<feGaussianBlur stdDeviation="2" result="effect1_foregroundBlur"/>
</filter>
<filter id="filter2_f" x="12.5323" y="26.5116" width="17.0358" height="10.5116" filterUnits="userSpaceOnUse" color-interpolation-filters="sRGB">
<feFlood flood-opacity="0" result="BackgroundImageFix"/>
<feBlend mode="normal" in="SourceGraphic" in2="BackgroundImageFix" result="shape"/>
<feGaussianBlur stdDeviation="2" result="effect1_foregroundBlur"/>
</filter>
<filter id="filter3_f" x="29.4744" y="25.2558" width="15.9063" height="11.7674" filterUnits="userSpaceOnUse" color-interpolation-filters="sRGB">
<feFlood flood-opacity="0" result="BackgroundImageFix"/>
<feBlend mode="normal" in="SourceGraphic" in2="BackgroundImageFix" result="shape"/>
<feGaussianBlur stdDeviation="2" result="effect1_foregroundBlur"/>
</filter>
</defs>
</svg>
