<svg width="231" height="193" viewBox="0 0 231 193" fill="none" xmlns="http://www.w3.org/2000/svg">
<path d="M50 22.1845C25 -13.8155 -16 -1.81555 -16 42.1845V136.184C1 170.184 67 171.184 84 136.184C117 169.184 181 169.184 186 114.184C216 108.184 205 86.1844 186 80.1845C186 50.1844 168 22.1845 126 42.1845C118 2.18445 78 -5.81555 50 22.1845Z" fill="#CBDDEA" stroke="#CBDDEA"/>
<path d="M116.152 106.627C97.6799 85.1692 67.3854 92.3218 67.3854 118.548C28.3855 113 25.3853 169 67.3854 169C75.3854 203 128.713 195.438 141.274 174.576C165.658 194.246 212.947 194.246 216.641 161.463C238.808 157.887 230.68 144.774 216.641 141.198C216.641 123.316 203.341 106.627 172.308 118.548C166.397 94.706 136.841 89.9376 116.152 106.627Z" fill="#F1F1F1" stroke="#F1F1F1"/>
</svg>
