<svg width="298" height="335" viewBox="0 0 298 335" fill="none" xmlns="http://www.w3.org/2000/svg">
<path d="M5.5233 204.213C-36.461 173.199 -46.3637 149.124 -56.0637 102.277C-43.9953 103.307 -37.0166 105.969 -32.1303 109.833C-38.0849 97.7286 -39.1535 83.6 -36.7866 60.5182C-12.1194 60.9108 -9.78465 73.5904 -2.62753 89.6903C-12.5059 54.4999 -4.38575 27.041 29.7346 0.999984C52.3996 39.401 54.6782 70.8055 36.6827 89.3822C47.0484 79.1144 55.4393 78.6176 71.189 75.3376C80.6847 104.328 66.1789 118.575 47.6366 128.83C56.3812 126.299 63.3703 128.819 71.1796 128.92C67.9 158.501 51.5368 171.799 18.1773 200.371L5.5233 204.213Z" fill="#DBD88B" stroke="#DBD88B"/>
<path d="M-5.99994 341.718C-44.3608 271.599 -4.20443 228.946 10.5647 157.393C26.2876 166.549 34.1486 174.727 38.4622 183.242C37.6104 162.548 44.5781 142.156 61.5284 111.472C94.6848 127.799 90.2939 146.98 90.3937 174.017C97.9797 118.609 125.325 85.4997 187.02 71C194.83 139.066 179.211 184.331 143.789 198.733C163.935 191.041 175.589 195.715 198.862 201.214C194.45 247.729 166.33 258.324 135.123 260.768C148.467 262.831 156.427 270.817 166.938 275.953C144.882 315.118 114.812 323.201 52.64 341.718L-5.99994 341.718Z" fill="#89BB68" stroke="#89BB68"/>
<path d="M71.6875 354.974C97.9949 300.687 116.112 270.63 166.458 248.185C167.692 261.822 166.1 270.223 162.756 276.605C175.083 266.982 190.633 262.272 216.85 259.136C221.283 286.582 207.599 292.334 191.052 304.287C228.359 284.553 260.595 286.703 296.384 318.033C258.02 352.745 223.436 363.108 199.158 347.793C212.66 356.723 214.871 365.901 221.64 382.544C191.174 400.307 172.416 387.78 157.314 369.782C161.864 378.845 160.433 387.223 161.863 395.906C128.216 399.652 110.149 384.829 71.6875 354.974Z" fill="#65884F" stroke="#89BB68"/>
</svg>
