<svg width="283" height="291" viewBox="0 0 283 291" fill="none" xmlns="http://www.w3.org/2000/svg">
<path d="M292.503 86.0812C334.487 117.095 344.39 141.17 354.09 188.017C342.022 186.987 335.043 184.325 330.157 180.462C336.111 192.566 337.18 206.694 334.813 229.776C310.146 229.383 307.811 216.704 300.654 200.604C310.532 235.794 302.412 263.253 268.292 289.294C245.627 250.893 243.348 219.489 261.344 200.912C250.978 211.18 242.587 211.677 226.837 214.957C217.342 185.966 231.847 171.719 250.39 161.464C241.645 163.995 234.656 161.475 226.847 161.374C230.126 131.793 246.49 118.495 279.849 89.9237L292.503 86.0812Z" fill="#DBD88B" stroke="#DBD88B"/>
<path d="M304.026 -51.4236C342.387 18.6951 302.231 61.3483 287.462 132.901C271.739 123.745 263.878 115.567 259.564 107.053C260.416 127.746 253.448 148.138 236.498 178.822C203.342 162.495 207.732 143.314 207.633 116.278C200.047 171.685 172.702 204.794 111.007 219.294C103.197 151.229 118.815 105.963 154.238 91.5613C134.091 99.2536 122.437 94.5793 99.1648 89.0799C103.576 42.5656 131.697 31.9706 162.904 29.5263C149.559 27.4636 141.599 19.4772 131.089 14.3413C153.145 -24.8243 183.214 -32.9072 245.386 -51.4236L304.026 -51.4236Z" fill="#89BB68" stroke="#89BB68"/>
<path d="M226.339 -64.6799C200.031 -10.3932 181.914 19.6642 131.569 42.1092C130.334 28.4722 131.926 20.0707 135.271 13.6893C122.944 23.3117 107.393 28.0223 81.1761 31.1584C76.743 3.71249 90.4271 -2.04031 106.974 -13.9931C69.6674 5.74084 37.4313 3.59076 1.64249 -27.739C40.0063 -62.4505 74.5906 -72.8139 98.8681 -57.4986C85.3665 -66.4284 83.1552 -75.6072 76.386 -92.25C106.852 -110.012 125.611 -97.4857 140.713 -79.4875C136.162 -88.5508 137.593 -96.9284 136.164 -105.611C169.811 -109.358 187.877 -94.5346 226.339 -64.6799Z" fill="#65884F" stroke="#89BB68"/>
</svg>
