<svg width="131" height="142" viewBox="0 0 131 142" fill="none" xmlns="http://www.w3.org/2000/svg">
<path d="M75.714 121.446C74.597 100.657 82.0766 41.1221 89.2984 36.1328" stroke="#AB904A"/>
<path d="M72.8571 62.2245C72.2535 59.7693 72.3874 58.1264 72.9259 55.0273" stroke="#B19D76" stroke-width="0.4"/>
<path d="M78.4452 72.2812C72.1468 72.4327 71.1246 67.4875 72.4782 59.6488C75.3714 65.7558 81.8083 66.6858 78.4452 72.2812Z" fill="#E4C062" stroke="#E4C062"/>
<path d="M89.9813 33.4995C91.0996 32.2391 92.0655 31.7344 94.0032 30.9621" stroke="#B19D76" stroke-width="0.4"/>
<path d="M86.6615 40.6241C84.0291 36.7127 86.3598 34.2959 91.2574 32.3374C90.9852 38.1863 89.5441 40.5859 86.6615 40.6241Z" fill="#E4C062" stroke="#E4C062"/>
<path d="M75.396 53.8984C74.9949 51.6608 75.1974 50.2397 75.8296 47.5993" stroke="#B19D76" stroke-width="0.4"/>
<path d="M79.7673 63.5058C74.2446 62.746 73.6061 58.2663 75.1979 51.587C77.4145 57.3502 83.0023 59.0776 79.7673 63.5058Z" fill="#E4C062" stroke="#E4C062"/>
<path d="M77.7739 48.2299C77.5624 46.3843 77.7941 45.2553 78.4295 43.1821" stroke="#B19D76" stroke-width="0.4"/>
<path d="M80.8073 56.4007C76.4209 55.2631 76.1285 51.5857 77.7298 46.3439C79.2236 51.2074 83.6148 53.1324 80.8073 56.4007Z" fill="#E4C062" stroke="#E4C062"/>
<path d="M80.2369 43.4242C80.2386 41.8518 80.5459 40.9278 81.2883 39.2529" stroke="#B19D76" stroke-width="0.4"/>
<path d="M82.0083 50.6053C78.3991 49.19 78.5118 46.0705 80.3845 41.8354C81.1744 46.0771 84.7105 48.1542 82.0083 50.6053Z" fill="#E4C062" stroke="#E4C062"/>
<path d="M83.7134 37.8094C83.9973 36.5066 84.4233 35.8019 85.3526 34.5613" stroke="#B19D76" stroke-width="0.4"/>
<path d="M83.923 44.1126C81.1223 42.2226 81.778 39.6597 84.1238 36.522C84.0305 40.1943 86.6505 42.6182 83.923 44.1126Z" fill="#E4C062" stroke="#E4C062"/>
<path d="M87.9876 67.2008C89.2368 65.3376 89.6202 63.849 90.1031 60.9124" stroke="#B19D76" stroke-width="0.4"/>
<path d="M80.2494 73.4323C85.5023 76.3954 87.8556 72.5554 89.0841 65.1318C84.8059 69.1407 79.11 67.0556 80.2494 73.4323Z" fill="#E4C062" stroke="#E4C062"/>
<path d="M88.3577 59.4152C89.4352 57.8347 89.77 56.5749 90.1964 54.0911" stroke="#B19D76" stroke-width="0.4"/>
<path d="M81.7065 64.719C86.1897 67.197 88.221 63.9406 89.3054 57.6615C85.6256 61.0702 80.7593 59.3363 81.7065 64.719Z" fill="#E4C062" stroke="#E4C062"/>
<path d="M89.5179 51.7317C90.5267 50.2941 90.8465 49.1532 91.2612 46.906" stroke="#B19D76" stroke-width="0.4"/>
<path d="M83.3283 56.5841C87.4498 58.7803 89.3538 55.8202 90.4082 50.1389C86.9798 53.2519 82.4981 51.7313 83.3283 56.5841Z" fill="#E4C062" stroke="#E4C062"/>
<path d="M89.8532 46.634C90.7415 45.4617 91.0375 44.5425 91.4374 42.737" stroke="#B19D76" stroke-width="0.4"/>
<path d="M84.4853 50.6549C87.9463 52.3137 89.6281 49.9042 90.6438 45.3403C87.6618 47.9075 83.8802 46.7969 84.4853 50.6549Z" fill="#E4C062" stroke="#E4C062"/>
<path d="M90.456 41.501C91.1982 40.581 91.4546 39.8674 91.8105 38.4692" stroke="#B19D76" stroke-width="0.4"/>
<path d="M86.024 44.7006C88.8087 45.9118 90.217 44.0239 91.1209 40.4894C88.653 42.5237 85.5983 41.7408 86.024 44.7006Z" fill="#E4C062" stroke="#E4C062"/>
<path d="M74.5634 119.118C77.667 74.9844 42.6354 25.3798 36.0271 22.5892" stroke="#AB904A"/>
<path d="M59.9607 42.0384C59.746 39.5193 59.0928 38.0059 57.5898 35.2426" stroke="#B19D76" stroke-width="0.4"/>
<path d="M57.8889 53.3554C63.9039 51.4811 63.2879 46.469 59.4945 39.4771C58.7102 46.1892 52.9105 49.1323 57.8889 53.3554Z" fill="#E4C062" stroke="#E4C062"/>
<path d="M34.5365 20.3134C33.0735 19.4777 31.9968 19.309 29.9138 19.1983" stroke="#B19D76" stroke-width="0.4"/>
<path d="M39.9639 25.999C41.2045 21.4504 38.2224 19.9076 32.9554 19.6214C35.0871 25.0748 37.2209 26.8862 39.9639 25.999Z" fill="#E4C062" stroke="#E4C062"/>
<path d="M54.8882 34.9646C54.5514 32.7164 53.9043 31.435 52.4595 29.1364" stroke="#B19D76" stroke-width="0.4"/>
<path d="M53.8252 45.4661C58.8134 42.977 57.9831 38.5289 54.3354 32.7115C54.082 38.8811 49.3421 42.3076 53.8252 45.4661Z" fill="#E4C062" stroke="#E4C062"/>
<path d="M50.8196 30.3567C50.4288 28.5405 49.8476 27.5453 48.5814 25.7849" stroke="#B19D76" stroke-width="0.4"/>
<path d="M50.5638 39.0686C54.3545 36.5857 53.4535 33.0084 50.2572 28.5559C50.4003 33.6417 46.8572 36.8719 50.5638 39.0686Z" fill="#E4C062" stroke="#E4C062"/>
<path d="M46.9469 26.5933C46.4416 25.1043 45.8545 24.3274 44.6146 22.9787" stroke="#B19D76" stroke-width="0.4"/>
<path d="M47.5694 33.9634C50.535 31.4664 49.4288 28.5474 46.2981 25.1355C46.9087 29.4067 44.2244 32.5072 47.5694 33.9634Z" fill="#E4C062" stroke="#E4C062"/>
<path d="M41.8548 22.3882C41.1686 21.2449 40.5392 20.7139 39.2615 19.8364" stroke="#B19D76" stroke-width="0.4"/>
<path d="M43.6756 28.4263C45.7233 25.7387 44.2811 23.5209 41.0537 21.3001C42.3185 24.7489 40.6132 27.8845 43.6756 28.4263Z" fill="#E4C062" stroke="#E4C062"/>
<path d="M47.2219 51.5998C45.4417 50.235 44.6015 48.9477 43.2033 46.3206" stroke="#B19D76" stroke-width="0.4"/>
<path d="M56.5485 55.0238C52.5219 59.5135 49.0624 56.6299 45.5203 49.9911C50.8574 52.4181 55.585 48.6181 56.5485 55.0238Z" fill="#E4C062" stroke="#E4C062"/>
<path d="M44.3771 44.3431C42.85 43.191 42.1292 42.1049 40.9297 39.8886" stroke="#B19D76" stroke-width="0.4"/>
<path d="M52.3769 47.2365C48.9238 51.0201 45.9563 48.5861 42.9175 42.9854C47.4953 45.0355 51.5497 41.8341 52.3769 47.2365Z" fill="#E4C062" stroke="#E4C062"/>
<path d="M40.8166 37.4362C39.4004 36.3976 38.7319 35.4193 37.6192 33.4233" stroke="#B19D76" stroke-width="0.4"/>
<path d="M48.2345 40.0499C45.0338 43.4507 42.2818 41.2567 39.4629 36.2126C43.7079 38.0632 47.4662 35.187 48.2345 40.0499Z" fill="#E4C062" stroke="#E4C062"/>
<path d="M38.8658 32.7146C37.6487 31.8887 37.0738 31.1128 36.1166 29.5306" stroke="#B19D76" stroke-width="0.4"/>
<path d="M45.2389 34.8039C42.4917 37.484 40.1266 35.7403 37.7024 31.7424C41.3497 33.2189 44.5761 30.9554 45.2389 34.8039Z" fill="#E4C062" stroke="#E4C062"/>
<path d="M36.6502 28.0453C35.6525 27.4116 35.181 26.8177 34.3959 25.6073" stroke="#B19D76" stroke-width="0.4"/>
<path d="M41.8738 29.6564C39.6238 31.6959 37.6849 30.3586 35.6964 27.3C38.6859 28.4365 41.3288 26.7162 41.8738 29.6564Z" fill="#E4C062" stroke="#E4C062"/>
<path d="M89.7204 90.0382C89.7557 61.3134 86.0683 72.3409 75.605 119.518C75.4368 120.276 76.128 120.91 76.7388 120.454C78.5621 119.092 80.7698 116.098 81.7411 110.691C87.7748 77.1046 88.161 63.2387 89.7204 90.0382Z" fill="#6C895A" stroke="#6C895A"/>
<path d="M57.1181 84.3279C53.4276 47.6628 59.1249 61.6796 77.3058 121.607C77.5371 122.369 76.8923 123.039 76.2398 122.603C73.9264 121.056 70.8388 117.335 68.9617 110.237C57.7283 67.7626 55.5242 50.1243 57.1181 84.3279Z" fill="#75995E" stroke="#75995E"/>
</svg>
