<svg width="208" height="71" viewBox="0 0 208 71" fill="none" xmlns="http://www.w3.org/2000/svg">
<path d="M42.36 28.46H36.66V65H27.24V55.04C25.96 56.72 24.26 58.02 22.14 58.94C20.06 59.86 17.62 60.32 14.82 60.32C10.94 60.32 7.7 59.38 5.1 57.5C2.54 55.58 1.26 52.9 1.26 49.46C1.26 47.06 1.96 45.12 3.36 43.64C4.76 42.16 6.38 41.22 8.22 40.82V40.64C6.1 40 4.32 38.84 2.88 37.16C1.48 35.48 0.78 33.3 0.78 30.62C0.78 27.42 1.82 24.86 3.9 22.94C6.02 21.02 8.72 20.06 12 20.06C15.4 20.06 18.04 21 19.92 22.88C21.84 24.72 22.8 27.16 22.8 30.2C22.8 30.96 22.76 31.78 22.68 32.66H15.72L15.78 31.4C15.78 30.36 15.46 29.52 14.82 28.88C14.22 28.24 13.4 27.92 12.36 27.92C11.28 27.92 10.42 28.28 9.78 29C9.14 29.68 8.82 30.56 8.82 31.64C8.82 33.4 9.54 34.7 10.98 35.54C12.46 36.34 14.26 36.74 16.38 36.74H19.98V44.36H16.8C14.92 44.36 13.46 44.72 12.42 45.44C11.38 46.12 10.86 47.12 10.86 48.44C10.86 49.8 11.42 50.84 12.54 51.56C13.7 52.28 15.26 52.64 17.22 52.64C20.26 52.64 22.68 51.68 24.48 49.76C26.32 47.84 27.24 45.32 27.24 42.2V20.6H42.36V28.46ZM27.1453 20.9C25.5053 18.34 24.1853 16.5 23.1853 15.38C22.1853 14.26 21.1653 13.52 20.1253 13.16C19.0453 12.76 17.5653 12.56 15.6853 12.56H12.5653V5H15.5053C18.8653 5.04 21.5253 5.42 23.4853 6.14C25.4453 6.82 27.3653 8.26 29.2453 10.46C31.0853 12.62 33.3253 16.1 35.9653 20.9H27.1453ZM54.0253 47V53C54.0253 54.36 54.3253 55.46 54.9253 56.3C55.5253 57.1 56.4453 57.5 57.6853 57.5C58.8053 57.5 59.6853 57.1 60.3253 56.3C60.9653 55.5 61.2853 54.48 61.2853 53.24V51.56H70.3453V52.94C70.3453 56.78 69.2453 59.84 67.0453 62.12C64.8453 64.4 61.7853 65.54 57.8653 65.54C55.0653 65.54 52.6653 64.98 50.6653 63.86C48.7053 62.7 47.2253 61.14 46.2253 59.18C45.2253 57.22 44.7253 55 44.7253 52.52V39.44H50.7853C53.8653 39.44 56.0453 38.78 57.3253 37.46C58.6453 36.14 59.3053 34.2 59.3053 31.64V28.46H39.9253V20.6H73.8253V28.46H68.7253V31.64C68.7253 36.4 67.6053 40.16 65.3653 42.92C63.1653 45.64 59.4853 47 54.3253 47H54.0253ZM47.662 0.679998C51.022 0.679998 53.562 1.04 55.282 1.76C57.002 2.48 58.802 4.18 60.682 6.86C62.522 9.5 65.162 14.14 68.602 20.78H60.502L59.362 20.06C57.322 18.78 55.882 17.94 55.042 17.54C54.162 17.1 53.262 16.82 52.342 16.7C51.422 16.58 49.862 16.52 47.662 16.52H44.422V10.64H47.482C49.642 10.64 51.242 10.7 52.282 10.82C53.322 10.94 54.342 11.24 55.342 11.72C56.302 12.16 57.522 12.94 59.002 14.06C57.602 11.74 56.342 10.06 55.222 9.02C54.062 7.94 52.982 7.28 51.982 7.04C50.942 6.76 49.562 6.62 47.842 6.62H44.422V0.679998H47.662ZM98.6152 47V53C98.6152 54.36 98.9152 55.46 99.5152 56.3C100.115 57.1 101.035 57.5 102.275 57.5C103.395 57.5 104.275 57.1 104.915 56.3C105.555 55.5 105.875 54.48 105.875 53.24V51.56H114.935V52.94C114.935 56.78 113.835 59.84 111.635 62.12C109.435 64.4 106.375 65.54 102.455 65.54C99.6552 65.54 97.2552 64.98 95.2552 63.86C93.2952 62.7 91.8152 61.14 90.8152 59.18C89.8152 57.22 89.3152 55 89.3152 52.52V39.44H95.3752C98.4552 39.44 100.635 38.78 101.915 37.46C103.235 36.14 103.895 34.2 103.895 31.64V28.46H84.5152V20.6H118.415V28.46H113.315V31.64C113.315 36.4 112.195 40.16 109.955 42.92C107.755 45.64 104.075 47 98.9152 47H98.6152ZM122.27 65V28.46H116.39V20.6H137.57V28.46H131.69V65H122.27ZM188.17 28.46H182.29V65H173.77V57.86L161.35 70.34H151.09L173.29 49.52V43.82H164.89V46.34C164.89 50.46 163.77 53.74 161.53 56.18C159.29 58.62 156.13 59.84 152.05 59.84C149.49 59.84 147.21 59.36 145.21 58.4C143.25 57.4 141.71 56.02 140.59 54.26C139.51 52.46 138.97 50.4 138.97 48.08C138.97 44.24 140.23 41.32 142.75 39.32C145.27 37.28 148.51 36.26 152.47 36.26H156.43V28.46H135.55V20.6H188.17V28.46ZM173.29 28.46H164.89V36.26H173.29V28.46ZM156.43 43.82H152.53C151.09 43.82 149.91 44.2 148.99 44.96C148.11 45.72 147.67 46.74 147.67 48.02C147.67 49.26 148.07 50.26 148.87 51.02C149.67 51.78 150.69 52.16 151.93 52.16C153.41 52.16 154.53 51.68 155.29 50.72C156.05 49.76 156.43 48.46 156.43 46.82V43.82ZM207.297 20.6V28.46H201.417V65H191.997V28.46H186.117V20.6H192.357C190.757 18.16 189.457 16.4 188.457 15.32C187.497 14.24 186.497 13.52 185.457 13.16C184.377 12.76 182.917 12.56 181.077 12.56H177.957V5H180.897C184.257 5.04 186.897 5.4 188.817 6.08C190.777 6.76 192.677 8.18 194.517 10.34C196.357 12.5 198.577 15.92 201.177 20.6H207.297Z" fill="#43100B"/>
</svg>
