<svg width="63" height="96" viewBox="0 0 63 96" fill="none" xmlns="http://www.w3.org/2000/svg">
<path d="M1 1.5L3.5 4V87.5L1 86.5V1.5Z" fill="#867558" stroke="#867558"/>
<path d="M62.5 1.5L60 4.5L61 87.375H62.5V1.5Z" fill="#867558" stroke="#867558"/>
<path d="M3 3L0.5 0H63L60.5 4V87.5H3V3Z" fill="#615237"/>
<rect x="3" y="3" width="58" height="85" fill="#393535"/>
<path d="M28 14.5L3 3V87L28 96V14.5Z" fill="#635441"/>
<path d="M35 14.5L61 3V87L35 96V14.5Z" fill="#635441"/>
<path d="M23.5879 54.1838C20.1381 50.6064 18.5935 42.7409 24.8423 42.671C24.8741 42.6706 24.9087 42.6738 24.94 42.6796C26.2121 42.9192 26.1726 42.92 25.7091 44.4375C25.6694 44.5678 25.5767 44.6773 25.4573 44.7428C22.8697 46.1623 22.5537 48.5351 24.2486 53.7256C24.3983 54.184 23.9226 54.5309 23.5879 54.1838Z" fill="#AA802F" stroke="#AA802F"/>
<path d="M21.9745 46.3352C21.55 44.9243 22.2484 43.0544 24.4505 43.4884C24.4754 43.4933 24.5011 43.5008 24.5246 43.5098C24.9587 43.6752 24.9669 43.6872 24.627 44.0372C24.5451 44.1215 24.4375 44.1756 24.3243 44.1975C23.3063 44.3941 22.8183 44.935 22.641 46.135C22.5757 46.5769 22.1004 46.7536 21.9745 46.3352Z" fill="#D5BA86" stroke="#D4BA86"/>
<path d="M41.2644 54.1838C44.7141 50.6064 46.2587 42.7409 40.01 42.671C39.9782 42.6706 39.9435 42.6738 39.9123 42.6796C38.6402 42.9192 38.6796 42.92 39.1431 44.4375C39.1829 44.5678 39.2755 44.6773 39.395 44.7428C41.9825 46.1623 42.2986 48.5351 40.6037 53.7256C40.454 54.184 40.9296 54.5309 41.2644 54.1838Z" fill="#AA802F" stroke="#AA802F"/>
<path d="M42.8778 46.3352C43.3022 44.9243 42.6038 43.0544 40.4017 43.4884C40.3769 43.4933 40.3512 43.5008 40.3277 43.5098C39.8935 43.6752 39.8853 43.6872 40.2253 44.0372C40.3071 44.1215 40.4148 44.1756 40.528 44.1975C41.546 44.3941 42.0339 44.935 42.2112 46.135C42.2765 46.5769 42.7519 46.7536 42.8778 46.3352Z" fill="#D5BA86" stroke="#D4BA86"/>
</svg>
