<svg width="90" height="84" viewBox="0 0 90 84" fill="none" xmlns="http://www.w3.org/2000/svg">
<path d="M83.777 6.41995C53.2779 -0.779135 34.825 -0.832832 4.32881 6.41612C4.05685 6.48076 4.01646 6.85566 4.26667 6.9803C36.5889 23.0823 54.9073 21.783 83.8442 6.98216C84.092 6.85546 84.0478 6.48387 83.777 6.41995Z" fill="#A07E3D" stroke="#A07E3D"/>
<path d="M1.02826 6.96266C0.745844 6.13268 1.61059 5.37309 2.41098 5.73084C37.379 21.3607 52.0308 19.731 83.438 5.68788C84.225 5.336 85.0764 6.0689 84.8221 6.89264L62.8052 78.2311C62.7303 78.4736 62.5622 78.6812 62.3409 78.8057C48.8782 86.3765 39.2569 84.858 25.8034 78.7883C25.5521 78.6749 25.3564 78.4606 25.2676 78.1995L1.02826 6.96266Z" fill="#C89B44"/>
<path d="M6.12986 8.66622L28.2218 78.3011" stroke="#A07E3D"/>
<path d="M13.927 11.2216L31.4706 78.9399" stroke="#A07E3D"/>
<path d="M24.873 18.0081L33.4199 79.5788H35.2298L33.4199 18.0081" stroke="#A07E3D"/>
<path d="M40.5673 18.8879L37.9683 80.2176L43.1664 82.1342L46.4152 20.8044" stroke="#A07E3D"/>
<path d="M52.263 18.8879L47.0649 80.8565L50.9635 79.5788L58.7607 18.8879" stroke="#A07E3D"/>
<path d="M63.309 17.6101L53.5626 80.8565L57.4611 78.3011L69.8066 15.6936" stroke="#A07E3D"/>
<path d="M75.6545 13.1382L60.0602 77.0234L80.8526 9.30508" stroke="#A07E3D"/>
<path d="M4.18056 15.0547C38.5533 28.8716 55.8797 25.1308 81.5024 13.1382" stroke="#A07E3D"/>
<path d="M13.2773 39.97C43.1664 50.1916 52.263 48.9139 73.0555 39.97" stroke="#A07E3D"/>
<path d="M13.2773 44.4419C42.5166 55.3329 51.4155 53.9715 71.7559 44.4419" stroke="#A07E3D"/>
<path d="M15.8763 49.5527C43.1664 58.6286 51.472 57.4941 70.4564 49.5527" stroke="#A07E3D"/>
<path d="M17.1758 52.747C40.5673 60.4132 48.3645 61.0521 69.1569 52.747" stroke="#A07E3D"/>
<path d="M21.0744 61.6909C41.8668 69.3571 51.6133 68.7183 66.5578 61.6909" stroke="#A07E3D"/>
<path d="M19.1251 58.4967C39.9175 65.524 47.7147 65.524 66.5578 58.4967" stroke="#A07E3D"/>
<path d="M22.3739 66.8017C42.5166 71.9125 49.0142 74.468 63.9588 66.8017" stroke="#A07E3D"/>
<path d="M10.6782 35.498C40.0566 46.4285 53.7548 44.9854 75.6545 35.498" stroke="#A07E3D"/>
<path d="M9.37868 32.9426C39.9322 42.0513 52.8788 40.8487 75.6545 32.9426" stroke="#A07E3D"/>
<path d="M4.18056 17.6102C38.5533 31.427 54.5802 29.6028 80.2028 17.6102" stroke="#A07E3D"/>
<path d="M8.07914 27.1929C42.5166 38.6923 49.664 36.7757 75.0047 27.1929" stroke="#A07E3D"/>
<path d="M6.77962 21.4433C39.9175 34.8591 51.6133 33.5814 78.9033 21.4433" stroke="#A07E3D"/>
<path d="M83.8269 17.034L82.4267 9.88123" stroke="#856C3D" stroke-width="2"/>
<path d="M24.5061 75.8611C23.6918 73.3771 26.2826 71.0259 28.8341 71.5947C56.887 77.8486 54.5651 26.5167 79.7312 8.13186C81.8196 6.60625 84.2743 8.66778 83.5116 11.139L63.0382 77.4761C62.8136 78.2037 62.3193 78.8236 61.6505 79.1878C48.8139 86.1774 39.4158 84.8142 26.6083 79.148C25.8412 78.8086 25.2581 78.155 24.9968 77.3579L24.5061 75.8611Z" fill="#BB9243" fill-opacity="0.82"/>
<path d="M60.0602 78.6086C26.045 94.1198 17.3191 42.2493 4.20729 12.6133C3.72575 11.5249 2.51764 12.0283 2.86796 13.1657L22.9073 78.2307C22.9821 78.4735 23.1496 78.681 23.3713 78.805C36.3941 86.0842 47.9323 83.6612 48.9425 83.4289C48.9959 83.4166 49.0395 83.4009 49.0897 83.3791L60.0602 78.6086Z" fill="#BB9243" fill-opacity="0.99"/>
<path d="M1.05873 7.26327C0.746998 6.42872 1.6179 5.63949 2.43134 6.00276C37.2368 21.5462 51.9061 19.9608 83.1035 6.03939C83.9299 5.67065 84.799 6.49311 84.4562 7.33053L80.7199 16.4571C80.6266 16.6852 80.4485 16.8728 80.2263 16.9794C47.6194 32.6104 18.87 23.2311 4.9948 16.9787C4.75276 16.8696 4.57307 16.6716 4.48018 16.4229L1.05873 7.26327Z" fill="#BD9547" fill-opacity="0.88"/>
<path d="M2.88104 7.38852C67.8573 75.1068 97.7464 98.1055 83.4517 15.0547" stroke="#997B42" stroke-width="3"/>
<path d="M10.6782 8.23294C10.6782 9.99708 7.42939 10.5828 5.4801 11.4272C2.60926 11.4272 2.23127 12.4993 0.281992 8.23294C-1.04929 5.31918 2.60926 5.03868 5.4801 5.03868C7.42939 8.23294 10.6782 6.4688 10.6782 8.23294Z" fill="#897651"/>
<path d="M60.0602 62.9686L63.9588 61.6909C76.3375 69.641 82.1521 68.7183 84.1014 57.219H88C86.0507 71.2737 76.3043 74.468 60.0602 62.9686Z" fill="#DBBD84" stroke="#DBBD84" stroke-width="3"/>
</svg>
