<svg width="56" height="91" viewBox="0 0 56 91" fill="none" xmlns="http://www.w3.org/2000/svg">
<path d="M53.9432 41.6235C33.8506 37.264 21.5571 37.2313 1.46761 41.6196C1.18755 41.6808 1.14832 42.0664 1.40896 42.1858C22.716 51.9437 34.9255 51.1645 54.0068 42.188C54.2651 42.0665 54.2221 41.684 53.9432 41.6235Z" fill="#A2654C" stroke="#A2654C"/>
<path d="M12.1914 44.6539C11.6873 44.6539 11.0031 44.5412 10.5187 44.7317C12.2603 45.0695 14.0015 46.4255 15.5039 47.1648C16.5018 47.6558 18.0767 48.0997 19.2021 48.2125C19.6803 48.2605 19.9346 48.607 20.4161 48.6939C21.038 48.8062 21.7151 48.825 22.3452 48.9016C23.5307 49.0458 24.6508 49.7512 25.8741 49.7512C27.217 49.7512 28.6832 49.9054 30.0147 49.6756C32.1236 49.3117 34.4385 49.7072 36.4513 48.9394C37.218 48.6469 37.8557 48.3423 38.6534 48.2031C39.7112 48.0186 40.4189 47.3884 41.5329 47.3724C42.0628 47.3648 42.5933 47.3724 43.1233 47.3724H44.7983C45.4593 47.3724 45.9009 46.8547 46.5769 46.7306C46.7985 46.6898 48.5846 46.2216 48.2519 45.7677C47.9404 45.3428 47.3629 45.1175 46.8969 44.8993C44.9128 43.9705 42.391 44.165 40.272 44.1442C39.0588 44.1322 38.4892 43.2833 37.3736 43.1341C35.9389 42.9423 34.423 43.1466 33.0071 42.8793C31.5984 42.6133 30.1803 42.6136 28.7913 42.1808C27.6107 41.8128 27.2869 42.3512 26.2976 42.8887C23.9119 44.1849 21.4501 42.686 18.9857 43.304C17.8342 43.5928 15.7743 43.3542 14.9298 44.3896C14.4313 45.0007 12.9465 44.6539 12.1914 44.6539Z" fill="#4C3C1D"/>
<path d="M8.72839 46.0132C8.93917 44.9296 8.86459 45.0581 9.89528 44.9843C10.1982 44.9626 10.2424 44.852 10.4787 44.7483C10.965 44.5349 11.6732 44.6539 12.1914 44.6539C12.9465 44.6539 14.4313 45.0007 14.9298 44.3896C15.7743 43.3542 17.8342 43.5928 18.9857 43.304C21.4501 42.686 23.9119 44.1849 26.2976 42.8887C27.2869 42.3512 27.6107 41.8128 28.7913 42.1808C30.1803 42.6136 31.5984 42.6133 33.0071 42.8793C34.423 43.1466 35.9389 42.9423 37.3736 43.1341C38.4892 43.2833 39.0588 44.1322 40.272 44.1442C42.391 44.165 44.9128 43.9705 46.8969 44.8993C47.3629 45.1175 47.9404 45.3428 48.2519 45.7677C48.5846 46.2216 46.7985 46.6898 46.5769 46.7306C45.9009 46.8547 45.4593 47.3724 44.7983 47.3724C44.24 47.3724 43.6816 47.3724 43.1233 47.3724C42.5933 47.3724 42.0628 47.3648 41.5329 47.3724C40.4189 47.3884 39.7112 48.0186 38.6534 48.2031C37.8557 48.3423 37.218 48.6469 36.4513 48.9394C34.4385 49.7072 32.1236 49.3117 30.0146 49.6756C28.6832 49.9054 27.217 49.7512 25.8741 49.7512C24.6508 49.7512 23.5307 49.0458 22.3452 48.9016C21.7151 48.825 21.038 48.8062 20.4161 48.6939C19.9346 48.607 19.6803 48.2605 19.2021 48.2125C18.0767 48.0997 16.5018 47.6558 15.5039 47.1648C13.7788 46.3159 11.7388 44.6539 9.74471 44.6539" stroke="#4D3C1D" stroke-linecap="round" stroke-linejoin="round"/>
<ellipse cx="14.8534" cy="45.9682" rx="6.5" ry="2" transform="rotate(9.86195 14.8534 45.9682)" fill="#4C3C1D"/>
<ellipse cx="29.8903" cy="46.836" rx="6.5" ry="1.13142" transform="rotate(-2.43257 29.8903 46.836)" fill="#4C3C1D"/>
<path d="M0.513474 42.7606C0.308921 41.9399 1.15695 41.2506 1.92541 41.604C22.9976 51.2963 34.7916 50.0168 53.8193 41.4905C54.5553 41.1607 55.368 41.7851 55.2282 42.5794L47.5253 86.3642C47.465 86.7069 47.2265 86.9956 46.9023 87.1217C33.935 92.1642 26.1485 92.4262 12.0115 87.1027C11.7055 86.9875 11.4712 86.7266 11.3921 86.4094L0.513474 42.7606Z" fill="#914C30"/>
<path d="M28.0084 45.6737C30.4935 40.2881 31.4302 35.9742 29.2239 31.196C25.8088 25.2203 24.8736 22.5702 25.2597 19.3117" stroke="#709E60" stroke-opacity="0.9"/>
<path fill-rule="evenodd" clip-rule="evenodd" d="M27.8338 7.00076C27.1234 7.42703 26.2622 7.67661 25.334 7.67661C24.4142 7.67661 23.5602 7.43149 22.8534 7.01219C22.8399 8.67864 21.6062 10.0926 19.8913 10.6112C20.9385 11.3129 21.6133 12.415 21.6133 13.6543C21.6133 14.2683 21.4476 14.8487 21.1531 15.3633C21.2596 15.3566 21.367 15.3532 21.4755 15.3532C23.0395 15.3532 24.4133 16.0619 25.1962 17.1305C25.9321 16.1261 27.19 15.4397 28.6373 15.3608C28.4617 14.9467 28.3658 14.499 28.3658 14.0318C28.3658 12.6963 29.1494 11.5201 30.3383 10.8325C28.8464 10.2172 27.8145 8.89449 27.8145 7.362C27.8145 7.24018 27.8211 7.11968 27.8338 7.00076ZM29.7245 4.19955C29.7373 4.08063 29.7438 3.96013 29.7438 3.83831C29.7438 1.71847 27.7695 0 25.334 0C22.9092 0 20.9415 1.70351 20.9243 3.81058C20.2176 3.39129 19.3635 3.14616 18.4437 3.14616C16.0083 3.14616 14.0339 4.86463 14.0339 6.98446C14.0339 8.22373 14.7087 9.32582 15.7559 10.0276C14.0315 10.549 12.7937 11.9758 12.7937 13.6543C12.7937 15.7741 14.768 17.4926 17.2035 17.4926C17.3119 17.4926 17.4194 17.4892 17.5258 17.4825C17.2313 17.9972 17.0657 18.5775 17.0657 19.1915C17.0657 21.3114 19.04 23.0298 21.4755 23.0298C23.0395 23.0298 24.4133 22.3212 25.1962 21.2526C25.9791 22.3212 27.353 23.0298 28.917 23.0298C31.3525 23.0298 33.3268 21.3114 33.3268 19.1915C33.3268 18.7243 33.2309 18.2767 33.0553 17.8626C35.3604 17.737 37.1854 16.0699 37.1854 14.0318C37.1854 12.4994 36.1535 11.1766 34.6616 10.5613C35.8505 9.87375 36.6341 8.69753 36.6341 7.362C36.6341 5.24217 34.6598 3.5237 32.2243 3.5237C31.2962 3.5237 30.435 3.77328 29.7245 4.19955Z" fill="#EAAF3E"/>
<ellipse cx="25.5" cy="12" rx="5.5" ry="6" fill="#4D3C1E"/>
<path d="M25.3559 37.1998L29.2561 42.0597" stroke="#75995E" stroke-width="0.5"/>
<path d="M26.428 35.7624C27.6183 37.276 28.1087 38.1134 27.6365 39.5214L26.575 39.8232C23.8039 38.9903 22.8225 38.4762 20.4687 37.0464C21.3988 37.3502 21.4576 37.3285 22.1048 37.2103C19.9443 36.2708 19.7473 35.5285 18.9519 34.2502L20.2551 34.7002C19.5405 33.9188 19.2603 33.2873 19.0957 32.2948C20.9116 32.8079 21.2677 33.0448 23.0298 34.3216C23.8802 34.5219 23.3044 34.2823 23.2226 33.7198C24.8292 34.6901 25.4037 35.3074 25.6853 36.5752C26.2568 36.796 26.2974 36.3847 26.428 35.7624Z" fill="#75995E" stroke="#75995E"/>
<path d="M30.9732 24.4615C29.5925 27.0024 29.0209 28.497 29.5447 31.6967L30.7563 32.8909C33.9385 32.6129 35.0682 32.0555 37.78 30.3062C36.7116 30.4503 36.6446 30.3736 35.9051 29.7835C38.3897 28.9589 38.6241 27.5083 39.55 25.2514L38.0527 25.5042C38.8802 24.2454 39.2086 23.071 39.4089 21.0788C37.3239 21.1924 36.9134 21.5002 34.8808 23.2422C33.9049 23.2116 34.5669 23.0144 34.6674 21.8794C32.8164 23.0617 32.1513 24.0507 31.8138 26.5576C31.1569 26.7176 31.1153 25.8343 30.9732 24.4615Z" fill="#75995E" stroke="#75995E"/>
<ellipse cx="43.9608" cy="84.1972" rx="1.35509" ry="1.35927" fill="#523E18"/>
<path d="M8.60537 64.4311L13.0143 82.4676C13.1547 83.0419 14 82.9426 14 82.3514V72C14 69.5456 16.4097 61.3077 8.92686 63.8474C8.68712 63.9288 8.54526 64.1851 8.60537 64.4311Z" fill="#CAA68E" stroke="#CAA68E"/>
</svg>
