<svg width="109" height="97" viewBox="0 0 109 97" fill="none" xmlns="http://www.w3.org/2000/svg">
<path d="M107.5 26.7791L89.5 1.58589L86 10.3742L100.5 29.1227L102.5 26.7791V25.0215L107.5 26.7791Z" fill="#997B42" stroke="#C29439"/>
<path d="M13 93.5705L11.5 26.7791H79.5L87.5 4.51534L101 22.092V77.7515L79.5 96.5L13 93.5705Z" fill="#E7E4CD"/>
<path d="M79.5 96.5L13 93.5706L11.5 26.7791H79.5M79.5 96.5L101 77.7515V22.092L87.5 4.51534L79.5 26.7791M79.5 96.5V26.7791" stroke="#F9F7E8" stroke-width="0.5"/>
<path d="M18 1H89L78 30.8804L73.5 27.9509L69 30.8804L65.5 27.9509L59 30.8804L52.5 27.9509L46.5 33.8098L44 27.9509L38 30.8804L36 27.9509L33.5 33.8098L28.5 30.8804H25L20 27.9509L12.5 30.8804L4.5 27.9509L18 1Z" fill="#997B42"/>
<path d="M12.4615 47.2853H79.5L67.8462 66.4941L63.6923 64.6109L59.5385 66.4941L56.3077 64.6109L50.3077 66.4941L44.3077 64.6109L38.7692 68.3773L36.4615 64.6109L30.9231 66.4941L29.0769 64.6109L26.7692 68.3773L22.1538 66.4941H18.9231L14.3077 64.6109L7.38462 66.4941L0 64.6109L12.4615 47.2853Z" fill="#A07E3D"/>
<path d="M13 92.9655V74H23L31.5 78.5517L37.5 76.2759L39.5 78.5517H56.5L59 76.2759L61.5 80.069L68.5 78.5517L79 80.069V96L13 92.9655Z" fill="#B27148" stroke="#B27148" stroke-opacity="0.95"/>
<path d="M41 73.0644H49.5V94.7423H41V73.0644Z" fill="#393535"/>
<path d="M20 34.3957H28V42.5982H20V34.3957Z" fill="#393535"/>
<path d="M41 34.3957H49V42.5982H41V34.3957Z" fill="#393535"/>
<path d="M60 34.3957H68V42.5982H60V34.3957Z" fill="#393535"/>
<ellipse cx="90.5" cy="28.5" rx="2.5" ry="3.5" fill="#393535"/>
</svg>
