<svg width="275" height="62" viewBox="0 0 275 62" fill="none" xmlns="http://www.w3.org/2000/svg">
<path d="M14.8 26.312C13.972 26.312 13.282 26.496 12.73 26.864C12.2087 27.2013 11.948 27.7533 11.948 28.52C11.948 29.4093 12.362 30.0687 13.19 30.498C13.834 30.406 14.5087 30.36 15.214 30.36C18.4647 30.36 20.9793 31.142 22.758 32.706C24.5673 34.27 25.6253 36.34 25.932 38.916H19.032C18.848 38.1493 18.4033 37.49 17.698 36.938C16.9927 36.3553 16.1033 36.064 15.03 36.064C13.8033 36.064 12.7913 36.478 11.994 37.306C11.1967 38.134 10.798 39.238 10.798 40.618C10.798 42.0287 11.1813 43.148 11.948 43.976C12.7453 44.7733 13.7727 45.172 15.03 45.172C16.0727 45.172 16.9467 44.9113 17.652 44.39C18.3573 43.8687 18.8173 43.2247 19.032 42.458H25.932C25.6867 45.0953 24.5673 47.196 22.574 48.76C20.6113 50.3547 18.0967 51.152 15.03 51.152C12.7607 51.152 10.7673 50.7073 9.05 49.818C7.33267 48.9593 6.014 47.7173 5.094 46.092C4.174 44.4667 3.714 42.596 3.714 40.48C3.714 38.7013 4.06667 37.122 4.772 35.742C5.508 34.362 6.55067 33.2427 7.9 32.384C5.81467 31.1267 4.772 29.348 4.772 27.048C4.772 25.2693 5.43133 23.8433 6.75 22.77C8.09933 21.6967 9.924 21.16 12.224 21.16H15.904V17.986H0.218V11.96H28.692V17.986H22.804V26.312H14.8ZM68.2502 17.986H63.7422V46H56.5202V29.716H51.2302V31.096C51.2302 33.0893 50.8009 34.868 49.9422 36.432C49.1142 37.996 47.9182 39.2227 46.3542 40.112C44.7902 40.9707 42.9502 41.4 40.8342 41.4C37.4609 41.4 34.8542 40.4647 33.0142 38.594C31.2049 36.6927 30.3002 34.1933 30.3002 31.096V23.552H37.5682V30.866C37.5682 32.1847 37.8595 33.2273 38.4422 33.994C39.0249 34.73 39.8375 35.098 40.8802 35.098C41.9229 35.098 42.7202 34.73 43.2722 33.994C43.8549 33.2273 44.1462 32.1847 44.1462 30.866V23.552H56.5202V17.986H27.1262V11.96H68.2502V17.986ZM57.7784 61.64C55.6317 61.64 53.6537 61.272 51.8444 60.536C50.035 59.8307 48.5784 58.6807 47.4744 57.086C46.3704 55.4913 45.8337 53.4367 45.8644 50.922H52.2584C52.2277 52.6393 52.703 53.912 53.6844 54.74C54.635 55.568 55.9384 55.982 57.5944 55.982C58.913 55.982 59.9404 55.6907 60.6764 55.108C61.4124 54.556 61.7804 53.7587 61.7804 52.716C61.7804 51.8267 61.4737 51.0907 60.8604 50.508C60.2164 49.9253 59.3117 49.634 58.1464 49.634H56.4904V44.022H58.1464C61.3357 44.022 63.7584 44.7887 65.4144 46.322C67.0704 47.886 67.8984 50.048 67.8984 52.808C67.8984 55.5373 66.9937 57.684 65.1844 59.248C63.3444 60.8427 60.8757 61.64 57.7784 61.64ZM77.5124 32.2V36.8C77.5124 37.8427 77.7424 38.686 78.2024 39.33C78.693 39.9433 79.3984 40.25 80.3184 40.25C81.177 40.25 81.8517 39.9587 82.3424 39.376C82.833 38.7627 83.0784 37.9653 83.0784 36.984V35.696H90.0244V36.708C90.0244 39.6827 89.181 42.044 87.4944 43.792C85.8077 45.54 83.4617 46.414 80.4564 46.414C78.3097 46.414 76.4697 45.9847 74.9364 45.126C73.4337 44.2367 72.299 43.0407 71.5324 41.538C70.7657 40.0353 70.3824 38.3333 70.3824 36.432V26.404H75.0284C77.3897 26.404 79.061 25.898 80.0424 24.886C81.0544 23.8433 81.5604 22.3407 81.5604 20.378V17.986H66.7024V11.96H92.6924V17.986H88.7824V20.378C88.7824 24.058 87.9237 26.956 86.2064 29.072C84.5197 31.1573 81.6984 32.2 77.7424 32.2H77.5124ZM117.958 17.986V24.794C118.633 23.782 119.522 23 120.626 22.448C121.761 21.8653 123.079 21.574 124.582 21.574C126.483 21.574 128.139 22.0493 129.55 23C130.961 23.92 132.034 25.1773 132.77 26.772C133.506 28.3667 133.874 30.1453 133.874 32.108C133.874 34.2853 133.46 36.1713 132.632 37.766C131.835 39.33 130.715 40.526 129.274 41.354C127.863 42.182 126.238 42.596 124.398 42.596C123.294 42.596 122.251 42.4733 121.27 42.228V36.57C121.607 36.662 122.006 36.708 122.466 36.708C123.662 36.708 124.643 36.3093 125.41 35.512C126.177 34.7147 126.56 33.6413 126.56 32.292C126.56 30.9733 126.161 29.8847 125.364 29.026C124.597 28.1673 123.57 27.738 122.282 27.738C120.871 27.738 119.798 28.2133 119.062 29.164C118.326 30.1147 117.958 31.3107 117.958 32.752V46H111.012V39.652C110.307 40.7253 109.341 41.5687 108.114 42.182C106.918 42.7647 105.492 43.056 103.836 43.056C101.935 43.056 100.263 42.6113 98.8219 41.722C97.3805 40.802 96.2765 39.5293 95.5099 37.904C94.7432 36.248 94.3599 34.3773 94.3599 32.292C94.3599 29.072 95.2339 26.4807 96.9819 24.518C98.7299 22.5553 101.107 21.574 104.112 21.574C105.707 21.574 107.071 21.85 108.206 22.402C109.371 22.954 110.307 23.736 111.012 24.748V17.986H91.1399V11.96H137.094V17.986H117.958ZM106.32 36.984C107.761 36.984 108.896 36.524 109.724 35.604C110.583 34.6533 111.012 33.5493 111.012 32.292C111.012 31.0347 110.598 29.9613 109.77 29.072C108.942 28.152 107.807 27.692 106.366 27.692C105.017 27.692 103.897 28.1213 103.008 28.98C102.119 29.8387 101.674 30.9427 101.674 32.292C101.674 33.7027 102.103 34.8373 102.962 35.696C103.821 36.5547 104.94 36.984 106.32 36.984ZM140.031 17.986H135.523V11.96H151.761V17.986H147.299V46H140.031V17.986ZM140.445 12.144C139.187 10.212 138.175 8.81667 137.409 7.958C136.642 7.09933 135.845 6.532 135.017 6.256C134.189 5.94933 133.069 5.796 131.659 5.796H129.221V0H131.521C134.097 0.0306644 136.136 0.321997 137.639 0.873997C139.141 1.39533 140.598 2.49933 142.009 4.186C143.45 5.842 145.183 8.49467 147.207 12.144H140.445ZM198.888 17.986H194.38V46H187.158V29.164H181.27C182.098 30.5747 182.512 32.1693 182.512 33.948C182.512 35.8187 182.083 37.4287 181.224 38.778C180.365 40.1273 179.2 41.1393 177.728 41.814C176.256 42.4887 174.631 42.826 172.852 42.826C171.012 42.826 169.295 42.4427 167.7 41.676C166.136 40.8787 164.879 39.744 163.928 38.272C163.008 36.7693 162.548 35.0213 162.548 33.028C162.548 30.912 163.023 29.118 163.974 27.646C164.955 26.1433 166.274 25.024 167.93 24.288C169.586 23.552 171.426 23.184 173.45 23.184H187.158V17.986H159.466V11.96H198.888V17.986ZM172.944 36.708C174.079 36.708 174.999 36.3707 175.704 35.696C176.409 34.9907 176.762 34.0707 176.762 32.936C176.762 31.8627 176.409 30.9733 175.704 30.268C174.999 29.5627 174.079 29.21 172.944 29.21C171.809 29.21 170.874 29.5627 170.138 30.268C169.402 30.9733 169.034 31.878 169.034 32.982C169.034 34.086 169.387 34.9907 170.092 35.696C170.828 36.3707 171.779 36.708 172.944 36.708ZM201.843 17.986H197.335V11.96H213.573V17.986H209.111V46H201.843V17.986ZM252.367 17.986H247.859V46H240.591V30.544H234.657V32.706C234.657 35.9873 233.798 38.5633 232.081 40.434C230.394 42.274 227.941 43.194 224.721 43.194C222.727 43.194 220.964 42.8107 219.431 42.044C217.897 41.2773 216.717 40.1887 215.889 38.778C215.061 37.3673 214.647 35.7267 214.647 33.856C214.647 30.8507 215.613 28.566 217.545 27.002C219.507 25.4073 221.991 24.61 224.997 24.61H227.941V17.986H212.025V11.96H252.367V17.986ZM240.591 17.986H234.657V24.61H240.591V17.986ZM227.941 30.544H225.227C224.061 30.544 223.126 30.8353 222.421 31.418C221.715 31.97 221.363 32.7673 221.363 33.81C221.363 34.8527 221.654 35.6653 222.237 36.248C222.85 36.8 223.632 37.076 224.583 37.076C225.687 37.076 226.515 36.7233 227.067 36.018C227.649 35.282 227.941 34.3007 227.941 33.074V30.544ZM263.856 11.132C267.107 11.132 269.698 11.9753 271.63 13.662C273.562 15.318 274.528 17.71 274.528 20.838C274.528 23.7513 273.578 26.036 271.676 27.692C269.806 29.348 267.291 30.2067 264.132 30.268V34.362H256.726V25.208H259.808C262.016 25.208 263.734 24.9013 264.96 24.288C266.187 23.644 266.8 22.5093 266.8 20.884C266.8 19.8413 266.509 19.0287 265.926 18.446C265.344 17.8633 264.562 17.572 263.58 17.572C262.476 17.572 261.602 17.9093 260.958 18.584C260.345 19.228 260.038 20.056 260.038 21.068H252.632C252.571 19.228 252.954 17.5567 253.782 16.054C254.641 14.5207 255.929 13.3247 257.646 12.466C259.364 11.5767 261.434 11.132 263.856 11.132ZM264.546 38.134V46H256.358V38.134H264.546Z" fill="#27AE60"/>
</svg>
