<svg width="96" height="94" viewBox="0 0 96 94" fill="none" xmlns="http://www.w3.org/2000/svg">
<path d="M42.7891 6.56086C20.4612 42.2131 18.5142 71.4955 80.1721 70.6007C14.3678 112.67 -20.7817 33.3238 42.7891 6.56086Z" fill="#E7E4CD" stroke="#E6E4CD"/>
<path d="M21 46.4154C19.824 49 19.195 49 17.934 49C14.7107 49 14.3963 47.6154 14 46.4154C14 43.9174 15.1038 44.0154 16.9088 43C18.4057 43.8308 15.7327 45.3077 21 46.4154Z" fill="#D2D1C1"/>
<path d="M24 40.4154C22.824 43 21.3989 44.1722 20.934 43C19.9088 40.4154 17.3963 41.6154 17 40.4154C17 37.9174 18.1038 38.0154 19.9088 37C24 34.6985 24.644 39 24 40.4154Z" fill="#D2D1C1"/>
<path d="M39 71.9686C39 73.7442 38.0063 72.6256 37.3636 72.9065C36.7209 73.1875 36.2161 72.7189 36 71.9686C36 70.7709 37.3177 68.9498 38.1321 70.7709C38.6913 72.0215 39 69.2077 39 71.9686Z" fill="#D2D1C1"/>
<path d="M43.8508 75.1348C43.0358 73.3198 42.0483 72.4966 41.7261 73.3198C41.0157 75.1348 39.2746 74.2921 39 75.1348C39 76.889 39.7649 76.8202 41.0157 77.5332C43.8508 79.1494 44.2971 76.1287 43.8508 75.1348Z" fill="#D2D1C1"/>
<path d="M25.8806 48.7191C25.2286 49.8081 24.4387 50.302 24.1809 49.8081C23.6126 48.7191 22.2197 49.2247 22 48.7191C22 47.6666 22.6119 47.7079 23.6126 47.2801C25.8806 46.3103 26.2376 48.1228 25.8806 48.7191Z" fill="#D2D1C1"/>
</svg>
