<svg width="80" height="73" viewBox="0 0 80 73" fill="none" xmlns="http://www.w3.org/2000/svg">
<path d="M28.7242 15.0163L28.8526 14.8621L30.654 16.3615L30.5256 16.5157L29.7994 15.9113L29.4387 16.3447C29.471 16.3425 29.5233 16.3561 29.5953 16.3855C29.6538 16.4114 29.7079 16.4449 29.7574 16.4862C29.8295 16.5461 29.8763 16.615 29.898 16.6928C29.9203 16.7698 29.9187 16.8542 29.8931 16.946C29.8702 17.0299 29.8367 17.0985 29.7923 17.1518C29.7211 17.2373 29.6264 17.29 29.5082 17.3098C29.3777 17.3384 29.265 17.3304 29.1701 17.2857L29.2167 17.0786L29.3136 17.104C29.3592 17.1165 29.4096 17.1261 29.465 17.1328C29.5922 17.1434 29.6886 17.1092 29.7542 17.0304C29.7823 16.9967 29.7987 16.9608 29.8036 16.9229C29.8163 16.8725 29.8064 16.8249 29.7739 16.78C29.7569 16.7608 29.7354 16.7385 29.7095 16.7131C29.6844 16.6884 29.6575 16.6641 29.629 16.6404C29.5967 16.6135 29.5467 16.6004 29.4788 16.6011C29.4166 16.5964 29.354 16.6014 29.2908 16.6162C29.2642 16.6207 29.2376 16.6259 29.2111 16.6318C29.2078 16.6328 29.203 16.634 29.1969 16.6352L28.584 17.3715L28.5452 17.0381L28.8273 16.6992C28.7731 16.7062 28.7027 16.6978 28.6159 16.6738C28.5298 16.6505 28.4553 16.6126 28.3922 16.5601C28.3404 16.517 28.3008 16.4669 28.2734 16.4098C28.246 16.3526 28.2285 16.2904 28.221 16.2232C28.2148 16.1558 28.2191 16.0926 28.2338 16.0337C28.2492 15.9741 28.2775 15.9195 28.3187 15.8699C28.3986 15.7739 28.4988 15.713 28.6192 15.6875C28.741 15.6618 28.8531 15.6782 28.9555 15.7368L29.0355 15.7919C29.1766 15.9093 29.2346 16.0586 29.2096 16.2398L29.1515 16.3096C29.1334 16.1955 29.0816 16.1028 28.996 16.0316C28.9067 15.9572 28.804 15.9226 28.688 15.9277C28.5432 15.9368 28.4355 15.9837 28.3649 16.0685C28.3275 16.1136 28.3089 16.1603 28.3091 16.2089C28.3115 16.2655 28.3353 16.3126 28.3803 16.35C28.4426 16.4019 28.5585 16.4374 28.7281 16.4566C28.7972 16.462 28.8682 16.4538 28.9411 16.4319C29.014 16.4099 29.0738 16.3816 29.1206 16.3468L29.6126 15.7557L28.7242 15.0163ZM30.5256 16.5157L30.654 16.3615L32.2775 17.7128L32.1491 17.867L31.8148 17.5887L30.5993 19.049L30.5582 18.7136L31.218 17.921C31.1513 17.8897 31.0715 17.8734 30.9784 17.8722C30.915 17.869 30.8346 17.884 30.7371 17.9172C30.7047 17.9271 30.6748 17.9378 30.6474 17.9493C30.6208 17.9614 30.5954 17.9752 30.5711 17.9906L30.498 17.7029L30.7065 17.6631C30.7316 17.5963 30.7272 17.5284 30.6931 17.4594C30.6716 17.4211 30.6473 17.3908 30.6203 17.3683C30.606 17.3564 30.5785 17.3399 30.5377 17.3186C30.48 17.2934 30.4234 17.2857 30.3682 17.2957C30.3314 17.3032 30.2954 17.3183 30.26 17.3409C30.2352 17.3584 30.2007 17.3938 30.1563 17.4471C30.1457 17.4599 30.1353 17.4785 30.125 17.503L30.1054 17.5839C30.1023 17.6182 30.0989 17.6375 30.0951 17.642C30.0851 17.7074 30.0818 17.7618 30.0851 17.8052C30.0887 17.8375 30.0914 17.8632 30.0932 17.8825C30.0957 17.9024 30.1029 17.9509 30.1148 18.0282C30.1189 18.0417 30.1234 18.069 30.1286 18.1102L30.1442 18.1899L30.148 18.2082L30.1517 18.2266L30.0578 18.2456C30.0501 18.2304 30.0395 18.1897 30.0258 18.1237C30.0121 18.0577 29.9951 17.9629 29.9748 17.8392C29.9552 17.7162 29.9453 17.6228 29.945 17.559C29.9455 17.4959 29.9588 17.4288 29.9848 17.3578C30.0122 17.2929 30.0352 17.2408 30.0538 17.2017C30.073 17.1618 30.0889 17.1343 30.1014 17.1193C30.1307 17.084 30.1647 17.0577 30.2034 17.0403C30.304 16.9881 30.4091 16.9847 30.5186 17.0302C30.5677 17.0583 30.5978 17.077 30.6091 17.0864C30.6473 17.1183 30.687 17.1691 30.7281 17.2388C30.7694 17.3037 30.7933 17.3795 30.7998 17.4663C30.8063 17.5364 30.8006 17.5997 30.7829 17.6561C30.8974 17.6498 30.9807 17.6511 31.0329 17.6602C31.1328 17.6761 31.2028 17.6905 31.2428 17.7034L31.2634 17.713L31.2839 17.7205C31.2931 17.7231 31.3065 17.7292 31.324 17.7387C31.339 17.7435 31.3499 17.7488 31.3567 17.7544L31.6256 17.4313L30.5256 16.5157ZM32.1491 17.867L32.2775 17.7128L33.8279 19.0032L33.6995 19.1574L33.3572 18.8725L32.1418 20.3328L32.1104 20.0018L32.5247 19.5041L32.045 19.1049L31.8632 19.3234C31.8245 19.3699 31.7949 19.391 31.7744 19.3866C31.7646 19.3861 31.7552 19.3821 31.7462 19.3746C31.7109 19.3453 31.6951 19.3124 31.6987 19.276L31.7121 18.7058C31.7182 18.6436 31.7303 18.6015 31.7484 18.5798C31.7714 18.5659 31.8118 18.583 31.8696 18.6311L32.0238 18.7595L32.5139 18.1706L32.1491 17.867ZM33.1759 18.7217L32.6963 18.3225L32.2062 18.9113L32.6858 19.3105L33.1759 18.7217Z" fill="#F4E8CF"/>
<path d="M1.40458 15.3803L6.09513 19.7892C6.50816 20.1774 7.16097 20.1451 7.53359 19.7179L18.8276 6.77078C19.1965 6.34793 19.1453 5.70442 18.7142 5.3452L13.9279 1.35662C13.6619 1.13491 13.2952 1.06806 12.9669 1.17837C4.60187 3.98924 3.01873 5.15611 1.11144 14.4498C1.04201 14.7881 1.15295 15.1438 1.40458 15.3803Z" fill="#CA7E7E" stroke="#CA7E7E"/>
<path d="M3.03577 11.2854L2.54823 14.2106C2.51845 14.3893 2.58763 14.5701 2.72908 14.6833L3.94792 15.6583C4.31 15.948 4.83716 15.6315 4.7517 15.1758L4.0204 11.2755C3.91738 10.726 3.12766 10.734 3.03577 11.2854Z" fill="#D8ADAD" stroke="#D8ADAD"/>
<path d="M70 65L71 66.5L55 63L52.4664 59.6339L63.9478 45.6189L67.1204 48.0876L73.5 61C69.6959 59.7853 67.592 61.7124 70 65Z" fill="#E0C19C"/>
<path d="M76.2754 66.922C76.4535 67.2996 76.1179 67.7163 75.711 67.6226L68.3419 65.926C68.128 65.8767 67.9704 65.6932 67.9589 65.4741C67.7866 62.1924 68.6783 60.7881 72.5 59.842C72.7279 59.7856 72.9625 59.9004 73.0627 60.1127L76.2754 66.922Z" fill="#393535"/>
<path d="M21.8602 15.6537C21.9365 15.5699 22.0711 15.5626 22.1564 15.6378L63.1907 51.787C63.3571 51.9337 63.1606 52.2506 62.9358 52.216C60.0068 51.7653 57.6387 54.1469 58.6806 57.6366C58.7409 57.8384 58.4585 58.0165 58.2974 57.8727L17.1423 21.127C17.0626 21.0559 17.0563 20.9381 17.1279 20.8593L21.8602 15.6537Z" fill="#89A5B9"/>
<path d="M17.0969 20.9694C17.1724 20.8818 17.3106 20.873 17.3974 20.9504L58.7071 57.7928C58.8721 57.94 58.6816 58.2371 58.46 58.1899C55.5873 57.5787 53.516 59.2481 54.6007 62.6351C54.665 62.8359 54.3872 63.0131 54.2261 62.869L13.0119 25.992C12.9339 25.9222 12.9262 25.8072 12.9943 25.7283L17.0969 20.9694Z" fill="#EAAF3E"/>
<path d="M25.9581 10.7856C26.0653 10.6362 26.2887 10.6133 26.4264 10.7376L67.1959 47.5315C67.4321 47.7447 67.1919 48.1373 66.8725 48.0716C63.4942 47.3764 62.8243 48.8453 63.6531 51.6709C63.7397 51.9659 63.3469 52.2061 63.1113 51.9964L22.5793 15.929C22.4693 15.8311 22.451 15.672 22.5361 15.5535L25.9581 10.7856Z" fill="#EAAF3E"/>
<path d="M7.52882 22.0373C9.09535 24.5033 10.5233 25.98 13.5486 26.5107L27.5 11.5C27.125 9.54169 26.5461 8.92605 25 8.50001C23.1338 5.07322 18.5448 4.19065 18.4513 4.48885L5.01557 19.0484C5.37287 20.6197 6.08445 22.0437 7.52882 22.0373Z" fill="#C4C4C4" stroke="#C4C4C4"/>
<path d="M7.5 23L13 17.5L17.5 12.5" stroke="#E7DEDE"/>
<path d="M15.7267 19.207L20.989 13.4791L25.2733 8.29304" stroke="#E6DEDE"/>
</svg>
