<svg width="133" height="81" viewBox="0 0 133 81" fill="none" xmlns="http://www.w3.org/2000/svg">
<path d="M88.6799 9.30886C76.7425 14.1119 87.5187 9.53732 87.5187 9.53732C87.911 9.45759 88.298 9.38143 88.6799 9.30886C89.0159 9.17364 89.37 9.03099 89.7428 8.8806C103.358 3.38807 115.181 7.30347 123.104 23.3284L120.88 23.9851C112.491 9.917 105.565 6.1003 88.6799 9.30886Z" fill="#523E18"/>
<path d="M87.5187 9.53732C87.5187 9.53732 76.1272 14.3731 89.7428 8.8806C103.358 3.38807 115.181 7.30347 123.104 23.3284L120.88 23.9851C112.301 9.5988 105.252 5.93289 87.5187 9.53732Z" stroke="#523E18"/>
<path d="M90.4842 2.31343L84.5533 3.62686V36.4627L90.4842 33.8358V2.31343Z" fill="#523E18"/>
<path d="M78.6225 2.31343L84.5533 3.62686V36.4627L78.6225 33.8358V2.31343Z" fill="#7B5E27"/>
<path d="M88.6772 2.31343L84.5533 3.62687L80.4252 2.31343L84.5533 1L88.6772 2.31343Z" fill="#523E18" stroke="#523E18"/>
<path d="M127.5 21V42.5L90 29.7391L91.3491 8.96106C108.859 1.03831 125 12.5 127.5 21Z" fill="#523E18"/>
<path d="M125.56 23.4524V45L86 30.6V9.65454C108.642 6.11197 116.11 10.1843 125.56 23.4524Z" fill="#7B5E27"/>
<path d="M132 18.3881L126.069 19.7015V52.5373L132 49.9104V18.3881Z" fill="#523E18"/>
<path d="M120.138 18.3881L126.069 19.7015V52.5373L120.138 49.9104V18.3881Z" fill="#7B5E27"/>
<path d="M130.453 18.3881L126.069 19.7015L121.685 18.3881L126.069 17.0746L130.453 18.3881Z" fill="#523E18" stroke="#523E18"/>
<path d="M7.46854 47.5672L87.3638 23.0896L120.138 38.619L40.7583 62.4925L7.46854 47.5672Z" fill="#8D7A63"/>
<path d="M119.622 47.6667V39.0952L40.7583 63.0896V73.2388L119.622 47.6667Z" fill="#523E18" stroke="#523E18"/>
<path d="M15.7012 40.403L88.4458 20.7015L119.622 33.8642L49.934 54.1343L15.7012 40.403Z" fill="#DDD8D1"/>
<path d="M119.181 37.4179V34.4328L50.761 54.1343V57.7164L119.181 37.4179Z" fill="#B89C7B" stroke="#B89C7B"/>
<path d="M91.4022 12.5184C86.8604 14.4831 83.9553 17.1556 81.7954 21.9883L79.3937 24.7736H81.7954C87.1992 32.0153 93.8926 35.0983 103.411 35.3576L104.611 38.1429L107.013 35.3576C111.971 34.2938 114.302 32.2811 117.22 24.7736L119.622 21.4313H115.419C109.372 14.8881 105.587 11.7823 95.6051 10.8473L91.4022 8.61905V12.5184Z" fill="#CAA68E" stroke="#CAA68E"/>
<path d="M95.3819 12.9047C89.4186 15.9437 87.2392 17.8011 86.0984 21.4762C93.619 16.3928 97.4534 15.1421 103.634 15.7619C100.896 13.4533 99.1815 12.5997 95.3819 12.9047Z" fill="#E1D6D6" stroke="#E1D6D6"/>
<path d="M54.122 26.7143C42.7756 26.7143 30.3976 28.1428 16.4724 40.5238L48.9646 53.8571V78.619L50.5118 80.0476C59.0428 82.0636 73.2883 77.3371 96.4134 63.8571C99.0426 56.1773 102.223 51.0169 97.9606 39.0952C86.1757 30.8299 83.0433 26.0744 66.5 25.2857C62.7296 24.4586 57.2165 25.2857 54.122 26.7143Z" fill="#964F32" stroke="#964F32"/>
<path d="M89.1929 42.4286C83.8256 34.7147 75.1984 31.0215 53.6063 26.2381C58.6317 23.3352 61.0642 23.6333 66.5 25.2857C83.6865 24.609 88.4593 30.4375 97.9606 39.5714C102.685 50.5993 101.185 55.7635 95.8976 64.3333L89.1929 67.6667C91.9112 57.8106 91.3945 52.2847 89.1929 42.4286Z" fill="#9B734F" stroke="#9B734F"/>
<path d="M11.7156 32.1045L6.35778 33.3582V64.7015L11.7156 62.194V32.1045Z" fill="#523E18"/>
<path d="M1 32.1045L6.35778 33.3582V64.7015L1 62.194V32.1045Z" fill="#7B5E27"/>
<path d="M10.2835 32.1045L6.35778 33.3582L2.54724 32.1045L6.35778 30.8508L10.2835 32.1045Z" fill="#523E18" stroke="#523E18"/>
<path d="M38.5045 52.7911V72.8508L7.69723 59.0597V39L38.5045 52.7911Z" fill="#7B5E27"/>
<path d="M11.0458 38.3731L9.03667 39L39.1742 52.791L41.1834 52.1642L11.0458 38.3731Z" fill="#523E18" stroke="#523E18"/>
<path d="M49.22 48.403L43.8623 49.6567V81L49.22 78.4925V48.403Z" fill="#523E18"/>
<path d="M38.5045 48.403L43.8623 49.6567V81L38.5045 78.4925V48.403Z" fill="#7B5E27"/>
<path d="M47.9331 48.403L43.8623 49.6567L40.1969 48.403L43.8623 47.1493L47.9331 48.403Z" fill="#523E18" stroke="#523E18"/>
</svg>
