<svg width="150" height="150" viewBox="0 0 150 150" fill="none" xmlns="http://www.w3.org/2000/svg">
<path d="M70.17 9.35216C73.1765 7.69377 76.8235 7.69377 79.83 9.35216L134.782 39.6641C137.971 41.4234 139.952 44.7778 139.952 48.4203V108.268C139.952 111.91 137.971 115.264 134.782 117.024L79.83 147.336C76.8235 148.994 73.1765 148.994 70.17 147.336L15.2181 117.024C12.0287 115.264 10.0481 111.91 10.0481 108.268V48.4203C10.0481 44.7778 12.0287 41.4234 15.2181 39.6641L70.17 9.35216Z" fill="#09D78D"/>
<path d="M70.17 2.66426C73.1765 1.00587 76.8235 1.00587 79.83 2.66427L134.782 32.9762C137.971 34.7355 139.952 38.0899 139.952 41.7324V101.58C139.952 105.222 137.971 108.577 134.782 110.336L79.83 140.648C76.8235 142.306 73.1765 142.306 70.17 140.648L15.2181 110.336C12.0287 108.577 10.0481 105.222 10.0481 101.58V41.7324C10.0481 38.0899 12.0287 34.7355 15.2181 32.9762L70.17 2.66426Z" fill="#00FFA3"/>
</svg>
