<svg width="130" height="36" viewBox="0 0 130 36" fill="none" xmlns="http://www.w3.org/2000/svg">
<path d="M27.036 6.986V13.794C27.7107 12.782 28.6 12 29.704 11.448C30.8387 10.8653 32.1573 10.574 33.66 10.574C35.5613 10.574 37.2173 11.0493 38.628 12C40.0387 12.92 41.112 14.1773 41.848 15.772C42.584 17.3667 42.952 19.1453 42.952 21.108C42.952 23.2853 42.538 25.1713 41.71 26.766C40.9127 28.33 39.7933 29.526 38.352 30.354C36.9413 31.182 35.316 31.596 33.476 31.596C32.372 31.596 31.3293 31.4733 30.348 31.228V25.57C30.6853 25.662 31.0687 25.708 31.498 25.708C32.7247 25.708 33.7213 25.3247 34.488 24.558C35.2547 23.7607 35.638 22.672 35.638 21.292C35.638 19.9733 35.2393 18.8847 34.442 18.026C33.6753 17.1673 32.648 16.738 31.36 16.738C29.9493 16.738 28.876 17.2133 28.14 18.164C27.404 19.1147 27.036 20.3107 27.036 21.752V35H20.09V28.606C19.3847 29.6793 18.4187 30.5227 17.192 31.136C15.9653 31.7493 14.5393 32.056 12.914 32.056C11.0127 32.056 9.34133 31.6113 7.9 30.722C6.45867 29.802 5.35467 28.5293 4.588 26.904C3.82133 25.248 3.438 23.3773 3.438 21.292C3.438 18.072 4.312 15.4807 6.06 13.518C7.808 11.5553 10.1847 10.574 13.19 10.574C14.7847 10.574 16.1647 10.8653 17.33 11.448C18.4953 12 19.4153 12.782 20.09 13.794V6.986H0.218V0.96H46.172V6.986H27.036ZM15.398 25.984C16.8393 25.984 17.974 25.524 18.802 24.604C19.6607 23.6533 20.09 22.5493 20.09 21.292C20.09 20.0347 19.676 18.9613 18.848 18.072C18.02 17.152 16.8853 16.692 15.444 16.692C14.0947 16.692 12.9753 17.1213 12.086 17.98C11.1967 18.8387 10.752 19.958 10.752 21.338C10.752 22.7487 11.1813 23.8833 12.04 24.742C12.8987 25.57 14.018 25.984 15.398 25.984Z" fill="#0D7E6A"/>
<path d="M90.3248 0.96V6.986H85.8168V35H78.6408V27.732C77.3528 29.1733 75.5435 29.894 73.2128 29.894C72.8755 29.894 72.4001 29.8633 71.7868 29.802C70.6828 31.4887 69.2415 32.838 67.4628 33.85C65.7148 34.8313 63.6755 35.322 61.3448 35.322C57.3275 35.322 54.1535 34.1873 51.8228 31.918C49.5228 29.618 48.3728 26.4133 48.3728 22.304V16.462H49.5688C51.6848 16.462 53.2488 15.9867 54.2608 15.036C55.2728 14.0853 55.7788 12.5673 55.7788 10.482V6.986H44.6008V0.96H90.3248ZM61.5288 29.066C63.7981 29.066 65.4541 28.3147 66.4968 26.812C65.0861 25.0027 64.3808 22.8407 64.3808 20.326C64.3808 18.5473 64.7488 16.9527 65.4848 15.542C66.2515 14.1007 67.3095 12.9813 68.6588 12.184C70.0081 11.356 71.5261 10.942 73.2128 10.942C75.5741 10.942 77.3835 11.678 78.6408 13.15V6.986H63.0008V11.494C63.0008 14.4687 62.3261 16.8147 60.9768 18.532C59.6581 20.2187 57.8488 21.2 55.5488 21.476V23.178C55.5488 24.926 56.0701 26.352 57.1128 27.456C58.1555 28.5293 59.6275 29.066 61.5288 29.066ZM74.8228 24.374C76.0188 24.374 76.9541 23.9907 77.6288 23.224C78.3035 22.4573 78.6408 21.5067 78.6408 20.372C78.6408 19.2987 78.3188 18.3787 77.6748 17.612C77.0308 16.8147 76.0801 16.416 74.8228 16.416C73.6881 16.416 72.7375 16.7687 71.9708 17.474C71.2041 18.1793 70.8208 19.13 70.8208 20.326C70.8208 21.614 71.1888 22.6107 71.9248 23.316C72.6915 24.0213 73.6575 24.374 74.8228 24.374Z" fill="#28731C"/>
<path d="M99.569 21.2V25.8C99.569 26.8427 99.799 27.686 100.259 28.33C100.719 28.9433 101.424 29.25 102.375 29.25C103.234 29.25 103.908 28.9433 104.399 28.33C104.89 27.7167 105.135 26.9347 105.135 25.984V24.696H112.081V25.754C112.081 28.698 111.238 31.044 109.551 32.792C107.864 34.54 105.518 35.414 102.513 35.414C100.366 35.414 98.5263 34.9847 96.993 34.126C95.4903 33.2367 94.3557 32.0407 93.589 30.538C92.8223 29.0353 92.439 27.3333 92.439 25.432V15.404H97.085C99.4463 15.404 101.118 14.898 102.099 13.886C103.111 12.874 103.617 11.3867 103.617 9.424V6.986H88.759V0.96H114.749V6.986H110.839V9.424C110.839 13.0733 109.98 15.956 108.263 18.072C106.576 20.1573 103.755 21.2 99.799 21.2H99.569ZM117.705 35V6.986H113.197V0.96H129.435V6.986H124.927V35H117.705Z" fill="#8C2E39"/>
</svg>
