<svg width="109" height="93" viewBox="0 0 109 93" fill="none" xmlns="http://www.w3.org/2000/svg">
<path d="M64.4387 1.00014C64.4387 1.00014 46.3917 10.9019 46.253 10.8264C56.1584 27.5648 61.6691 37.4402 77.1265 36.0329C77.2301 28.8231 78.6955 26.783 79.664 24.0705L100.387 40.3052L108 34.7513L77.1265 4.41797C77.1265 4.41797 73.4946 0.974295 64.4387 1.00014Z" fill="#6E92AB" stroke="#6E92AB"/>
<path d="M1 33.8968C30.804 5.61626 30.1818 1.42739 36.9486 1.42738L42.0237 1.42735C42.0237 0.572895 61.0553 10.8264 61.0553 10.8264C58.5178 24.0705 77.5494 33.8968 77.5494 33.8968C75.7799 58.3209 80.7856 67.1383 87.2767 92H25.5296C31.1556 71.7201 34.834 40.7325 31.0277 23.6433L9.03557 40.7325L1 33.8968Z" fill="#87ABC5" stroke="#87ABC4"/>
<path d="M60.2095 11.04C59.327 9.9788 58.7702 8.78997 58.7292 7.38483C58.7221 7.13782 58.5489 5.90107 58.8232 5.74712C59.945 5.11757 60.5813 7.47073 60.6324 8.16809C60.7444 9.69564 60.898 10.9787 61.2198 12.4879C61.5082 13.8406 62.8741 14.7999 63.8044 15.7395" stroke="#435A6A" stroke-linecap="round" stroke-linejoin="round"/>
<path d="M77.4889 34.1104C78.3713 33.0492 78.9282 31.8604 78.9691 30.4552C78.9763 30.2082 79.1495 28.9715 78.8752 28.8175C77.7534 28.188 77.1171 30.5411 77.066 31.2385C76.954 32.766 76.8004 34.0491 76.4786 35.5583C76.1902 36.911 74.8243 37.8703 73.8941 38.8099" stroke="#435A6A" stroke-linecap="round" stroke-linejoin="round"/>
<path d="M60.6324 10.3992C61.8448 9.1361 62.7786 8.69025 64.5327 8.69025C65.675 8.69025 62.6057 10.3162 62.1126 10.3992C60.7871 10.6223 59.3754 12.0415 59.3754 13.4491C59.3754 15.7074 61.596 18.1378 62.1126 20.2254" stroke="#435A6A" stroke-linecap="round" stroke-linejoin="round"/>
<path d="M77.0622 33.4696C75.8498 32.2065 74.916 31.7607 73.1619 31.7607C72.0196 31.7607 75.0889 33.3866 75.5819 33.4696C76.9075 33.6927 78.3192 35.1119 78.3192 36.5195C78.3192 38.7778 76.0986 41.2082 75.582 43.2958" stroke="#435A6A" stroke-linecap="round" stroke-linejoin="round"/>
</svg>
