<svg width="339" height="335" viewBox="0 0 339 335" fill="none" xmlns="http://www.w3.org/2000/svg">
<path d="M249.877 23.8724C224.169 22.7675 206.876 24.6439 178.444 33.143C175.805 33.9319 174.769 37.1075 176.416 39.3191L219.505 97.1805C220.86 99 223.465 99.3328 225.189 97.8632C245.164 80.8348 252.214 64.3868 255.482 30.3138C255.804 26.9606 253.242 24.0171 249.877 23.8724Z" fill="#FCD7CF" stroke="#FCD7CF"/>
<path d="M234.321 36.1566C214.523 35.3873 200.784 36.9517 178.852 43.5583C176.236 44.3461 175.211 47.4865 176.827 49.693L210.475 95.6436C211.83 97.4946 214.468 97.8372 216.187 96.3227C231.615 82.7283 237.252 69.4053 239.917 42.5707C240.249 39.2204 237.685 36.2873 234.321 36.1566Z" fill="#360903" stroke="#FCD7CF"/>
<path d="M237.479 39.9639C237.479 39.9639 216.938 36.6958 202.721 39.9639C211.581 55.5094 218.49 59.1744 234.5 56.1281C236.573 49.64 237.414 46.0641 237.479 39.9639Z" fill="#4E0F06" stroke="#4E0F06"/>
<path d="M32.401 4.84999C57.3253 9.31976 73.5123 14.9991 98.9785 29.8579C101.294 31.2092 101.623 34.4233 99.6409 36.2283L45.2927 85.7231C43.5547 87.3059 40.8224 87.0503 39.4614 85.1319C24.1355 63.5292 21.0713 45.2734 25.5404 9.90516C25.9622 6.56769 29.0921 4.25659 32.401 4.84999Z" fill="#FCD7CF" stroke="#FCD7CF"/>
<path d="M44.6003 20.6887C63.7804 24.2184 76.6272 28.8112 96.2767 40.3402C98.57 41.6858 98.8911 44.8618 96.9403 46.6671L54.3071 86.1201C52.5631 87.734 49.7964 87.4815 48.4531 85.519C36.7242 68.3848 34.3186 53.6065 37.7563 25.7154C38.1676 22.3784 41.2958 20.0806 44.6003 20.6887Z" fill="#360903" stroke="#FCD7CF"/>
<path d="M40.644 23.8515C40.644 23.8515 61.0811 24.9983 73.9973 31.4041C62.0439 45.2556 54.6002 47.4738 39.9135 40.9033C39.3648 33.8683 39.3513 30.0563 40.644 23.8515Z" fill="#4E0F06" stroke="#4E0F06"/>
<path d="M160.56 263.151L163.134 284.165C226.679 305.367 271.438 290.804 313.131 243.808C363.512 149.151 268.394 107.861 238.91 183.379C225.221 229.734 207.563 246.597 160.56 263.151Z" fill="#C93906" stroke="#C93906"/>
<path d="M188.322 251.613C194.287 266.599 198.132 273.964 198.75 292.529C204.296 293.524 206.684 293.596 210.666 293.539C213.548 270.955 209.498 262.179 198.75 245.552L188.322 251.613Z" fill="#66130B" stroke="#66130B"/>
<path d="M212.653 233.934C223.408 246.635 238.382 269.199 242.445 290.508C251.383 288.488 262.41 283.942 262.307 283.437C255.058 247.981 243.926 234.582 222.087 222.316L212.653 233.934Z" fill="#66130B" stroke="#66130B"/>
<path d="M244.345 170.604C256.858 169.987 303.508 196.959 317.423 235.449C318.912 232.418 322.578 222.587 323.381 219.285C315.354 185.383 280.765 163.561 256.174 156.494L244.345 170.604Z" fill="#66130B" stroke="#66130B"/>
<path d="M231.521 204.131C248.308 210.733 279.021 247.358 285.644 269.798L297.409 259.905C293.597 237.485 259.491 195.359 236.983 189.482L231.521 204.131Z" fill="#66130B" stroke="#66130B"/>
<path d="M297.028 152.849C300.904 161.186 296.414 174.129 288.326 186.292C279.157 200.08 253.37 219.877 251.046 209.178C246.461 204.08 254.82 178.595 264.845 166.366C275.281 150.205 292.16 148.402 297.028 152.849Z" fill="#DB5017" fill-opacity="0.27"/>
<g filter="url(#filter0_f)">
<path d="M308.225 155.69C316.213 166.43 308.572 186.909 294.014 207.557C277.51 230.964 235.725 254.233 230.529 239.49C221.422 233.726 231.15 200.32 249.397 178.875C268.149 151.553 282.169 141.495 308.225 155.69Z" fill="#DB5017" fill-opacity="0.22"/>
</g>
<path d="M233.507 122.3C248.526 177.935 171.828 192.461 127.275 188.779C82.722 185.096 2.14985 139.919 39.3425 98.3955C68.8087 28.8664 96.6363 10.8949 141.189 14.5777C185.742 18.2606 216.053 57.6434 233.507 122.3Z" fill="#D03F10"/>
<path d="M17.9064 131.752C55.3243 144.082 82.1889 166.311 89.8403 180.623C103.868 206.861 87.5487 210.695 75.2852 207.88C60.1979 204.417 31.1071 183.514 6.4272 151.915C3.22851 147.819 4.7777 144.671 10.0147 145.227C8.1045 139.62 6.86021 138.302 15.4173 139.462C10.6668 134.313 13.2119 132.188 17.9064 131.752Z" fill="#43100B" stroke="#43100B"/>
<path d="M37.7259 153.843C57.6126 143.627 83.4137 171.945 89.5668 182.934C100.848 203.079 89.0856 205.305 80.0211 202.724C68.8692 199.548 41.3368 181.595 37.7259 153.843Z" fill="#6B140B" stroke="#6B140B"/>
<path d="M50.8407 159.265C65.5856 152.358 83.7647 174.193 88.0033 182.537C95.774 197.835 87.1404 199.093 80.5851 196.879C72.5203 194.156 52.8408 179.942 50.8407 159.265Z" fill="#78160D" stroke="#78160D"/>
<path d="M89.3239 329.679C70.8525 301.786 66.6726 274.398 70.9004 262.204C78.6514 239.85 92.961 246.945 99.8472 255.411C108.319 265.828 114.996 293.742 111.248 325.056C110.762 329.114 107.513 329.974 104.134 326.713C101.697 330.877 101.695 332.304 96.3441 326.839C96.2563 332.353 92.9877 332.087 89.3239 329.679Z" fill="#43100B" stroke="#43100B"/>
<path d="M89.764 299.359C68.6559 292.763 70.1735 254.069 73.4795 241.772C79.5406 219.227 89.3719 225.895 93.9611 234.148C99.607 244.302 106.516 276.7 89.764 299.359Z" fill="#6B140B" stroke="#6B140B"/>
<path d="M84.2975 286.196C69.1117 280.82 71.4894 252.193 74.3056 243.16C79.4685 226.601 86.4234 231.767 89.5011 237.988C93.2875 245.64 97.2649 269.799 84.2975 286.196Z" fill="#78160D" stroke="#78160D"/>
<path d="M159.71 331.693C178.169 303.666 182.336 276.139 178.102 263.88C170.34 241.407 156.033 248.531 149.151 257.038C140.683 267.504 134.019 295.559 137.783 327.035C138.271 331.115 141.521 331.98 144.899 328.705C147.337 332.891 147.34 334.326 152.688 328.835C152.779 334.377 156.048 334.111 159.71 331.693Z" fill="#43100B" stroke="#43100B"/>
<path d="M158.278 301.38C179.386 294.783 177.868 256.09 174.562 243.793C168.501 221.248 158.67 227.915 154.08 236.169C148.435 246.323 141.526 278.721 158.278 301.38Z" fill="#6B140B" stroke="#6B140B"/>
<path d="M163.745 288.216C178.931 282.841 176.553 254.214 173.737 245.181C168.574 228.621 161.619 233.788 158.541 240.008C154.755 247.66 150.778 271.82 163.745 288.216Z" fill="#78160D" stroke="#78160D"/>
<path d="M251.185 145.517C213.192 156.298 177.932 170.684 167.676 184.493C148.872 209.808 168.658 220.691 180.852 218.365C195.853 215.502 227.778 195.982 257.788 165.776C261.678 161.861 260.877 158.706 255.806 159.064C258.796 153.615 260.251 152.362 251.912 153.195C257.492 148.299 255.533 146.116 251.185 145.517Z" fill="#43100B" stroke="#43100B"/>
<path d="M227.778 166.541C211.123 155.767 180.744 182.704 172.606 193.296C157.686 212.714 168.342 215.331 177.46 213.118C188.678 210.396 218.507 193.723 227.778 166.541Z" fill="#6B140B" stroke="#6B140B"/>
<path d="M214.229 171.402C201.74 164.072 179.939 184.904 174.169 192.963C163.592 207.737 171.492 209.287 178.16 207.346C186.362 204.958 207.975 191.68 214.229 171.402Z" fill="#78160D" stroke="#78160D"/>
<path d="M234.25 122.3C253.47 176.581 172.571 192.461 128.018 188.779C83.4649 185.096 11.0577 137.959 34.3951 104.621C215.153 187.625 216.625 76.8384 216.625 76.8384C216.625 76.8384 222.087 87.9512 234.25 122.3Z" fill="#CB370F"/>
<path d="M185.278 230.628C217.618 330.414 30.9186 318.29 65.4607 224.175C73.665 189.798 106.393 166.751 106.393 151.598L147.109 158.669C160.019 168.772 174.197 189.986 185.278 230.628Z" fill="#CB370F" stroke="#CB370F"/>
<path d="M175.85 235.531C196.382 317.62 57.3792 314.367 75.43 236.393C81.72 209.222 92.0805 196.957 107.764 180.205L139.929 181.995C150.875 181.349 168.118 204.616 175.85 235.531Z" fill="#66130B" stroke="#CB370F"/>
<path d="M164.132 222.112C180.708 285.757 68.3858 283.261 82.9864 222.8C88.0741 201.732 96.4483 192.219 109.125 179.228L135.115 180.609C143.961 180.106 157.89 198.143 164.132 222.112Z" fill="#78160D" stroke="#78160D"/>
<path d="M234.25 122.3C253.47 176.581 172.57 192.462 128.017 188.779C83.4646 185.096 33.4017 151.092 29.9259 122.3C210.684 205.305 234.25 122.3 234.25 122.3Z" fill="#C7310E"/>
<path d="M167.613 128.673C177.194 142.835 177.702 154.588 169.585 187.298C179.638 185.489 189.872 184.944 201.232 178.875C205.878 148.084 192.852 130.389 170.513 124.104C167.884 123.365 166.075 126.399 167.613 128.673Z" fill="#FCD7CF" stroke="#FCD7CF"/>
<path d="M89.8764 118.213C76.8406 128.051 72.8577 138.614 70.642 170.287C61.6974 165.641 55.6966 161.492 46.8081 152.608C51.7076 123.608 66.3417 111.972 88.527 112.903C91.2934 113.019 92.0865 116.545 89.8764 118.213Z" fill="#FCD7CF" stroke="#FCD7CF"/>
<path d="M207.382 143.931C179.614 138.448 169.207 137.963 147.506 138.328L146.466 136.412C167.778 136.302 182.99 138.091 207.382 143.931Z" fill="#7B2D22"/>
<path d="M207.687 132.456C179.372 130.999 169.007 132.005 147.607 135.465L146.279 133.718C167.333 130.568 182.655 130.164 207.687 132.456Z" fill="#7B2D22"/>
<path d="M51.264 120.456C77.6613 124.314 87.0309 127.236 106.11 134.625L107.669 133.16C88.8495 126.138 74.7931 122.882 51.264 120.456Z" fill="#7B2D22"/>
<path d="M54.8214 109.564C80.3543 117.395 89.1886 121.711 106.966 131.921L108.723 130.709C91.1483 120.902 77.729 115.543 54.8214 109.564Z" fill="#7B2D22"/>
<path d="M154.158 143.212C156.159 162.227 146.608 172.362 123.173 167.266C110.085 165.838 84.6835 158.115 96.8154 132.893C104.314 117.304 117.274 109.216 134.291 113.612C144.679 119.317 152.481 127.281 154.158 143.212Z" fill="#FCD7CF"/>
<path d="M129.079 120.693C126.297 126.067 127.748 130.851 127.551 132.353" stroke="black"/>
<path d="M117.451 129.905C124.483 132.994 130.091 133.597 137.849 132.015C140.504 131.473 143.099 133.509 142.488 136.151C137.872 156.096 112.078 153.097 112.063 132.889C112.061 130.207 114.993 128.825 117.451 129.905Z" fill="#B20203" stroke="#B20203"/>
<path d="M114.143 140.921C124.206 137.516 129.648 138.431 139.112 143.511C132.899 152.906 119.392 152.418 114.143 140.921Z" fill="#ED0A0B" stroke="#ED0A0B"/>
<path d="M136.256 119.329C136.108 120.327 132.959 123.928 129.123 123.34C124.179 122.581 122.329 118.427 122.656 116.222C122.982 114.016 125.361 114.595 130.305 115.353C135.249 116.112 136.404 118.331 136.256 119.329Z" fill="#430D04"/>
<path d="M132.936 117.453C132.887 117.785 131.024 118.86 128.526 118.477C125.306 117.984 123.924 116.483 124.033 115.748C124.142 115.013 125.7 115.324 128.92 115.817C132.139 116.311 132.985 117.12 132.936 117.453Z" fill="#6C130A"/>
<path d="M136.82 108.722C141.031 107.16 142.596 107.928 144.291 111.456" stroke="#360903" stroke-width="2"/>
<path d="M115.951 107.762C119.225 104.681 120.964 104.777 123.893 107.367" stroke="#360903" stroke-width="2"/>
<path d="M110.516 93.2617C114.276 89.2563 118.228 87.7269 125.617 87.8863C127.384 87.9244 128.411 85.9014 127.079 84.7398C117.397 76.2946 109.206 84.0728 106.464 88.1351C105.51 89.5486 105.203 91.0189 105.232 92.3717C105.291 95.1467 108.616 95.2863 110.516 93.2617Z" fill="#EBBFB6" stroke="#EBBFB6"/>
<path d="M158.032 97.3063C154.868 92.7921 151.17 90.7035 143.832 89.7891C142.078 89.5705 141.346 87.4172 142.826 86.4606C153.584 79.5078 160.607 88.395 162.754 92.8138C163.502 94.353 163.6 95.8545 163.382 97.1905C162.936 99.9286 159.63 99.585 158.032 97.3063Z" fill="#EBBFB6" stroke="#EBBFB6"/>
<path d="M139.165 22.4498C137.045 32.906 126.872 40.7482 112.884 52.9471C97.0275 66.7759 69.6489 83.1725 69.6489 69.9385C69.6489 56.7046 76.8548 41.6196 93.386 29.8563C107.374 19.9028 134.078 15.9146 139.165 22.4498Z" fill="#DB5017"/>
<defs>
<filter id="filter0_f" x="223.063" y="145.272" width="92.3866" height="102.834" filterUnits="userSpaceOnUse" color-interpolation-filters="sRGB">
<feFlood flood-opacity="0" result="BackgroundImageFix"/>
<feBlend mode="normal" in="SourceGraphic" in2="BackgroundImageFix" result="shape"/>
<feGaussianBlur stdDeviation="2" result="effect1_foregroundBlur"/>
</filter>
</defs>
</svg>
