<svg width="339" height="334" viewBox="0 0 339 334" fill="none" xmlns="http://www.w3.org/2000/svg">
<path d="M248.522 24.5736C222.63 23.4772 205.219 25.3293 176.606 33.7331C173.94 34.5162 172.895 37.728 174.573 39.943L217.935 97.18C219.288 98.9659 221.855 99.2921 223.573 97.854C243.713 80.9943 250.826 64.7246 254.122 31.0141C254.45 27.6594 251.89 24.7162 248.522 24.5736Z" fill="#FCD7CF" stroke="#FCD7CF"/>
<path d="M232.858 36.7329C212.918 35.9686 199.086 37.5119 177.017 44.0424C174.374 44.8244 173.34 48.001 174.986 50.2114L208.842 95.6592C210.195 97.4764 212.797 97.8121 214.51 96.3296C230.07 82.8697 235.76 69.6932 238.448 43.1478C238.788 39.7961 236.224 36.8619 232.858 36.7329Z" fill="#360903" stroke="#FCD7CF"/>
<path d="M236 40.5C236 40.5 215.315 37.265 201 40.5C209.921 55.8875 216.878 59.5153 233 56.5C235.088 50.0778 235.935 46.5382 236 40.5Z" fill="#4E0F06" stroke="#4E0F06"/>
<path d="M29.4612 5.72871C54.5636 10.1544 70.8621 15.7728 96.4932 30.4723C98.8338 31.8146 99.1535 35.0561 97.1352 36.8631L42.4446 85.8246C40.7066 87.3805 38.0056 87.1356 36.6462 85.2538C21.1903 63.859 18.0896 45.7953 22.5786 10.7984C23.0065 7.46202 26.1478 5.14454 29.4612 5.72871Z" fill="#FCD7CF" stroke="#FCD7CF"/>
<path d="M41.7443 21.4147C61.0622 24.9068 73.9972 29.4477 93.7708 40.848C96.0888 42.1845 96.402 45.388 94.4148 47.1957L51.5133 86.2219C49.7686 87.809 47.0331 87.5671 45.6907 85.6419C33.859 68.6729 31.4236 54.0519 34.8776 26.456C35.2951 23.1201 38.4353 20.8166 41.7443 21.4147Z" fill="#360903" stroke="#FCD7CF"/>
<path d="M37.7927 24.5513C37.7927 24.5513 58.3722 25.6864 71.3784 32.0272C59.3417 45.738 51.8461 47.9337 37.0571 41.4299C36.5045 34.4663 36.491 30.6931 37.7927 24.5513Z" fill="#4E0F06" stroke="#4E0F06"/>
<path d="M158.545 261.421L161.137 282.221C225.125 303.208 270.195 288.793 312.179 242.274C362.91 148.579 267.13 107.708 237.441 182.459C223.656 228.343 205.876 245.035 158.545 261.421Z" fill="#C93906" stroke="#C93906"/>
<path d="M186.5 250C192.506 264.833 196.378 272.124 197 290.5C202.585 291.485 204.99 291.556 209 291.5C211.902 269.145 207.823 260.459 197 244L186.5 250Z" fill="#66130B" stroke="#66130B"/>
<path d="M211 232.5C221.831 245.072 236.909 267.407 241 288.5C250 286.5 261.104 282 261 281.5C253.701 246.404 242.491 233.142 220.5 221L211 232.5Z" fill="#66130B" stroke="#66130B"/>
<path d="M242.913 169.813C255.514 169.203 302.488 195.9 316.5 234C318 231 321.691 221.268 322.5 218C314.417 184.442 279.587 162.842 254.824 155.847L242.913 169.813Z" fill="#66130B" stroke="#66130B"/>
<path d="M230 203C246.904 209.535 277.831 245.788 284.5 268L296.348 258.208C292.508 236.016 258.165 194.317 235.5 188.5L230 203Z" fill="#66130B" stroke="#66130B"/>
<path d="M295.963 152.239C299.867 160.491 295.346 173.302 287.201 185.342C277.968 198.99 252.002 218.586 249.661 207.995C245.045 202.949 253.462 177.723 263.556 165.619C274.065 149.622 291.061 147.837 295.963 152.239Z" fill="#DB5017" fill-opacity="0.27"/>
<g filter="url(#filter0_f)">
<path d="M307.237 155.051C315.281 165.681 307.587 185.953 292.927 206.391C276.309 229.56 234.233 252.594 229 238C219.83 232.294 229.625 199.228 248 178C266.882 150.956 281 141 307.237 155.051Z" fill="#DB5017" fill-opacity="0.22"/>
</g>
<path d="M232 122C247.123 177.07 169.891 191.449 125.028 187.803C80.1643 184.158 -0.969329 139.44 36.4825 98.3382C66.154 29.5152 94.1755 11.7262 139.039 15.3717C183.902 19.0172 214.424 58 232 122Z" fill="#D03F10"/>
<path d="M15.4553 238.327C32.9762 203.208 58.8363 179.851 74.1251 174.305C102.154 164.138 103.658 180.732 99.1329 192.411C93.5656 206.781 68.7078 232.514 33.8534 252.422C29.336 255.002 26.4285 253.04 27.7198 247.963C21.8837 249.065 20.3995 250.107 22.7589 241.846C16.9768 245.807 15.2259 243.008 15.4553 238.327Z" fill="#43100B" stroke="#43100B"/>
<path d="M40.1836 221.883C32.8469 200.893 64.6029 179.427 76.3804 174.895C97.9725 166.586 98.5231 178.471 94.6812 187.035C89.9547 197.571 68.246 222.179 40.1836 221.883Z" fill="#6B140B" stroke="#6B140B"/>
<path d="M47.4169 209.728C42.6407 194.257 66.8841 179.393 75.7664 176.379C92.0506 170.852 92.0813 179.524 88.9587 185.669C85.117 193.229 68.2282 210.627 47.4169 209.728Z" fill="#78160D" stroke="#78160D"/>
<path d="M86.8118 327.273C68.2117 299.663 64.0026 272.553 68.2599 260.483C76.0649 238.356 90.4742 245.379 97.4084 253.759C105.939 264.07 112.663 291.701 108.888 322.697C108.399 326.714 105.127 327.564 101.725 324.337C99.2713 328.459 99.269 329.872 93.8809 324.462C93.7925 329.919 90.501 329.656 86.8118 327.273Z" fill="#43100B" stroke="#43100B"/>
<path d="M87.2548 297.261C65.9996 290.731 67.5278 252.431 70.8569 240.259C76.9602 217.943 86.8599 224.543 91.4811 232.712C97.1663 242.763 104.123 274.832 87.2548 297.261Z" fill="#6B140B" stroke="#6B140B"/>
<path d="M81.7501 284.231C66.4585 278.91 68.8529 250.574 71.6886 241.633C76.8875 225.241 83.8909 230.356 86.99 236.513C90.8028 244.087 94.8079 268.001 81.7501 284.231Z" fill="#78160D" stroke="#78160D"/>
<path d="M157.689 329.266C176.277 301.524 180.473 274.276 176.209 262.142C168.393 239.897 153.987 246.949 147.056 255.37C138.53 265.729 131.819 293.499 135.61 324.656C136.101 328.694 139.373 329.551 142.774 326.309C145.23 330.452 145.233 331.872 150.618 326.437C150.71 331.923 154.001 331.66 157.689 329.266Z" fill="#43100B" stroke="#43100B"/>
<path d="M156.247 299.261C177.502 292.731 175.974 254.431 172.645 242.259C166.542 219.943 156.642 226.543 152.021 234.712C146.335 244.763 139.379 276.832 156.247 299.261Z" fill="#6B140B" stroke="#6B140B"/>
<path d="M161.752 286.231C177.043 280.91 174.649 252.574 171.813 243.633C166.614 227.241 159.611 232.356 156.512 238.513C152.699 246.087 148.694 270.001 161.752 286.231Z" fill="#78160D" stroke="#78160D"/>
<path d="M245.091 152.42C206.833 163.092 171.328 177.332 161 191C142.065 216.059 161.989 226.831 174.268 224.528C189.373 221.695 221.521 202.373 251.741 172.473C255.657 168.598 254.851 165.475 249.745 165.83C252.755 160.436 254.22 159.196 245.824 160.02C251.442 155.174 249.469 153.013 245.091 152.42Z" fill="#43100B" stroke="#43100B"/>
<path d="M221.521 173.23C204.75 162.566 174.16 189.23 165.965 199.714C150.941 218.935 161.671 221.525 170.853 219.335C182.149 216.64 212.186 200.137 221.521 173.23Z" fill="#6B140B" stroke="#6B140B"/>
<path d="M207.878 178.043C195.302 170.787 173.349 191.407 167.539 199.384C156.888 214.008 164.844 215.543 171.557 213.621C179.817 211.257 201.581 198.115 207.878 178.043Z" fill="#78160D" stroke="#78160D"/>
<path d="M232.747 122C252.102 175.729 170.638 191.449 125.775 187.803C80.9117 184.158 8 137.5 31.5 104.5C213.517 186.662 215 77 215 77C215 77 220.5 88 232.747 122Z" fill="#CB370F"/>
<path d="M183.435 229.227C216 328 28 316 62.7828 222.84C71.0442 188.813 104 166 104 151L145 158C158 168 172.276 188.998 183.435 229.227Z" fill="#CB370F" stroke="#CB370F"/>
<path d="M173.94 234.078C194.612 315.333 54.6409 312.117 72.8198 234.935C79.1544 208.04 89.5874 195.898 105.381 179.316L137.769 181.087C148.792 180.447 166.155 203.477 173.94 234.078Z" fill="#66130B" stroke="#CB370F"/>
<path d="M162.142 220.798C178.833 283.797 65.7279 281.326 80.4303 221.479C85.5535 200.625 93.986 191.209 106.751 178.349L132.923 179.717C141.83 179.219 155.856 197.073 162.142 220.798Z" fill="#78160D" stroke="#78160D"/>
<path d="M232.747 122C252.102 175.729 170.638 191.449 125.775 187.804C80.9117 184.158 30.5 150.5 27 122C209.017 204.162 232.747 122 232.747 122Z" fill="#C7310E"/>
<path d="M165.699 128.383C175.296 142.368 175.791 154.018 167.632 186.338C177.756 184.547 188.061 184.008 199.5 178C204.174 147.548 191.083 130.037 168.624 123.802C165.979 123.068 164.146 126.121 165.699 128.383Z" fill="#FCD7CF" stroke="#FCD7CF"/>
<path d="M87.2758 118.023C74.2229 127.742 70.2259 138.222 68 169.5C58.9931 164.901 52.9504 160.794 44 152C48.9283 123.326 63.6377 111.802 85.9367 112.695C88.7186 112.807 89.509 116.36 87.2758 118.023Z" fill="#FCD7CF" stroke="#FCD7CF"/>
<path d="M205.693 143.411C177.731 137.984 167.252 137.504 145.4 137.866L144.353 135.969C165.812 135.86 181.131 137.63 205.693 143.411Z" fill="#7B2D22"/>
<path d="M205.999 132.053C177.489 130.622 167.051 131.622 145.502 135.055L144.165 133.326C165.366 130.199 180.794 129.794 205.999 132.053Z" fill="#7B2D22"/>
<path d="M48.486 120.175C75.0672 123.993 84.5021 126.886 103.714 134.2L105.284 132.75C86.3335 125.799 72.1791 122.576 48.486 120.175Z" fill="#7B2D22"/>
<path d="M52.0689 109.393C77.7797 117.145 86.6756 121.417 104.577 131.523L106.346 130.324C88.6489 120.616 75.1361 115.312 52.0689 109.393Z" fill="#7B2D22"/>
<path d="M152.092 142.682C154.102 161.502 144.481 171.536 120.883 166.499C107.703 165.089 82.1253 157.451 94.3492 132.485C101.905 117.052 114.959 109.043 132.093 113.39C142.553 119.034 150.408 126.914 152.092 142.682Z" fill="#FCD7CF"/>
<path d="M126.844 120.409C124.042 125.729 125.503 130.464 125.305 131.95" stroke="black"/>
<path d="M115.073 129.5C122.203 132.589 127.872 133.189 135.739 131.602C138.387 131.068 140.964 133.095 140.343 135.724C135.686 155.446 109.735 152.479 109.71 132.492C109.706 129.823 112.624 128.439 115.073 129.5Z" fill="#B20203" stroke="#B20203"/>
<path d="M111.805 140.432C121.937 137.061 127.418 137.967 136.948 142.995C130.691 152.295 117.091 151.812 111.805 140.432Z" fill="#ED0A0B" stroke="#ED0A0B"/>
<path d="M134.07 119.057C133.921 120.046 130.75 123.61 126.887 123.028C121.908 122.278 120.047 118.166 120.376 115.983C120.704 113.8 123.1 114.372 128.078 115.123C133.057 115.873 134.219 118.069 134.07 119.057Z" fill="#430D04"/>
<path d="M130.728 117.202C130.678 117.531 128.803 118.595 126.287 118.216C123.045 117.728 121.654 116.242 121.763 115.515C121.873 114.787 123.442 115.094 126.684 115.583C129.926 116.071 130.778 116.873 130.728 117.202Z" fill="#6C130A"/>
<ellipse cx="135.092" cy="108.073" rx="2.5" ry="3.87479" transform="rotate(10.3505 135.092 108.073)" fill="#360903"/>
<ellipse cx="135" cy="107.078" rx="1.59417" ry="2.40314" transform="rotate(10.3505 135 107.078)" fill="#4A1008"/>
<ellipse cx="122.092" cy="106.073" rx="2.5" ry="3.87479" transform="rotate(1.55707 122.092 106.073)" fill="#360903"/>
<ellipse cx="122" cy="105.078" rx="1.59417" ry="2.40314" transform="rotate(10.3505 122 105.078)" fill="#4A1008"/>
<path d="M108.091 93.3239C111.895 89.315 115.876 87.7834 123.348 87.9377C125.121 87.9744 126.137 85.9395 124.788 84.7884C115.06 76.488 106.828 84.1754 104.069 88.1922C103.096 89.6083 102.791 91.0816 102.828 92.4336C102.902 95.1811 106.2 95.3179 108.091 93.3239Z" fill="#EBBFB6" stroke="#EBBFB6"/>
<path d="M156.043 97.3209C152.848 92.8118 149.125 90.7297 141.708 89.8201C139.947 89.6043 139.231 87.4456 140.73 86.498C151.539 79.6651 158.595 88.445 160.754 92.8133C161.516 94.3532 161.608 95.8549 161.38 97.188C160.915 99.8971 157.632 99.5636 156.043 97.3209Z" fill="#EBBFB6" stroke="#EBBFB6"/>
<path d="M137 23.1638C134.866 33.5138 124.622 41.2764 110.537 53.3514C94.5693 67.0397 67 83.2698 67 70.1702C67 57.0707 74.2561 42.1389 90.9024 30.4951C104.988 20.6427 131.878 16.695 137 23.1638Z" fill="#DB5017"/>
<defs>
<filter id="filter0_f" x="201.373" y="136.966" width="130.81" height="113.471" filterUnits="userSpaceOnUse" color-interpolation-filters="sRGB">
<feFlood flood-opacity="0" result="BackgroundImageFix"/>
<feBlend mode="normal" in="SourceGraphic" in2="BackgroundImageFix" result="shape"/>
<feGaussianBlur stdDeviation="2" result="effect1_foregroundBlur"/>
</filter>
</defs>
</svg>
