<svg width="333" height="332" viewBox="0 0 333 332" fill="none" xmlns="http://www.w3.org/2000/svg">
<path d="M242.491 23.6315C216.599 22.5351 199.188 24.3872 170.575 32.7911C167.909 33.5741 166.864 36.7859 168.542 39.0009L211.903 96.238C213.256 98.0238 215.824 98.3501 217.542 96.9119C237.682 80.0523 244.794 63.7826 248.091 30.072C248.419 26.7173 245.858 23.7741 242.491 23.6315Z" fill="#FCD7CF" stroke="#FCD7CF"/>
<path d="M226.827 35.7908C206.887 35.0266 193.055 36.5698 170.986 43.1003C168.343 43.8824 167.309 47.0589 168.955 49.2693L202.811 94.7172C204.164 96.5344 206.765 96.8701 208.479 95.3876C224.039 81.9277 229.729 68.7511 232.417 42.2058C232.757 38.8541 230.193 35.9198 226.827 35.7908Z" fill="#360903" stroke="#FCD7CF"/>
<path d="M229.969 39.5579C229.969 39.5579 209.284 36.323 194.969 39.5579C203.89 54.9455 210.847 58.5733 226.969 55.5579C229.056 49.1357 229.904 45.5961 229.969 39.5579Z" fill="#4E0F06" stroke="#4E0F06"/>
<path d="M23.43 4.78667C48.5324 9.21233 64.8309 14.8307 90.462 29.5302C92.8025 30.8726 93.1223 34.1141 91.104 35.921L36.4134 84.8825C34.6754 86.4385 31.9744 86.1935 30.615 84.3118C15.1591 62.9169 12.0584 44.8532 16.5474 9.85638C16.9753 6.51997 20.1166 4.2025 23.43 4.78667Z" fill="#FCD7CF" stroke="#FCD7CF"/>
<path d="M35.7131 20.4727C55.031 23.9647 67.966 28.5056 87.7396 39.906C90.0576 41.2424 90.3708 44.446 88.3836 46.2537L45.4821 85.2799C43.7374 86.8669 41.0019 86.6251 39.6595 84.6998C27.8278 67.7308 25.3924 53.1099 28.8464 25.514C29.2639 22.1781 32.4041 19.8745 35.7131 20.4727Z" fill="#360903" stroke="#FCD7CF"/>
<path d="M31.7615 23.6092C31.7615 23.6092 52.341 24.7444 65.3472 31.0852C53.3104 44.7959 45.8149 46.9916 31.0259 40.4879C30.4733 33.5243 30.4598 29.7511 31.7615 23.6092Z" fill="#4E0F06" stroke="#4E0F06"/>
<path d="M152.514 260.479L155.106 281.279C219.094 302.266 264.164 287.85 306.148 241.332C356.879 147.637 261.099 106.766 231.409 181.517C217.625 227.401 199.844 244.093 152.514 260.479Z" fill="#C93906" stroke="#C93906"/>
<path d="M180.469 249.058C186.475 263.891 190.347 271.182 190.969 289.558C196.554 290.543 198.958 290.614 202.969 290.558C205.871 268.203 201.792 259.517 190.969 243.058L180.469 249.058Z" fill="#66130B" stroke="#66130B"/>
<path d="M204.969 231.558C215.799 244.13 230.877 266.465 234.969 287.558C243.969 285.558 255.073 281.058 254.969 280.558C247.67 245.462 236.46 232.199 214.469 220.058L204.969 231.558Z" fill="#66130B" stroke="#66130B"/>
<path d="M236.882 168.871C249.482 168.261 296.457 194.958 310.469 233.058C311.969 230.058 315.66 220.326 316.469 217.058C308.386 183.5 273.555 161.9 248.793 154.905L236.882 168.871Z" fill="#66130B" stroke="#66130B"/>
<path d="M223.969 202.058C240.873 208.593 271.8 244.846 278.469 267.058L290.316 257.266C286.477 235.074 252.134 193.374 229.469 187.558L223.969 202.058Z" fill="#66130B" stroke="#66130B"/>
<path d="M289.932 151.297C293.836 159.549 289.314 172.36 281.17 184.4C271.937 198.048 245.97 217.644 243.63 207.053C239.013 202.007 247.43 176.781 257.525 164.677C268.034 148.68 285.03 146.895 289.932 151.297Z" fill="#DB5017" fill-opacity="0.27"/>
<g filter="url(#filter0_f)">
<path d="M301.206 154.109C309.25 164.739 301.556 185.011 286.896 205.449C270.277 228.618 228.202 251.651 222.969 237.058C213.799 231.352 223.594 198.286 241.969 177.058C260.851 150.013 274.969 140.058 301.206 154.109Z" fill="#DB5017" fill-opacity="0.22"/>
</g>
<path d="M225.969 121.058C241.092 176.128 163.86 190.507 118.996 186.861C74.1331 183.216 -7.00053 138.498 30.4513 97.3962C60.1228 28.5732 88.1443 10.7842 133.008 14.4297C177.871 18.0751 208.393 57.058 225.969 121.058Z" fill="#D03F10"/>
<path d="M80.7806 326.331C62.1805 298.721 57.9714 271.611 62.2287 259.541C70.0336 237.414 84.443 244.437 91.3772 252.817C99.9081 263.128 106.632 290.759 102.857 321.755C102.368 325.772 99.096 326.622 95.6934 323.395C93.2401 327.517 93.2378 328.929 87.8497 323.52C87.7613 328.977 84.4698 328.714 80.7806 326.331Z" fill="#43100B" stroke="#43100B"/>
<path d="M81.2236 296.319C59.9684 289.789 61.4965 251.489 64.8256 239.317C70.9289 217.001 80.8287 223.601 85.4499 231.77C91.1351 241.821 98.0919 273.89 81.2236 296.319Z" fill="#6B140B" stroke="#6B140B"/>
<path d="M75.7189 283.289C60.4273 277.968 62.8216 249.632 65.6574 240.691C70.8563 224.299 77.8596 229.414 80.9588 235.571C84.7716 243.145 88.7767 267.059 75.7189 283.289Z" fill="#78160D" stroke="#78160D"/>
<path d="M151.658 328.324C170.246 300.582 174.442 273.334 170.178 261.2C162.362 238.955 147.955 246.007 141.025 254.428C132.499 264.787 125.788 292.557 129.578 323.714C130.07 327.752 133.342 328.609 136.743 325.367C139.199 329.51 139.202 330.93 144.587 325.495C144.678 330.981 147.97 330.718 151.658 328.324Z" fill="#43100B" stroke="#43100B"/>
<path d="M150.216 298.319C171.471 291.789 169.943 253.489 166.614 241.317C160.51 219.001 150.611 225.601 145.989 233.77C140.304 243.821 133.347 275.89 150.216 298.319Z" fill="#6B140B" stroke="#6B140B"/>
<path d="M155.72 285.289C171.012 279.968 168.618 251.632 165.782 242.691C160.583 226.299 153.58 231.414 150.48 237.571C146.668 245.145 142.663 269.059 155.72 285.289Z" fill="#78160D" stroke="#78160D"/>
<path d="M239.06 151.478C200.802 162.149 165.297 176.389 154.969 190.058C136.034 215.117 155.958 225.889 168.236 223.586C183.342 220.752 215.49 201.431 245.709 171.531C249.626 167.656 248.819 164.533 243.713 164.887C246.724 159.494 248.189 158.254 239.792 159.078C245.411 154.232 243.438 152.071 239.06 151.478Z" fill="#43100B" stroke="#5F120A"/>
<path d="M215.49 172.288C198.719 161.624 168.129 188.288 159.934 198.772C144.91 217.993 155.64 220.583 164.821 218.393C176.118 215.698 206.155 199.195 215.49 172.288Z" fill="#6B140B" stroke="#6B140B"/>
<path d="M201.847 177.101C189.271 169.845 167.317 190.465 161.508 198.442C150.857 213.066 158.812 214.601 165.526 212.679C173.786 210.315 195.549 197.173 201.847 177.101Z" fill="#78160D" stroke="#78160D"/>
<path d="M226.716 121.058C246.071 174.787 164.607 190.507 119.744 186.861C74.8805 183.216 1.96879 136.558 25.4688 103.558C207.486 185.72 208.969 76.058 208.969 76.058C208.969 76.058 214.469 87.058 226.716 121.058Z" fill="#CB370F"/>
<path d="M177.404 228.285C209.969 327.058 21.9688 315.058 56.7515 221.898C65.013 187.871 97.9688 165.058 97.9688 150.058L138.969 157.058C151.969 167.058 166.245 188.056 177.404 228.285Z" fill="#CB370F" stroke="#CB370F"/>
<path d="M167.909 233.136C188.581 314.391 48.6097 311.175 66.7886 233.993C73.1232 207.097 83.5562 194.956 99.3498 178.374L131.738 180.144C142.761 179.505 160.124 202.535 167.909 233.136Z" fill="#66130B" stroke="#CB370F"/>
<path d="M156.11 219.856C172.801 282.855 59.6967 280.384 74.3991 220.537C79.5223 199.683 87.9548 190.267 100.72 177.407L126.891 178.775C135.798 178.277 149.825 196.131 156.11 219.856Z" fill="#78160D" stroke="#78160D"/>
<path d="M226.716 121.058C246.071 174.787 164.607 190.507 119.744 186.861C74.8805 183.216 24.4688 149.558 20.9688 121.058C202.986 203.22 226.716 121.058 226.716 121.058Z" fill="#C7310E"/>
<path d="M159.667 127.441C169.265 141.426 169.76 153.076 161.601 185.396C171.724 183.605 182.03 183.066 193.469 177.058C198.143 146.606 185.052 129.094 162.592 122.86C159.948 122.126 158.115 125.179 159.667 127.441Z" fill="#FCD7CF" stroke="#FCD7CF"/>
<path d="M81.2446 117.081C68.1917 126.8 64.1947 137.28 61.9688 168.558C52.9619 163.959 46.9192 159.852 37.9688 151.058C42.8971 122.384 57.6065 110.86 79.9055 111.753C82.6874 111.865 83.4778 115.418 81.2446 117.081Z" fill="#FCD7CF" stroke="#FCD7CF"/>
<path d="M199.661 142.469C171.7 137.042 161.221 136.562 139.368 136.924L138.322 135.027C159.781 134.918 175.1 136.688 199.661 142.469Z" fill="#7B2D22"/>
<path d="M199.968 131.111C171.458 129.68 161.02 130.68 139.471 134.113L138.134 132.384C159.335 129.257 174.763 128.852 199.968 131.111Z" fill="#7B2D22"/>
<path d="M42.4548 119.233C69.036 123.051 78.4709 125.944 97.683 133.258L99.2527 131.808C80.3023 124.857 66.1479 121.634 42.4548 119.233Z" fill="#7B2D22"/>
<path d="M46.0377 108.451C71.7485 116.203 80.6444 120.475 98.5459 130.581L100.315 129.382C82.6177 119.674 69.1049 114.37 46.0377 108.451Z" fill="#7B2D22"/>
<path d="M146.061 141.74C148.071 160.56 138.45 170.594 114.852 165.557C101.672 164.147 76.0941 156.509 88.318 131.542C95.8738 116.11 108.927 108.101 126.062 112.448C136.521 118.092 144.377 125.972 146.061 141.74Z" fill="#FCD7CF"/>
<path d="M120.812 119.467C118.011 124.787 119.472 129.522 119.274 131.008" stroke="black"/>
<path d="M109.042 128.558C116.172 131.647 121.841 132.247 129.708 130.66C132.356 130.126 134.932 132.153 134.312 134.782C129.655 154.504 103.703 151.537 103.678 131.55C103.675 128.881 106.593 127.497 109.042 128.558Z" fill="#B20203" stroke="#B20203"/>
<path d="M105.774 139.49C115.906 136.119 121.387 137.025 130.916 142.053C124.66 151.353 111.059 150.87 105.774 139.49Z" fill="#ED0A0B" stroke="#ED0A0B"/>
<path d="M128.039 118.115C127.89 119.104 124.719 122.668 120.856 122.086C115.877 121.336 114.015 117.224 114.344 115.041C114.673 112.858 117.068 113.43 122.047 114.181C127.026 114.931 128.188 117.127 128.039 118.115Z" fill="#430D04"/>
<path d="M124.697 116.26C124.647 116.589 122.772 117.653 120.256 117.274C117.014 116.786 115.622 115.3 115.732 114.573C115.842 113.845 117.411 114.152 120.653 114.641C123.895 115.129 124.746 115.931 124.697 116.26Z" fill="#6C130A"/>
<ellipse cx="129.061" cy="107.131" rx="2.5" ry="3.87479" transform="rotate(10.3505 129.061 107.131)" fill="#360903"/>
<ellipse cx="128.969" cy="106.136" rx="1.59417" ry="2.40314" transform="rotate(10.3505 128.969 106.136)" fill="#4A1008"/>
<ellipse cx="116.061" cy="105.131" rx="2.5" ry="3.87479" transform="rotate(1.55707 116.061 105.131)" fill="#360903"/>
<ellipse cx="115.969" cy="104.136" rx="1.59417" ry="2.40314" transform="rotate(10.3505 115.969 104.136)" fill="#4A1008"/>
<path d="M102.06 92.3819C105.863 88.3729 109.845 86.8413 117.317 86.9957C119.09 87.0323 120.106 84.9975 118.757 83.8464C109.029 75.5459 100.796 83.2333 98.0377 87.2502C97.0652 88.6662 96.7599 90.1395 96.7965 91.4915C96.8709 94.2391 100.168 94.3759 102.06 92.3819Z" fill="#EBBFB6" stroke="#EBBFB6"/>
<path d="M150.012 96.3789C146.817 91.8698 143.094 89.7877 135.676 88.8781C133.916 88.6622 133.2 86.5036 134.699 85.556C145.508 78.723 152.564 87.5029 154.723 91.8712C155.484 93.4112 155.577 94.9129 155.349 96.2459C154.884 98.955 151.601 98.6216 150.012 96.3789Z" fill="#EBBFB6" stroke="#EBBFB6"/>
<path d="M130.969 22.2217C128.835 32.5717 118.591 40.3343 104.505 52.4094C88.5381 66.0977 60.9688 82.3277 60.9688 69.2282C60.9688 56.1286 68.2249 41.1969 84.8712 29.5531C98.9566 19.7006 125.847 15.753 130.969 22.2217Z" fill="#DB5017"/>
<path d="M153.196 251.179C115.251 241.156 87.1275 220.579 78.5922 206.735C62.9439 181.355 78.8864 176.513 91.2418 178.571C106.442 181.104 136.688 200.217 163.26 230.301C166.704 234.2 165.374 237.446 160.14 237.213C162.405 242.703 163.727 243.945 155.158 243.313C160.212 248.17 157.826 250.453 153.196 251.179Z" fill="#43100B" stroke="#43100B"/>
<path d="M132.073 229.306C113.01 240.753 85.5412 214.019 78.7114 203.407C66.1902 183.953 77.7161 181 86.8816 183.022C98.1576 185.51 126.662 201.768 132.073 229.306Z" fill="#6B140B" stroke="#6B140B"/>
<path d="M118.701 224.692C104.524 232.511 85.0452 211.792 80.2896 203.707C71.5708 188.885 80.0558 187.093 86.707 188.903C94.8897 191.129 115.355 204.132 118.701 224.692Z" fill="#78160D" stroke="#78160D"/>
<defs>
<filter id="filter0_f" x="215.48" y="143.756" width="92.9746" height="101.871" filterUnits="userSpaceOnUse" color-interpolation-filters="sRGB">
<feFlood flood-opacity="0" result="BackgroundImageFix"/>
<feBlend mode="normal" in="SourceGraphic" in2="BackgroundImageFix" result="shape"/>
<feGaussianBlur stdDeviation="2" result="effect1_foregroundBlur"/>
</filter>
</defs>
</svg>
