<svg width="98" height="92" viewBox="0 0 98 92" fill="none" xmlns="http://www.w3.org/2000/svg">
<path d="M40.3047 13.6731C36.7505 3.81673 31.9456 -2.73308 28.2322 4.24515" stroke="#5A5757" stroke-width="2"/>
<path d="M56.4604 13.5811C60.199 2.48902 62.8789 -0.697315 69.4054 2.69435" stroke="#5A5757" stroke-width="2"/>
<path d="M71.3019 58.6502C117.389 48.2279 92.783 13.6115 65.0528 43.3891V71.6779C75.9886 83.2167 98.3827 74.9282 71.3019 58.6502Z" fill="#90AABC" stroke="#90AABC"/>
<path d="M26.6981 60.0488C-19.3886 49.6266 5.21702 15.0101 32.9472 44.7877V73.0765C22.0114 84.6153 -0.382744 76.3268 26.6981 60.0488Z" fill="#90AABC" stroke="#90AABC"/>
<path d="M68.1773 56.4169C68.1773 70.6013 57.2772 85.8223 48.649 85.8223C40.0209 85.8223 30.2924 70.6013 30.2924 56.4169C30.2924 42.2324 38.4943 37.4336 48.649 34.4558C59.5849 37.4336 68.1773 42.2324 68.1773 56.4169Z" fill="#393535"/>
<path d="M67.0056 49.3446C54.8981 52.3224 43.1811 52.3224 31.4641 49.3446C30.3778 52.4966 30.5757 54.2935 30.683 57.5335C42.0094 60.8835 56.0698 61.2557 67.7868 57.9057C68.0569 55.2664 68.1773 53.4391 67.0056 49.3446Z" fill="#E4C062" stroke="#E4C062"/>
<path d="M66.2245 66.0946C55.2887 69.0723 43.9622 69.4446 31.8547 66.0946C32.2758 68.426 33.417 71.3057 35.7604 75.4001C43.5717 78.0056 54.117 78.0056 61.9283 75.4001C63.8811 72.0501 65.5386 68.9675 66.2245 66.0946Z" fill="#E4C062" stroke="#E4C062"/>
<path d="M71.6924 29.2447C71.6924 38.2899 62.6289 41.9002 49.0396 41.9002C35.4503 41.9002 25.9962 38.2899 25.9962 29.2447C25.9962 20.1996 35.4503 9.14484 49.0396 9.14484C62.6289 9.14484 71.6924 20.1996 71.6924 29.2447Z" fill="#E4C062"/>
<ellipse cx="43.9622" cy="26.267" rx="1.56226" ry="1.48888" fill="#393535"/>
<ellipse cx="52.5547" cy="26.267" rx="1.56226" ry="1.48888" fill="#393535"/>
<path d="M48.649 32.9669C51.7977 33.3023 53.1348 32.7598 54.8981 30.7336" stroke="#9E8C6B"/>
<path d="M50.3569 82.62L45.8932 81.2585C47.5436 86.2933 46.45 87.8665 43.0359 89.7666C46.6537 90.3787 48.3143 89.0715 50.3569 82.62Z" fill="#393535" stroke="#393535"/>
</svg>
