<svg width="57" height="88" viewBox="0 0 57 88" fill="none" xmlns="http://www.w3.org/2000/svg">
<path d="M21.0712 1H28.4019V77.7933H21.0712C-3.93954 82.2067 -2.21467 61.905 8.1346 55.2849C18.0527 52.6369 17.4926 30.7556 21.0712 1Z" fill="#D0B799" stroke="#D0B799"/>
<path d="M35.9288 1H28.5981V77.7933H35.9288C60.9395 82.2067 59.2147 61.905 48.8654 55.2849C38.9473 52.6369 39.5074 30.7556 35.9288 1Z" fill="#E0C19C" stroke="#E0C19C"/>
<path d="M48.9133 75.1592C44.7339 78.0328 36.8876 76.3463 36.8876 76.3463C36.7837 75.2445 40.2362 72.8835 44.0755 72.5045C47.9149 72.1256 48.6836 72.7209 48.9133 75.1592Z" fill="#5A5757" fill-opacity="0.65"/>
<path d="M8.23672 75.1592C12.4161 78.0328 20.2625 76.3463 20.2625 76.3463C20.3663 75.2445 16.9138 72.8835 13.0745 72.5045C9.2352 72.1256 8.4665 72.7209 8.23672 75.1592Z" fill="#5A5757" fill-opacity="0.65"/>
<g filter="url(#filter0_d)">
<path d="M37.4575 74.7039C37.4575 76.6539 34.3558 80 28.4019 80C22.448 80 19.3463 76.6539 19.3463 74.7039C19.3463 72.754 22.448 72.9385 28.4019 72.9385C34.3558 72.9385 37.4575 72.754 37.4575 74.7039Z" fill="#D0B799"/>
</g>
<path d="M37.4575 74.7039C37.4575 76.6539 34.3558 80 28.4019 80C28.4019 80 28.4019 76.6539 28.4019 74.7039C28.4019 72.754 28.4019 72.9385 28.4019 72.9385C34.3558 72.9385 37.4575 72.754 37.4575 74.7039Z" fill="#E0C19C"/>
<g filter="url(#filter1_f)">
<path d="M23.3569 63.2291C20.1207 68.7015 20.1206 77.8222 24.6514 75.086C29.1821 72.3498 22.5321 69.1768 23.3569 63.2291Z" fill="#FEF5EB" fill-opacity="0.8"/>
<path d="M23.3569 63.2291C20.1207 68.7015 20.1206 77.8222 24.6514 75.086C29.1821 72.3498 22.5321 69.1768 23.3569 63.2291Z" stroke="#F5E9DB"/>
</g>
<defs>
<filter id="filter0_d" x="15.3463" y="72.9339" width="26.1112" height="15.0661" filterUnits="userSpaceOnUse" color-interpolation-filters="sRGB">
<feFlood flood-opacity="0" result="BackgroundImageFix"/>
<feColorMatrix in="SourceAlpha" type="matrix" values="0 0 0 0 0 0 0 0 0 0 0 0 0 0 0 0 0 0 127 0"/>
<feOffset dy="4"/>
<feGaussianBlur stdDeviation="2"/>
<feColorMatrix type="matrix" values="0 0 0 0 0 0 0 0 0 0 0 0 0 0 0 0 0 0 0.25 0"/>
<feBlend mode="normal" in2="BackgroundImageFix" result="effect1_dropShadow"/>
<feBlend mode="normal" in="SourceGraphic" in2="effect1_dropShadow" result="shape"/>
</filter>
<filter id="filter1_f" x="18.5712" y="60.9745" width="10.1746" height="17.1121" filterUnits="userSpaceOnUse" color-interpolation-filters="sRGB">
<feFlood flood-opacity="0" result="BackgroundImageFix"/>
<feBlend mode="normal" in="SourceGraphic" in2="BackgroundImageFix" result="shape"/>
<feGaussianBlur stdDeviation="1" result="effect1_foregroundBlur"/>
</filter>
</defs>
</svg>
