<svg width="186" height="36" viewBox="0 0 186 36" fill="none" xmlns="http://www.w3.org/2000/svg">
<path d="M39.64 6.986H35.132V35H27.91V18.164H22.022C22.85 19.5747 23.264 21.1693 23.264 22.948C23.264 24.8187 22.8347 26.4287 21.976 27.778C21.1173 29.1273 19.952 30.1393 18.48 30.814C17.008 31.4887 15.3827 31.826 13.604 31.826C11.764 31.826 10.0467 31.4427 8.452 30.676C6.888 29.8787 5.63067 28.744 4.68 27.272C3.76 25.7693 3.3 24.0213 3.3 22.028C3.3 19.912 3.77533 18.118 4.726 16.646C5.70733 15.1433 7.026 14.024 8.682 13.288C10.338 12.552 12.178 12.184 14.202 12.184H27.91V6.986H0.218V0.96H39.64V6.986ZM13.696 25.708C14.8307 25.708 15.7507 25.3707 16.456 24.696C17.1613 23.9907 17.514 23.0707 17.514 21.936C17.514 20.8627 17.1613 19.9733 16.456 19.268C15.7507 18.5627 14.8307 18.21 13.696 18.21C12.5613 18.21 11.626 18.5627 10.89 19.268C10.154 19.9733 9.786 20.878 9.786 21.982C9.786 23.086 10.1387 23.9907 10.844 24.696C11.58 25.3707 12.5307 25.708 13.696 25.708ZM78.4291 6.986H73.9211V35H66.6531V19.544H60.7191V21.706C60.7191 24.9873 59.8605 27.5633 58.1431 29.434C56.4565 31.274 54.0031 32.194 50.7831 32.194C48.7898 32.194 47.0265 31.8107 45.4931 31.044C43.9598 30.2773 42.7791 29.1887 41.9511 27.778C41.1231 26.3673 40.7091 24.7267 40.7091 22.856C40.7091 19.8507 41.6751 17.566 43.6071 16.002C45.5698 14.4073 48.0538 13.61 51.0591 13.61H54.0031V6.986H38.0871V0.96H78.4291V6.986ZM66.6531 6.986H60.7191V13.61H66.6531V6.986ZM54.0031 19.544H51.2891C50.1238 19.544 49.1885 19.8353 48.4831 20.418C47.7778 20.97 47.4251 21.7673 47.4251 22.81C47.4251 23.8527 47.7165 24.6653 48.2991 25.248C48.9125 25.8 49.6945 26.076 50.6451 26.076C51.7491 26.076 52.5771 25.7233 53.1291 25.018C53.7118 24.282 54.0031 23.3007 54.0031 22.074V19.544ZM127.501 6.986V13.794C128.175 12.782 129.065 12 130.169 11.448C131.303 10.8653 132.622 10.574 134.125 10.574C136.026 10.574 137.682 11.0493 139.093 12C140.503 12.92 141.577 14.1773 142.313 15.772C143.049 17.3667 143.417 19.1453 143.417 21.108C143.417 23.2853 143.003 25.1713 142.175 26.766C141.377 28.33 140.258 29.526 138.817 30.354C137.406 31.182 135.781 31.596 133.941 31.596C132.837 31.596 131.794 31.4733 130.813 31.228V25.57C131.119 25.662 131.518 25.708 132.009 25.708C133.205 25.708 134.186 25.3093 134.953 24.512C135.719 23.7147 136.103 22.6413 136.103 21.292C136.103 19.9733 135.704 18.8847 134.907 18.026C134.14 17.1673 133.113 16.738 131.825 16.738C130.414 16.738 129.341 17.2133 128.605 18.164C127.869 19.1147 127.501 20.3107 127.501 21.752V35H120.555V28.652C119.849 29.7253 118.883 30.5687 117.657 31.182C116.461 31.7647 115.035 32.056 113.379 32.056C111.477 32.056 109.806 31.6113 108.365 30.722C106.923 29.802 105.819 28.5293 105.053 26.904C104.286 25.248 103.903 23.3773 103.903 21.292V21.2H87.6647V25.708C87.6647 26.7507 87.9101 27.6093 88.4007 28.284C88.9221 28.928 89.6734 29.25 90.6547 29.25C91.5747 29.25 92.2801 28.9433 92.7707 28.33C93.2921 27.7167 93.5527 26.9347 93.5527 25.984V25.386H100.499C100.529 25.662 100.545 25.9993 100.545 26.398C100.545 29.158 99.6707 31.3507 97.9227 32.976C96.2054 34.6013 93.8287 35.414 90.7927 35.414C88.6154 35.414 86.7447 34.9847 85.1807 34.126C83.6474 33.2367 82.4821 32.0407 81.6847 30.538C80.9181 29.0047 80.5347 27.272 80.5347 25.34V16.048H83.9387C86.3001 16.048 87.9867 15.5267 88.9987 14.484C90.0107 13.4107 90.5167 11.9233 90.5167 10.022V6.986H76.8547V0.96H146.637V6.986H127.501ZM105.283 15.266C106.111 13.7633 107.23 12.6133 108.641 11.816C110.051 10.988 111.723 10.574 113.655 10.574C115.249 10.574 116.614 10.85 117.749 11.402C118.914 11.954 119.849 12.736 120.555 13.748V6.986H97.7387V10.022C97.7387 12.046 97.3707 13.794 96.6347 15.266H105.283ZM115.863 25.984C117.304 25.984 118.439 25.524 119.267 24.604C120.125 23.6533 120.555 22.5493 120.555 21.292C120.555 20.0347 120.141 18.9613 119.313 18.072C118.485 17.152 117.35 16.692 115.909 16.692C114.559 16.692 113.44 17.1213 112.551 17.98C111.661 18.8387 111.217 19.9427 111.217 21.292C111.217 22.7027 111.646 23.8373 112.505 24.696C113.363 25.5547 114.483 25.984 115.863 25.984ZM149.644 6.986H145.136V0.96H161.374V6.986H156.912V35H149.644V6.986ZM170.635 21.2V25.8C170.635 26.8427 170.865 27.686 171.325 28.33C171.816 28.9433 172.521 29.25 173.441 29.25C174.3 29.25 174.975 28.9587 175.465 28.376C175.956 27.7627 176.201 26.9653 176.201 25.984V24.696H183.147V25.708C183.147 28.6827 182.304 31.044 180.617 32.792C178.931 34.54 176.585 35.414 173.579 35.414C171.433 35.414 169.593 34.9847 168.059 34.126C166.557 33.2367 165.422 32.0407 164.655 30.538C163.889 29.0353 163.505 27.3333 163.505 25.432V15.404H168.151C170.513 15.404 172.184 14.898 173.165 13.886C174.177 12.8433 174.683 11.3407 174.683 9.378V6.986H159.825V0.96H185.815V6.986H181.905V9.378C181.905 13.058 181.047 15.956 179.329 18.072C177.643 20.1573 174.821 21.2 170.865 21.2H170.635Z" fill="#0D7E6A"/>
</svg>
