<svg width="68" height="107" viewBox="0 0 68 107" fill="none" xmlns="http://www.w3.org/2000/svg">
<path d="M27.8315 98.9634C25.0327 91.311 23.2516 85.5058 25.0327 77.8534H56.6927C57.7137 84.9583 56.6927 90.5194 53.5296 98.9634H45.1332C41.8255 92.8942 41.3166 88.1445 39.8889 84.5723C39.8889 90.8854 38.2634 93.1581 36.4823 98.9634H27.8315Z" fill="#352A2A" stroke="#352A2A"/>
<path d="M22.5486 76.8407L58.0585 75.8429L62.5333 89.0637C62.1158 90.2055 61.1375 90.9143 58.0585 92.3065C43.4889 93.86 35.3139 94.0559 20.7039 91.3087L18.8593 89.0637L22.5486 76.8407Z" fill="#201E1E"/>
<path d="M32.5048 54.6734H46.5446L48.8797 58.7209C43.2882 61.0049 39.6163 61.839 31.1012 58.7209L32.5048 54.6734Z" fill="#E0C19C"/>
<path d="M32.2482 54.6734C34.0772 56.6152 36.6265 57.716 39.2939 57.716H41.3608C43.8352 57.716 46.1771 56.5978 47.7327 54.6734H32.2482Z" fill="#B69978"/>
<path d="M61.8677 35.2008C65.8148 53.1521 49.7231 55.5862 39.4001 55.5862C21.4867 55.5862 16.9325 46.0686 16.9325 37.3306C16.9325 28.5927 26.9916 19.3793 39.4001 19.3793C51.8086 19.3793 61.8677 26.4628 61.8677 35.2008Z" fill="#E0C19C"/>
<ellipse cx="32.1133" cy="39.4604" rx="2.42894" ry="2.43408" fill="#393535"/>
<ellipse cx="33.0242" cy="39.1562" rx="0.910849" ry="0.912777" fill="#E5E5E5"/>
<ellipse cx="47.9014" cy="39.4604" rx="2.42893" ry="2.43408" fill="#393535"/>
<ellipse cx="48.8122" cy="39.1562" rx="0.910851" ry="0.912777" fill="#E5E5E5"/>
<path d="M42.1326 43.6079C41.5254 41.1738 39.4001 41.4781 38.7928 43.6079" stroke="#5A402D"/>
<path d="M27.8627 37.0264C28.9283 35.6721 29.6798 35.081 32.1133 35.2208" stroke="#4B3A2E"/>
<path d="M51.5447 37.0264C50.6313 35.6721 49.9872 35.081 47.9014 35.2208" stroke="#4B3A2E"/>
<g filter="url(#filter0_f)">
<ellipse cx="31.2024" cy="44.0243" rx="3.33978" ry="0.912779" fill="#E1D6D6"/>
<ellipse cx="31.2024" cy="44.0243" rx="3.33978" ry="0.912779" fill="#A05B5B"/>
<ellipse cx="31.2024" cy="44.0243" rx="3.33978" ry="0.912779" fill="#CA7E7E"/>
</g>
<g filter="url(#filter1_f)">
<ellipse cx="48.205" cy="44.0243" rx="3.33978" ry="0.912779" fill="#E1D6D6"/>
<ellipse cx="48.205" cy="44.0243" rx="3.33978" ry="0.912779" fill="#FBFBFB"/>
<ellipse cx="48.205" cy="44.0243" rx="3.33978" ry="0.912779" fill="#D09286"/>
</g>
<path d="M19.9686 42.503C19.9686 44.6875 18.6093 46.4584 16.9325 46.4584C15.2556 46.4584 13.8963 44.6875 13.8963 42.503C13.8963 40.3186 14.0412 38.8519 15.718 38.8519C17.3948 38.8519 19.9686 40.3186 19.9686 42.503Z" fill="#E0C19C"/>
<path d="M18.1469 43.1275C18.1469 44.0323 17.9001 44.4847 17.1714 44.9371C16.1999 44.9371 16.1999 43.9133 16.1999 43.4136C16.1999 42.9139 16.769 42.2227 17.1714 42.2227C17.5739 42.2227 18.1469 42.6278 18.1469 43.1275Z" fill="#A2896C"/>
<path d="M17.904 43.3537C17.904 43.3537 16.9325 38.3773 15.718 41.9965" stroke="#A2896C"/>
<path d="M59.4388 42.0406C59.4388 44.3124 60.7981 46.1542 62.4749 46.1542C64.1518 46.1542 65.5111 44.3124 65.5111 42.0406C65.5111 39.7687 65.3662 38.2434 63.6894 38.2434C62.0126 38.2434 59.4388 39.7687 59.4388 42.0406Z" fill="#E0C19C"/>
<path d="M61.2605 43.1275C61.2605 44.0323 61.569 44.4847 62.4799 44.9371C63.6943 44.9371 63.6943 43.9133 63.6943 43.4136C63.6943 42.9139 62.9829 42.2227 62.4799 42.2227C61.9768 42.2227 61.2605 42.6278 61.2605 43.1275Z" fill="#A3896C"/>
<path d="M61.5641 43.3537C61.5641 43.3537 62.7786 38.3773 64.2967 41.9965" stroke="#A2896C"/>
<path d="M37.1741 48.929C39.226 49.5022 41.3958 49.5022 43.4478 48.929L45.4724 46.1542H35.1495L37.1741 48.929Z" fill="#913E1C"/>
<path d="M43.6507 48.5882C43.6507 48.9243 42.9086 49.8053 40.311 49.8053C37.7133 49.8053 36.9712 48.9243 36.9712 48.5882C36.9712 48.2522 38.4664 47.9797 40.311 47.9797C42.1555 47.9797 43.6507 48.2522 43.6507 48.5882Z" fill="#D64A38"/>
<path d="M35.7567 46.1542C36.6607 46.939 37.8177 47.3712 39.0149 47.3712H40.9853C42.1368 47.3712 43.2529 46.9738 44.1453 46.2461L44.258 46.1542H35.7567Z" fill="#C4C4C4"/>
<path d="M36.7185 106H27.8C27.2477 106 26.8 105.552 26.8 105V100.9C26.8 100.699 26.8642 100.496 26.9798 100.331C31.5618 93.7743 33.7956 95.5986 37.505 100.318C37.6427 100.493 37.7185 100.712 37.7185 100.935V105C37.7185 105.552 37.2708 106 36.7185 106Z" fill="black" stroke="black"/>
<path d="M29.6036 99.2113C29.7167 98.9593 29.9064 98.7472 30.1526 98.622C31.7289 97.8207 32.7588 97.9118 34.3259 98.6264C34.5956 98.7494 34.8072 98.9713 34.9285 99.2417C35.3063 100.083 34.6906 101.034 33.7682 101.034H30.7837C29.8455 101.034 29.2194 100.067 29.6036 99.2113Z" fill="#AEA3A3"/>
<path d="M53.5926 106H45.1704C44.6181 106 44.1704 105.552 44.1704 105V101.204C44.1704 101 44.2355 100.796 44.353 100.63C48.714 94.4638 50.8458 96.176 54.3759 100.617C54.5157 100.793 54.5926 101.013 54.5926 101.238V105C54.5926 105.552 54.1449 106 53.5926 106Z" fill="black" stroke="black"/>
<path d="M46.847 99.5874C46.9547 99.3501 47.1345 99.1508 47.3672 99.0336C48.8751 98.2743 49.8589 98.3608 51.3582 99.0379C51.613 99.1529 51.8133 99.3614 51.9288 99.6159C52.289 100.41 51.7086 101.31 50.8369 101.31H47.9573C47.071 101.31 46.4808 100.395 46.847 99.5874Z" fill="#AEA3A3"/>
<path d="M36.7302 13.1858C57.9279 13.1858 65.325 24.6548 61.2176 36.7609L30.1182 29.7521L16.0355 36.7609C12.5148 21.469 23.2342 13.1858 36.7302 13.1858Z" fill="#4B3A2E"/>
<ellipse rx="3.16985" ry="3.1164" transform="matrix(0.964961 0.262393 -0.226102 0.974104 18.28 24.6909)" fill="#4B3A2E"/>
<path d="M65.5111 34.9712C65.5111 36.9414 64.4001 38.5385 63.0296 38.5385C61.6591 38.5385 60.5481 36.9414 60.5481 34.9712C60.5481 33.001 61.6591 31.4039 63.0296 31.4039C64.4001 31.4039 65.5111 33.001 65.5111 34.9712Z" fill="#4B3A2E"/>
<path d="M19.3667 35.168C19.3667 37.1034 18.4696 38.6724 17.363 38.6724C16.2563 38.6724 15.3592 37.1034 15.3592 35.168C15.3592 33.2326 16.2563 31.6636 17.363 31.6636C18.4696 31.6636 19.3667 33.2326 19.3667 35.168Z" fill="#4B3A2E"/>
<ellipse rx="2.99142" ry="3.51795" transform="matrix(0.939239 -0.343263 0.297811 0.954625 60.8791 23.0926)" fill="#4B3A2E"/>
<ellipse rx="2.89522" ry="3.52702" transform="matrix(0.771944 -0.635691 -0.575075 -0.818101 57.1005 18.1655)" fill="#4B3A2E"/>
<ellipse rx="1.89336" ry="3.01588" transform="matrix(0.433738 0.901039 -0.871042 0.491209 20.969 34.5644)" fill="#4B3A2E"/>
<ellipse rx="1.89336" ry="3.01588" transform="matrix(0.433738 0.901039 -0.871042 0.491209 25.7085 31.9995)" fill="#4B3A2E"/>
<ellipse rx="1.91877" ry="3.13777" transform="matrix(-0.172421 0.985023 -0.979615 -0.200883 33.839 29.4011)" fill="#4B3A2E"/>
<path d="M50.8586 35.3087C49.5581 35.042 48.652 33.9796 48.8347 32.9358C49.0174 31.892 50.2198 31.2619 51.5202 31.5286C52.8207 31.7953 53.7268 32.8577 53.5441 33.9015C53.3613 34.9453 52.159 35.5753 50.8586 35.3087Z" fill="#4B3A2E"/>
<path d="M59.7488 37.5099C58.6334 37.2812 57.8774 36.2496 58.0601 35.2057C58.2429 34.1619 59.2951 33.5011 60.4104 33.7298C61.5258 33.9585 62.2818 34.9901 62.0991 36.034C61.9163 37.0778 60.8641 37.7386 59.7488 37.5099Z" fill="#4B3A2E"/>
<path d="M56.0637 36.4436C54.3661 36.0955 53.138 34.9671 53.3207 33.9233C53.5034 32.8794 55.0277 32.3154 56.7254 32.6636C58.423 33.0117 59.651 34.1401 59.4683 35.1839C59.2856 36.2278 57.7613 36.7918 56.0637 36.4436Z" fill="#4B3A2E"/>
<ellipse rx="1.91877" ry="3.13777" transform="matrix(-0.172421 0.985023 -0.979615 -0.200883 45.6875 31.966)" fill="#4B3A2E"/>
<ellipse rx="1.91877" ry="3.13777" transform="matrix(-0.172421 0.985023 -0.979615 -0.200883 39.7633 30.6836)" fill="#4B3A2E"/>
<ellipse rx="1.89336" ry="2.00509" transform="matrix(0.433738 0.901039 -0.871042 0.491209 28.3826 29.9311)" fill="#4B3A2E"/>
<ellipse rx="2.36483" ry="2.97893" transform="matrix(0.239061 0.971005 -0.960833 0.277126 24.6586 15.671)" fill="#4B3A2E"/>
<ellipse rx="2.59922" ry="2.97893" transform="matrix(0.239061 -0.971005 -0.960833 -0.277126 52.1817 15.4434)" fill="#4B3A2E"/>
<ellipse rx="2.45417" ry="3.86017" transform="matrix(0.982731 -0.185039 0.144512 0.989503 15.4502 35.0864)" fill="#4B3A2E"/>
<ellipse rx="2.41251" ry="3.68341" transform="matrix(0.975692 0.219146 -0.188295 0.982113 15.467 28.3064)" fill="#4B3A2E"/>
<ellipse rx="2.62059" ry="3.9388" transform="matrix(0.999819 0.0190485 -0.0162607 0.999868 63.0334 29.1109)" fill="#4B3A2E"/>
<path d="M53.5312 37.9249C52.1507 37.5366 51.71 36.91 51.9172 34.5739C51.9172 34.5739 55.4142 36.5286 57.2972 35.9702C59.1802 35.4117 58.38 37.7743 57.2972 38.7626C58.1497 39.8532 58.2488 40.4646 57.2972 41.5551C57.3582 42.9328 57.0954 43.5746 55.1452 44.0684C56.0709 43.0869 56.0162 42.5366 55.1452 41.5551C53.6849 40.9689 53.2906 40.215 53.5312 37.9249Z" fill="#4B3A2E" stroke="#4B3A2E"/>
<path d="M19.1138 11.4532C19.427 9.79301 20.4996 8.35722 21.9821 7.61384L35.3237 0.923949C36.7491 0.209193 38.3908 0.289306 39.6683 1.13595C39.8189 1.23574 39.9527 1.35959 40.0653 1.50324L50.0348 14.2304C40.2097 25.2876 31.1677 23.0756 17.0425 22.4353L19.1138 11.4532Z" fill="#1F1B1B"/>
<path d="M24.1313 10.2874C36.1732 7.54419 38.2613 6.10865 39.4465 3.60431" stroke="#8D8886"/>
<path d="M18.9766 39.462C18.4818 39.3749 18.189 40.0117 18.5591 40.365C20.9618 42.6587 19.2642 41.7172 15.4694 39.4015C15.4027 39.3608 15.3442 39.3039 15.3017 39.2372L14.5838 38.1106C14.4929 37.968 14.4763 37.7899 14.5396 37.6358L15.0878 36.3002C15.1539 36.1391 15.2979 36.0268 15.468 36.0037L16.7265 35.833C16.7817 35.8255 16.8395 35.828 16.8944 35.8398C20.7573 36.6693 22.3456 37.1104 20.1407 37.2472C19.6174 37.2796 19.4683 38.0348 19.9386 38.2849C23.0189 39.9226 22.1448 40.0196 18.9766 39.462Z" fill="#B5296C"/>
<path d="M19.2439 38.976L15.5093 37.347L17.4864 40.1395" stroke="#D8ACAC" stroke-width="0.3"/>
<path d="M14.9757 36.7885L19.7774 39.0225" stroke="#D8ACAC" stroke-width="0.3"/>
<path d="M15.2425 37.0678H19.5107" stroke="#D8ADAD" stroke-width="0.3"/>
<path d="M28.835 58.2191L31.6725 57.2461C37.1037 59.8062 43.254 59.7226 47.2284 57.2461L51.7656 58.2191C54.9262 58.1415 58.2222 60.1364 62.5333 64.416L57.0135 72.4979H53.9495V79.3613L27.1563 72.4979H24.8982L15.8815 66.9215C19.3741 61.6691 25.179 57.2854 28.835 58.2191Z" fill="#201E1E" stroke="#201E1E"/>
<path d="M31.2667 56.7435L45.163 61.7696" stroke="#4B3A2E"/>
<path d="M30.6536 57.6795C28.3152 56.826 28.5818 57.0695 24.8148 57.6795V79.1706L54.5926 79.8639V57.6795C51.0559 56.9313 49.9443 56.0133 47.5861 57.6795L39.0269 72.238L30.6536 57.6795Z" fill="black" stroke="black"/>
<path d="M43.3675 63.4941L46.6896 71.4564C46.7276 71.5477 46.7378 71.6482 46.7187 71.7452L45.5846 77.5215C45.5386 77.7561 45.333 77.9252 45.094 77.9252H42.5611C42.2958 77.9252 42.0766 77.7179 42.0619 77.453L41.2304 62.506C41.2047 62.0444 41.7654 61.7982 42.0879 62.1294L43.2643 63.3378C43.3082 63.3829 43.3432 63.436 43.3675 63.4941Z" fill="#E0C19C" stroke="#E0C19C"/>
<path d="M37.9687 63.496L34.2388 71.4423C34.1919 71.5422 34.1794 71.6548 34.2032 71.7626L35.4778 77.5331C35.5284 77.7621 35.7315 77.9252 35.966 77.9252H38.5993C38.8593 77.9252 39.0759 77.7259 39.0975 77.4668L40.3512 62.4428C40.389 61.9897 39.8516 61.7254 39.5158 62.032L38.0841 63.3392C38.0357 63.3834 37.9965 63.4366 37.9687 63.496Z" fill="#E0C19C" stroke="#E0C19C"/>
<path d="M67 80.3584C66.8911 73.4128 67.3028 69.6697 62.2852 64.3448L57.2326 71.904L56.175 72.9608C53.9238 71.7728 52.7872 71.0964 46.9 71.904L45.9074 77.8621C57.652 82.1794 61.9064 82.5445 67 80.3584Z" fill="#201E1E" stroke="#201E1E"/>
<path d="M13.8963 80.4745C12.9037 75.1034 12.0142 71.5051 16.8741 66L24.3809 70.4138V72.8265L24.4146 72.8075C26.5738 71.5912 27.7949 70.9033 33.4675 71.734L34.8654 77.561C23.4902 82.0244 18.8297 82.7346 13.8963 80.4745Z" fill="#201E1E" stroke="#201E1E"/>
<path d="M62.5895 75.1724C60.5109 71.9216 58.2792 69.7931 55.5852 68.8966" stroke="#D5B48E" stroke-width="0.1"/>
<path d="M64.2059 76.069C62.0507 68.8966 58.818 66.2069 55.5852 64.4138" stroke="#A05B5B" stroke-width="0.1"/>
<path d="M55.5852 61.7241C61.5119 64.4138 64.2059 69.7931 65.2835 75.1724" stroke="#8D8676" stroke-width="0.1"/>
<path d="M55.5852 59.931C62.5895 62.6207 66.8998 70.6897 66.8998 76.069" stroke="#709E60" stroke-opacity="0.9" stroke-width="0.1"/>
<path d="M60.9445 76.069C58.4037 72.7901 52.8292 71.4115 48.4384 72.4828" stroke="#AEA3A3" stroke-width="0.1"/>
<path d="M66.3043 76.9655C66.3043 77.8621 54.3937 76.9655 47.8429 73.3793" stroke="#709E60" stroke-opacity="0.9" stroke-width="0.1"/>
<path d="M66.3043 81.4483C66.8114 81.8347 53.5272 80.3542 46.6519 76.9655" stroke="#E1C793" stroke-width="0.1"/>
<path d="M66.7437 79.4386C61.5401 79.4386 56.7461 79.0594 47.2474 75.1724" stroke="#814A4A" stroke-width="0.1"/>
<path d="M66.8998 81.4483C61.0995 82.9637 56.4398 81.8653 46.6519 77.8621" stroke="#61A24A" stroke-width="0.1"/>
<path d="M21.7427 74.688C24.1795 71.7796 28.3835 71.352 32.5945 72.3022" stroke="#AEA3A3" stroke-width="0.1"/>
<path d="M15.46 76.2786C15.46 77.0739 26.883 76.2786 33.1657 73.0975" stroke="#709E60" stroke-opacity="0.9" stroke-width="0.1"/>
<path d="M16.1296 79.2414C15.6433 79.5841 22.7661 80.549 33.5 75.931" stroke="#E1C793" stroke-width="0.1"/>
<path d="M15.137 78.1379C20.1276 78.1379 24.627 78.136 33.7368 74.688" stroke="#814A4A" stroke-width="0.1"/>
<path d="M14.8889 80.255C20.4518 81.5992 24.9207 80.6249 34.308 77.0739" stroke="#61A24A" stroke-width="0.1"/>
<path d="M18.6111 75.1035C20.0638 72.4076 22.5556 68.5952 24.4383 67.8517" stroke="#D5B48E" stroke-width="0.1"/>
<path d="M17.3704 75.3793C19.4012 69.0802 18.9996 68.912 24.8148 64.8777" stroke="#A05B5B" stroke-width="0.1"/>
<path d="M24.8148 63.3907C20.2963 64.1342 16.6346 70.9183 15.8815 75.3793" stroke="#8D8676" stroke-width="0.1"/>
<path d="M24.4203 62.2759C19.8302 62.2759 12.6556 72.3448 14.6407 76.7586" stroke="#709E60" stroke-opacity="0.9" stroke-width="0.1"/>
<path d="M23.8222 91.4241L26.3037 79.8639" stroke="#CAA68E" stroke-width="0.1"/>
<path d="M28.7852 80.3665L26.8 91.4241" stroke="#709E60" stroke-opacity="0.9" stroke-width="0.1"/>
<path d="M29.7778 92.4293L31.2667 80.8691" stroke="#E0C19C" stroke-width="0.1"/>
<path d="M34.2444 80.8691L32.7556 92.9319" stroke="#709E60" stroke-opacity="0.9" stroke-width="0.1"/>
<path d="M36.2296 92.9319V80.8691" stroke="#E0C19C" stroke-width="0.1"/>
<path d="M39.2074 80.8691V92.9319" stroke="#D5B48E" stroke-width="0.1"/>
<path d="M42.1852 92.9319L41.6889 80.8691" stroke="#709E60" stroke-opacity="0.9" stroke-width="0.1"/>
<path d="M44.1704 80.8691L45.6593 92.9319" stroke="#CA7E7E" stroke-width="0.1"/>
<path d="M48.1407 92.9319L46.6518 80.3665" stroke="#709E60" stroke-opacity="0.9" stroke-width="0.1"/>
<path d="M53.0888 92.4397L51.1334 80.9396" stroke="#CA7E7E" stroke-width="0.1"/>
<path d="M58.3148 90.8276L56.0934 81.0728" stroke="#709E60" stroke-opacity="0.9" stroke-width="0.1"/>
<path d="M55.5703 92.4397L53.6149 80.9396" stroke="#89A5B9" stroke-width="0.1"/>
<path d="M50.6099 92.4392L48.6493 80.9401" stroke="#E0C19C" stroke-width="0.1"/>
<defs>
<filter id="filter0_f" x="23.8627" y="39.1116" width="14.6796" height="9.82556" filterUnits="userSpaceOnUse" color-interpolation-filters="sRGB">
<feFlood flood-opacity="0" result="BackgroundImageFix"/>
<feBlend mode="normal" in="SourceGraphic" in2="BackgroundImageFix" result="shape"/>
<feGaussianBlur stdDeviation="2" result="effect1_foregroundBlur"/>
</filter>
<filter id="filter1_f" x="40.8652" y="39.1116" width="14.6796" height="9.82556" filterUnits="userSpaceOnUse" color-interpolation-filters="sRGB">
<feFlood flood-opacity="0" result="BackgroundImageFix"/>
<feBlend mode="normal" in="SourceGraphic" in2="BackgroundImageFix" result="shape"/>
<feGaussianBlur stdDeviation="2" result="effect1_foregroundBlur"/>
</filter>
</defs>
</svg>
