<svg width="51" height="87" viewBox="0 0 51 87" fill="none" xmlns="http://www.w3.org/2000/svg">
<ellipse rx="2.85405" ry="3.80235" transform="matrix(0.973712 0.227783 -0.183036 0.983106 8.55852 40.3555)" fill="#4B3A2E"/>
<ellipse rx="2.85405" ry="3.80235" transform="matrix(-0.973712 0.227783 0.183036 0.983106 42.6253 40.3555)" fill="#4B3A2E"/>
<ellipse rx="2.62316" ry="3.51799" transform="matrix(0.963495 0.267726 -0.215931 0.976409 7.10254 44.3106)" fill="#4B3A2E"/>
<ellipse rx="2.62316" ry="3.51799" transform="matrix(-0.963495 0.267726 0.215931 0.976409 44.576 44.3106)" fill="#4B3A2E"/>
<ellipse rx="3.18279" ry="3.78274" transform="matrix(0.723882 -0.689924 0.604344 0.796723 7.9852 34.8126)" fill="#4B3A2E"/>
<ellipse rx="3.35091" ry="3.57956" transform="matrix(-0.30222 -0.953238 0.929 -0.370079 12.5274 38.6312)" fill="#4B3A2E"/>
<ellipse rx="3.37835" ry="3.54426" transform="matrix(-0.163625 -0.986523 0.978967 -0.204017 38.6453 38.6312)" fill="#4B3A2E"/>
<ellipse rx="2.86134" ry="3.87548" transform="matrix(0.87411 0.485728 -0.404464 0.914554 42.9791 34.6968)" fill="#4B3A2E"/>
<path d="M21.1217 41.5968H29.3402L30.7071 45.5888C27.434 47.8415 25.2845 48.6641 20.3 45.5888L21.1217 41.5968Z" fill="#E0C19C"/>
<path d="M21.0624 41.9561C21.9982 43.5222 23.6883 44.4811 25.5127 44.4811C27.4573 44.4811 29.2384 43.3928 30.1257 41.6624L30.1594 41.5968H20.8478L21.0624 41.9561Z" fill="#D5B48E"/>
<path d="M44.9484 23.1375C48.5087 40.1547 33.9936 42.4621 24.682 42.4621C8.52361 42.4621 4.41556 33.4398 4.41556 25.1565C4.41556 16.8731 13.4891 8.1392 24.682 8.1392C35.8748 8.1392 44.9484 14.8541 44.9484 23.1375Z" fill="#E0C19C"/>
<path d="M27.1468 31.1071C26.5991 28.7997 24.682 29.0881 24.1342 31.1071" stroke="#5A402D"/>
<path d="M14.168 23.8715C15.1293 22.5877 15.8071 22.0273 18.0022 22.1599" stroke="#4B3A2E"/>
<path d="M35.6234 23.8715C34.7995 22.5877 34.2185 22.0273 32.337 22.1599" stroke="#4B3A2E"/>
<g filter="url(#filter0_f)">
<ellipse cx="17.2875" cy="31.5019" rx="3.01257" ry="0.865284" fill="#E1D6D6"/>
<ellipse cx="17.2875" cy="31.5019" rx="3.01257" ry="0.865284" fill="#A05B5B"/>
<ellipse cx="17.2875" cy="31.5019" rx="3.01257" ry="0.865284" fill="#CA7E7E"/>
</g>
<g filter="url(#filter1_f)">
<ellipse cx="32.6242" cy="31.5019" rx="3.01257" ry="0.865284" fill="#E1D6D6"/>
<ellipse cx="32.6242" cy="31.5019" rx="3.01257" ry="0.865284" fill="#FBFBFB"/>
<ellipse cx="32.6242" cy="31.5019" rx="3.01257" ry="0.865284" fill="#D09286"/>
</g>
<ellipse cx="18.1091" cy="27.1754" rx="2.19096" ry="2.30742" fill="#393535"/>
<ellipse cx="18.9307" cy="26.887" rx="0.821611" ry="0.865284" fill="#E5E5E5"/>
<path d="M16.9434 25.8159L15.4572 24.6867" stroke="#393535" stroke-width="0.5"/>
<path d="M16.4391 27.2324L14.7358 26.596" stroke="#393535" stroke-width="0.5"/>
<path d="M7.15426 30.0597C7.15426 32.1306 5.9281 33.8093 4.41556 33.8093C2.90301 33.8093 1.67685 32.1306 1.67685 30.0597C1.67685 27.9889 1.80753 26.5986 3.32008 26.5986C4.83262 26.5986 7.15426 27.9889 7.15426 30.0597Z" fill="#E0C19C"/>
<path d="M5.51103 30.6517C5.51103 31.5094 5.28841 31.9383 4.63112 32.3672C3.75473 32.3672 3.75473 31.3966 3.75473 30.9229C3.75473 30.4492 4.26811 29.794 4.63112 29.794C4.99413 29.794 5.51103 30.178 5.51103 30.6517Z" fill="#A2896C"/>
<path d="M5.29194 30.8661C5.29194 30.8661 4.41556 26.1486 3.32008 29.5795" stroke="#A2896C"/>
<path d="M42.7574 29.6213C42.7574 31.775 43.9836 33.5209 45.4961 33.5209C47.0086 33.5209 48.2348 31.775 48.2348 29.6213C48.2348 27.4677 48.1041 26.0217 46.5916 26.0217C45.079 26.0217 42.7574 27.4677 42.7574 29.6213Z" fill="#E0C19C"/>
<path d="M44.4006 30.6517C44.4006 31.5094 44.6789 31.9383 45.5005 32.3671C46.596 32.3671 46.596 31.3966 46.596 30.9229C46.596 30.4492 45.9543 29.794 45.5005 29.794C45.0468 29.794 44.4006 30.178 44.4006 30.6517Z" fill="#A3896C"/>
<path d="M44.6745 30.8661C44.6745 30.8661 45.77 26.1486 47.1393 29.5795" stroke="#A2896C"/>
<path d="M22.6741 36.1513C24.5214 36.6937 26.4857 36.6937 28.3331 36.1513L30.1594 33.5209H20.8478L22.6741 36.1513Z" fill="#913E1C"/>
<path d="M28.5161 35.8283C28.5161 36.1469 27.8467 36.982 25.5036 36.982C23.1605 36.982 22.491 36.1469 22.491 35.8283C22.491 35.5097 23.8398 35.2514 25.5036 35.2514C27.1674 35.2514 28.5161 35.5097 28.5161 35.8283Z" fill="#D64A38"/>
<path d="M21.3955 33.5209C22.209 34.2631 23.2704 34.6746 24.3716 34.6746H25.9448C27.0889 34.6746 28.1952 34.2654 29.0639 33.5209H21.3955Z" fill="#C4C4C4"/>
<ellipse cx="32.3503" cy="27.1754" rx="2.19096" ry="2.30742" fill="#393535"/>
<ellipse cx="33.1719" cy="26.887" rx="0.821611" ry="0.865284" fill="#E5E5E5"/>
<path d="M34.0403 26.596L35.7437 25.9596" stroke="#453B3B" stroke-width="0.5"/>
<path d="M33.7905 26.2831L34.8838 24.6867" stroke="#453B3B" stroke-width="0.5"/>
<g filter="url(#filter2_f)">
<ellipse cx="16.4391" cy="32.324" rx="4.54224" ry="1.27288" fill="#E1D6D6"/>
<ellipse cx="16.4391" cy="32.324" rx="4.54224" ry="1.27288" fill="#A05B5B"/>
<ellipse cx="16.4391" cy="32.324" rx="4.54224" ry="1.27288" fill="#CA7E7E"/>
</g>
<g filter="url(#filter3_f)">
<ellipse cx="32.9048" cy="31.6875" rx="3.97446" ry="1.90932" fill="#E1D6D6"/>
<ellipse cx="32.9048" cy="31.6875" rx="3.97446" ry="1.90932" fill="#A05B5B"/>
<ellipse cx="32.9048" cy="31.6875" rx="3.97446" ry="1.90932" fill="#CA7E7E"/>
</g>
<path d="M22.0526 2.9349C42.3718 2.93491 49.4624 14.6106 45.5252 26.9349L16.2771 19.7998L14.5897 5.52949L15.7146 19.7998L2.21551 26.9349C-1.15926 11.3673 9.11594 2.93489 22.0526 2.9349Z" fill="#4B3A2E"/>
<path d="M4.56725 24.9349C4.56725 26.5918 3.89568 27.9349 3.06725 27.9349C2.23883 27.9349 1.56725 26.5918 1.56725 24.9349C1.56725 23.278 2.23883 21.9349 3.06725 21.9349C3.89568 21.9349 4.56725 23.278 4.56725 24.9349Z" fill="#4B3A2E"/>
<path d="M48.5673 24.9349C48.5673 26.5918 47.6718 27.9349 46.5673 27.9349C45.4627 27.9349 44.5673 26.5918 44.5673 24.9349C44.5673 23.278 45.4627 21.9349 46.5673 21.9349C47.6718 21.9349 48.5673 23.278 48.5673 24.9349Z" fill="#4B3A2E"/>
<ellipse rx="2.88611" ry="3.48982" transform="matrix(0.96256 0.271067 -0.2187 0.975792 4.6867 14.2324)" fill="#4B3A2E"/>
<ellipse rx="2.24272" ry="3.48125" transform="matrix(0.935251 -0.353986 0.28843 0.957501 44.6769 13.2204)" fill="#4B3A2E"/>
<ellipse rx="1.78163" ry="3.06081" transform="matrix(0.760872 0.648902 -0.561603 0.827407 7.02253 9.10676)" fill="#4B3A2E"/>
<ellipse rx="2.20984" ry="3.06081" transform="matrix(0.760872 -0.648902 -0.561603 -0.827407 41.4151 8.8289)" fill="#4B3A2E"/>
<ellipse rx="1.78163" ry="3.06081" transform="matrix(0.760872 0.648902 -0.561603 0.827407 7.02253 9.10676)" fill="#4B3A2E"/>
<ellipse rx="1.78163" ry="3.06081" transform="matrix(0.760872 0.648902 -0.561603 0.827407 7.02253 9.10676)" fill="#4B3A2E"/>
<ellipse rx="1.78163" ry="3.06081" transform="matrix(0.760872 0.648902 -0.561603 0.827407 7.02253 9.10676)" fill="#4B3A2E"/>
<ellipse rx="1.78163" ry="3.06081" transform="matrix(0.760872 0.648902 -0.561603 0.827407 7.02253 9.10676)" fill="#4B3A2E"/>
<ellipse rx="1.78163" ry="3.06081" transform="matrix(0.760872 0.648902 -0.561603 0.827407 7.02253 9.10676)" fill="#4B3A2E"/>
<ellipse rx="1.78163" ry="3.06081" transform="matrix(0.760872 0.648902 -0.561603 0.827407 7.02253 9.10676)" fill="#4B3A2E"/>
<ellipse rx="1.78163" ry="3.06081" transform="matrix(0.760872 0.648902 -0.561603 0.827407 7.02253 9.10676)" fill="#4B3A2E"/>
<ellipse rx="1.78163" ry="3.06081" transform="matrix(0.760872 0.648902 -0.561603 0.827407 7.02253 9.10676)" fill="#4B3A2E"/>
<ellipse rx="1.78163" ry="3.06081" transform="matrix(0.760872 0.648902 -0.561603 0.827407 7.02253 9.10676)" fill="#4B3A2E"/>
<ellipse rx="1.78163" ry="3.06081" transform="matrix(0.760872 0.648902 -0.561603 0.827407 7.02253 9.10676)" fill="#4B3A2E"/>
<ellipse rx="1.78163" ry="3.06081" transform="matrix(0.760872 0.648902 -0.561603 0.827407 7.02253 9.10676)" fill="#4B3A2E"/>
<ellipse rx="1.78163" ry="3.06081" transform="matrix(0.760872 0.648902 -0.561603 0.827407 7.02253 9.10676)" fill="#4B3A2E"/>
<ellipse rx="1.78163" ry="3.06081" transform="matrix(0.760872 0.648902 -0.561603 0.827407 7.02253 9.10676)" fill="#4B3A2E"/>
<ellipse rx="1.78163" ry="3.06081" transform="matrix(0.760872 0.648902 -0.561603 0.827407 7.02253 9.10676)" fill="#4B3A2E"/>
<ellipse rx="1.78163" ry="3.06081" transform="matrix(0.760872 0.648902 -0.561603 0.827407 7.02253 9.10676)" fill="#4B3A2E"/>
<ellipse rx="1.78163" ry="3.06081" transform="matrix(0.760872 0.648902 -0.561603 0.827407 7.02253 9.10676)" fill="#4B3A2E"/>
<ellipse rx="1.78163" ry="3.06081" transform="matrix(0.760872 0.648902 -0.561603 0.827407 7.02253 9.10676)" fill="#4B3A2E"/>
<ellipse rx="1.78163" ry="3.06081" transform="matrix(0.760872 0.648902 -0.561603 0.827407 7.02253 9.10676)" fill="#4B3A2E"/>
<ellipse rx="1.78163" ry="3.06081" transform="matrix(0.760872 0.648902 -0.561603 0.827407 7.02253 9.10676)" fill="#4B3A2E"/>
<ellipse rx="1.78163" ry="3.06081" transform="matrix(0.760872 0.648902 -0.561603 0.827407 7.02253 9.10676)" fill="#4B3A2E"/>
<ellipse rx="1.78163" ry="3.06081" transform="matrix(0.760872 0.648902 -0.561603 0.827407 7.02253 9.10676)" fill="#4B3A2E"/>
<ellipse rx="1.78163" ry="3.06081" transform="matrix(0.760872 0.648902 -0.561603 0.827407 7.02253 9.10676)" fill="#4B3A2E"/>
<ellipse rx="1.78163" ry="3.06081" transform="matrix(0.760872 0.648902 -0.561603 0.827407 7.02253 9.10676)" fill="#4B3A2E"/>
<ellipse rx="1.78163" ry="3.06081" transform="matrix(0.760872 0.648902 -0.561603 0.827407 7.02253 9.10676)" fill="#4B3A2E"/>
<ellipse rx="1.78163" ry="3.06081" transform="matrix(0.760872 0.648902 -0.561603 0.827407 7.02253 9.10676)" fill="#4B3A2E"/>
<ellipse rx="1.78163" ry="3.06081" transform="matrix(0.760872 0.648902 -0.561603 0.827407 7.02253 9.10676)" fill="#4B3A2E"/>
<ellipse rx="1.78163" ry="3.06081" transform="matrix(0.760872 0.648902 -0.561603 0.827407 7.02253 9.10676)" fill="#4B3A2E"/>
<ellipse rx="1.78163" ry="3.06081" transform="matrix(0.760872 0.648902 -0.561603 0.827407 7.02253 9.10676)" fill="#4B3A2E"/>
<ellipse rx="1.78163" ry="3.06081" transform="matrix(0.760872 0.648902 -0.561603 0.827407 7.02253 9.10676)" fill="#4B3A2E"/>
<ellipse rx="1.78163" ry="3.06081" transform="matrix(0.760872 0.648902 -0.561603 0.827407 7.02253 9.10676)" fill="#4B3A2E"/>
<ellipse rx="1.78163" ry="3.06081" transform="matrix(0.760872 0.648902 -0.561603 0.827407 7.02253 9.10676)" fill="#4B3A2E"/>
<ellipse rx="1.78163" ry="3.06081" transform="matrix(0.760872 0.648902 -0.561603 0.827407 7.02253 9.10676)" fill="#4B3A2E"/>
<ellipse rx="1.78163" ry="3.06081" transform="matrix(0.760872 0.648902 -0.561603 0.827407 7.02253 9.10676)" fill="#4B3A2E"/>
<ellipse rx="1.78163" ry="3.06081" transform="matrix(0.760872 0.648902 -0.561603 0.827407 7.02253 9.10676)" fill="#4B3A2E"/>
<ellipse rx="1.78163" ry="3.06081" transform="matrix(0.760872 0.648902 -0.561603 0.827407 7.02253 9.10676)" fill="#4B3A2E"/>
<ellipse rx="1.78163" ry="3.06081" transform="matrix(0.760872 0.648902 -0.561603 0.827407 7.02253 9.10676)" fill="#4B3A2E"/>
<ellipse rx="1.78163" ry="3.06081" transform="matrix(0.760872 0.648902 -0.561603 0.827407 7.02253 9.10676)" fill="#4B3A2E"/>
<ellipse rx="2.13887" ry="3.06081" transform="matrix(0.760872 0.648902 -0.561603 0.827407 6.75072 8.87495)" fill="#4B3A2E"/>
<ellipse rx="1.86725" ry="2.91559" transform="matrix(0.421504 0.906827 -0.863517 0.504319 7.02252 24.3814)" fill="#4B3A2E"/>
<ellipse rx="1.86725" ry="2.91559" transform="matrix(0.421504 0.906827 -0.863517 0.504319 11.5648 21.8356)" fill="#4B3A2E"/>
<ellipse rx="1.90256" ry="3.01163" transform="matrix(-0.166656 0.986015 -0.978185 -0.207738 19.357 19.2566)" fill="#4B3A2E"/>
<path d="M35.6685 25.1201C34.4222 24.8554 33.5538 23.8009 33.7289 22.7649C33.904 21.7288 35.0563 21.1035 36.3027 21.3682C37.549 21.6329 38.4174 22.6873 38.2423 23.7234C38.0672 24.7595 36.9149 25.3848 35.6685 25.1201Z" fill="#4B3A2E"/>
<path d="M44.1889 27.3049C43.1199 27.0779 42.3954 26.054 42.5705 25.0179C42.7456 23.9818 43.7541 23.326 44.823 23.553C45.8919 23.78 46.6165 24.8039 46.4414 25.84C46.2663 26.876 45.2578 27.5319 44.1889 27.3049Z" fill="#4B3A2E"/>
<path d="M40.6571 26.2466C39.0301 25.9011 37.8531 24.7811 38.0282 23.745C38.2034 22.709 39.6643 22.1492 41.2912 22.4947C42.9182 22.8402 44.0952 23.9602 43.9201 24.9963C43.745 26.0323 42.2841 26.5921 40.6571 26.2466Z" fill="#4B3A2E"/>
<ellipse rx="1.90256" ry="3.01163" transform="matrix(-0.166656 0.986015 -0.978185 -0.207738 30.7126 21.8023)" fill="#4B3A2E"/>
<ellipse rx="1.90256" ry="3.01163" transform="matrix(-0.166656 0.986015 -0.978185 -0.207738 25.0348 20.5294)" fill="#4B3A2E"/>
<ellipse rx="1.86725" ry="1.93842" transform="matrix(0.421504 0.906827 -0.863517 0.504319 14.1276 19.7826)" fill="#4B3A2E"/>
<ellipse rx="2.7159" ry="3.29033" transform="matrix(0.0708961 0.997484 -0.996036 0.0889505 20.9182 3.00174)" fill="#4B3A2E"/>
<ellipse rx="2.45054" ry="2.84856" transform="matrix(-0.145843 0.989308 -0.983274 -0.182132 32.0886 3.46151)" fill="#4B3A2E"/>
<ellipse rx="2.7159" ry="3.29033" transform="matrix(0.0708961 0.997484 -0.996036 0.0889505 26.596 3.00174)" fill="#4B3A2E"/>
<ellipse rx="2.53596" ry="2.85132" transform="matrix(0.16554 0.986203 -0.978474 0.206368 15.0204 3.7808)" fill="#4B3A2E"/>
<ellipse rx="2.34267" ry="2.86294" transform="matrix(0.231282 0.972887 -0.958168 0.286206 10.5586 5.62875)" fill="#4B3A2E"/>
<ellipse rx="2.57487" ry="2.86294" transform="matrix(0.231282 -0.972887 -0.958168 -0.286206 36.9366 5.40285)" fill="#4B3A2E"/>
<ellipse rx="1.71233" ry="3.82064" transform="matrix(0.973997 0.226561 -0.182034 0.983292 2.3633 20.6882)" fill="#4B3A2E"/>
<ellipse rx="1.71233" ry="2.17856" transform="matrix(0.973997 0.226561 -0.182034 0.983292 2.60568 16.8584)" fill="#4B3A2E"/>
<ellipse rx="1.70341" ry="3.18211" transform="matrix(0.999805 0.019727 -0.0157013 0.999877 46.5315 18.7834)" fill="#4B3A2E"/>
<path d="M7.62358 78.5731L8.76325 62.934C8.87752 61.366 10.1831 60.1521 11.7553 60.1521H39.2919C40.8642 60.1521 42.1697 61.3659 42.284 62.934L43.4236 78.5731C43.5503 80.3112 42.1743 81.7911 40.4316 81.7911H10.6156C8.8729 81.7911 7.49691 80.3112 7.62358 78.5731Z" fill="#100F0F"/>
<path d="M8.02889 76.0207H43.0183L44.8281 81.7911L6.21909 81.7911L8.02889 76.0207Z" fill="#911C1C"/>
<path d="M15.3853 45.1025H19.2973C24.1617 47.1407 26.4955 47.0742 30.0552 45.1025H35.9232C38.7539 45.0407 41.706 46.6289 45.5673 50.0361L39.1831 56.2239L37.5532 54.721L37.8792 61.9349L13.7825 54.721H12.0167L5.56725 50.0361C9.52345 46.1043 12.1109 44.3591 15.3853 45.1025Z" fill="#201E1E" stroke="#201E1E"/>
<path d="M30.1552 45.299L13.0325 55.6852V61.425H38.0148L37.1727 45.299C34.4322 44.8012 32.8957 44.6762 30.1552 45.299Z" fill="#E5E5E5" stroke="#E5E5E5"/>
<path d="M16.4391 55.697L34.0403 44.8775" stroke="#912A1C"/>
<path d="M18.5673 44.497C22.3746 72.6198 29.3041 73.728 30.5673 43.9349" stroke="#3D6230" stroke-opacity="0.9"/>
<path d="M16.5673 44.5992C21.6437 77.8353 30.883 79.1449 32.5673 43.9349" stroke="#AEA3A3" stroke-width="0.3"/>
<path d="M28.2733 49.2036L31.3541 55.1433C31.4098 55.2506 31.4247 55.3746 31.396 55.4921L30.3648 59.7166C30.3102 59.9405 30.1096 60.0981 29.8791 60.0981H27.5242C27.2615 60.0981 27.0435 59.8947 27.0254 59.6326L26.2614 48.5849C26.2311 48.1467 26.74 47.8851 27.0787 48.1649L28.1479 49.0484C28.1997 49.0912 28.2423 49.144 28.2733 49.2036Z" fill="#E0C19C" stroke="#E0C19C"/>
<path d="M23.1703 49.2028L19.7127 55.1282C19.645 55.2443 19.6268 55.3829 19.6624 55.5126L20.8207 59.7305C20.8803 59.9476 21.0777 60.0981 21.3028 60.0981H23.7579C24.0141 60.0981 24.2288 59.9045 24.2553 59.6497L25.4071 48.546C25.4519 48.1145 24.9635 47.8346 24.6138 48.0914L23.3062 49.0518C23.2511 49.0923 23.2048 49.1437 23.1703 49.2028Z" fill="#E0C19C" stroke="#E0C19C"/>
<path d="M50.4889 61.939C50.3864 56.6841 50.6831 53.9977 45.9637 49.969L41.3019 55.5425L40.3072 56.3421L40.2745 56.3282C38.1776 55.438 36.9919 54.9347 31.4832 55.5425L30.1256 59.8068C41.1722 63.0732 45.698 63.5929 50.4889 61.939Z" fill="#201E1E" stroke="#201E1E"/>
<path d="M0.541292 62.0268C0.640507 56.5941 1.64809 53.4976 6.21909 49.3326L11.3889 54.5873L10.4027 56.2405L10.4344 56.2262C12.4654 55.3059 13.6138 54.7855 18.9493 55.4139L20.2642 59.8225C9.56501 63.1994 5.18151 63.7368 0.541292 62.0268Z" fill="#201E1E" stroke="#201E1E"/>
<path d="M45.3959 56.9699C43.2055 54.6622 40.8537 53.1512 38.0148 52.5148" stroke="#D5B48E" stroke-width="0.1"/>
<path d="M47.0993 57.6063C44.8281 52.5148 41.4215 50.6055 38.0148 49.3326" stroke="#A05B5B" stroke-width="0.1"/>
<path d="M38.0148 47.4233C44.2604 49.3326 47.0993 53.1512 48.2348 56.9699" stroke="#8D8676" stroke-width="0.1"/>
<path d="M38.0148 46.1504C45.3959 48.0597 49.9382 53.7877 49.9382 57.6063" stroke="#709E60" stroke-opacity="0.9" stroke-width="0.1"/>
<path d="M44.2604 57.6063C41.8379 55.2788 36.5231 54.3001 32.337 55.0606" stroke="#AEA3A3" stroke-width="0.1"/>
<path d="M49.3704 58.2428C49.3704 58.8792 38.0148 58.2428 31.7692 55.697" stroke="#709E60" stroke-opacity="0.9" stroke-width="0.1"/>
<path d="M49.3704 61.425C49.8538 61.6993 37.1886 60.6483 30.6336 58.2428" stroke="#E1C793" stroke-width="0.1"/>
<path d="M49.7893 59.9983C44.8281 59.9983 40.2575 59.7292 31.2014 56.9699" stroke="#814A4A" stroke-width="0.1"/>
<path d="M49.9382 61.425C44.4081 62.5008 39.9655 61.721 30.6336 58.8792" stroke="#61A24A" stroke-width="0.1"/>
<path d="M7.35465 56.9699C9.77712 54.6423 13.9563 54.3001 18.1425 55.0606" stroke="#AEA3A3" stroke-width="0.1"/>
<path d="M1.10907 58.2428C1.10907 58.8792 12.4647 58.2428 18.7103 55.697" stroke="#709E60" stroke-opacity="0.9" stroke-width="0.1"/>
<path d="M1.10907 61.425C0.625629 61.6992 13.2909 60.6483 19.8458 58.2428" stroke="#E1C793" stroke-width="0.1"/>
<path d="M0.690179 59.9983C5.65131 59.9983 10.222 59.7292 19.278 56.9699" stroke="#814A4A" stroke-width="0.1"/>
<path d="M0.541292 61.425C6.0714 62.5007 10.5139 61.721 19.8458 58.8792" stroke="#61A24A" stroke-width="0.1"/>
<path d="M35.1759 44.8775L34.0403 45.5139L33.4725 44.2411L35.1759 44.8775Z" fill="#912A1C" stroke="#912A1C" stroke-width="0.09"/>
<path d="M10.1936 54.4241C12.384 52.1165 14.7358 50.6055 17.5747 49.969" stroke="#D5B48E" stroke-width="0.1"/>
<path d="M5.08353 57.6063C8.14587 52.2143 9.37379 50.8766 18.1425 47.4233" stroke="#A05B5B" stroke-width="0.1"/>
<path d="M18.1425 46.1504C11.3291 46.7868 5.08353 53.1512 3.94797 56.9699" stroke="#8D8676" stroke-width="0.1"/>
<path d="M19.278 45.5139C11.8969 43.6046 5.08353 50.6055 1.10907 58.2428" stroke="#709E60" stroke-opacity="0.9" stroke-width="0.1"/>
<path d="M4.03196 53.9349C2.18772 51.1108 1.97325 49.9146 4.03196 48.9349H7.45506C7.9696 52.6903 6.69483 53.2736 4.03196 53.9349Z" fill="#4B3A2E" stroke="#4B3A2E"/>
<path d="M3.29085 24.4846C3.66321 24.0813 3.53053 23.8101 2.92923 23.278C2.40378 23.6535 2.90847 23.6201 3.29085 24.4846Z" fill="#C6AF37" stroke="#C6AF37"/>
<path d="M10.3234 20.6144C9.94246 20.901 9.71971 20.7205 9.31264 20.0342C9.68286 19.5932 9.60993 20.0785 10.3234 20.6144Z" fill="#C6AF37" stroke="#C6AF37"/>
<path d="M10.376 16.5854C10.104 16.9995 9.83991 16.914 9.24985 16.4223C9.4653 15.867 9.54303 16.3514 10.376 16.5854Z" fill="#C6AF37" stroke="#C6AF37"/>
<path d="M6.92503 24.3366C7.09535 23.7884 6.86786 23.6133 6.11721 23.442C5.79903 24.0425 6.23616 23.7578 6.92503 24.3366Z" fill="#C6AF37" stroke="#C6AF37"/>
<path d="M47.3955 53.9349C48.8709 51.1108 49.0425 49.9146 47.3955 48.9349H44.657C44.2454 52.6903 45.2652 53.2736 47.3955 53.9349Z" fill="#4B3A2E" stroke="#4B3A2E"/>
<path d="M24.5673 61.9349L22.5673 77.9349" stroke="#715C5C" stroke-width="0.2"/>
<path d="M25.5673 61.9349V79.9349" stroke="#715C5C" stroke-width="0.2"/>
<path d="M28.5673 61.9349L30.5673 77.9349" stroke="#715C5C" stroke-width="0.2"/>
<path d="M35.8792 85.6097H28.7947C28.2425 85.6097 27.7947 85.162 27.7947 84.6097V82.5236C27.7947 82.2785 27.8863 82.0387 28.0524 81.8584C31.7426 77.8509 33.5952 78.9424 36.5808 81.8503C36.7724 82.0369 36.8792 82.2936 36.8792 82.5611V84.6097C36.8792 85.162 36.4315 85.6097 35.8792 85.6097Z" fill="#5A2F2F" stroke="#5A2F2F"/>
<path d="M30.1415 81.235C30.2265 81.0892 30.3559 80.9729 30.5125 80.9099C31.8933 80.3545 32.7651 80.4205 34.1409 80.9143C34.3099 80.9749 34.451 81.0952 34.5414 81.2503C34.8456 81.7723 34.4691 82.4275 33.8649 82.4275H30.8267C30.2147 82.4275 29.8333 81.7638 30.1415 81.235Z" fill="#B89C7B"/>
<path d="M22.2525 85.6097H15.168C14.6157 85.6097 14.168 85.162 14.168 84.6097V82.5236C14.168 82.2785 14.2596 82.0387 14.4256 81.8584C18.1158 77.8509 19.9685 78.9424 22.9541 81.8503C23.1457 82.0369 23.2525 82.2936 23.2525 82.5611V84.6097C23.2525 85.162 22.8048 85.6097 22.2525 85.6097Z" fill="#5A2F2F" stroke="#5A2F2F"/>
<path d="M16.5148 81.235C16.5998 81.0892 16.7292 80.9729 16.8858 80.9099C18.2666 80.3545 19.1384 80.4205 20.5142 80.9143C20.6832 80.9749 20.8242 81.0952 20.9146 81.2503C21.2189 81.7723 20.8423 82.4275 20.2382 82.4275H17.2C16.588 82.4275 16.2066 81.7638 16.5148 81.235Z" fill="#B89C7B"/>
<path d="M2.80203 22.9349C2.2455 18.324 2.72846 16.0122 3.72377 11.9349C4.44369 16.2307 3.72377 19.4974 5.56725 22.9349" stroke="#C6AF37" stroke-width="0.5"/>
<path d="M3.56725 12.9349C5.186 17.6074 6.02784 20.532 8.56725 20.9349" stroke="#C6AF37" stroke-width="0.5"/>
<path d="M3.56725 12.9349C6.56725 16.2359 8.30701 19.2539 9.56725 17.3362" stroke="#C6AF37" stroke-width="0.5"/>
<ellipse cx="3.06725" cy="13.4349" rx="1.5" ry="2.5" fill="#C6AF37"/>
<path d="M1.56725 19.9349H4.06725L5.94225 19.2682L6.56725 15.9349" stroke="#C6AF37" stroke-width="0.5"/>
<path d="M8.56725 15.9349L7.96725 20.4349L5.56725 21.9349H2.56725" stroke="#C6AF37" stroke-width="0.5"/>
<defs>
<filter id="filter0_f" x="10.2749" y="26.6366" width="14.0251" height="9.73057" filterUnits="userSpaceOnUse" color-interpolation-filters="sRGB">
<feFlood flood-opacity="0" result="BackgroundImageFix"/>
<feBlend mode="normal" in="SourceGraphic" in2="BackgroundImageFix" result="shape"/>
<feGaussianBlur stdDeviation="2" result="effect1_foregroundBlur"/>
</filter>
<filter id="filter1_f" x="25.6116" y="26.6366" width="14.0251" height="9.73057" filterUnits="userSpaceOnUse" color-interpolation-filters="sRGB">
<feFlood flood-opacity="0" result="BackgroundImageFix"/>
<feBlend mode="normal" in="SourceGraphic" in2="BackgroundImageFix" result="shape"/>
<feGaussianBlur stdDeviation="2" result="effect1_foregroundBlur"/>
</filter>
<filter id="filter2_f" x="7.8969" y="27.0511" width="17.0845" height="10.5458" filterUnits="userSpaceOnUse" color-interpolation-filters="sRGB">
<feFlood flood-opacity="0" result="BackgroundImageFix"/>
<feBlend mode="normal" in="SourceGraphic" in2="BackgroundImageFix" result="shape"/>
<feGaussianBlur stdDeviation="2" result="effect1_foregroundBlur"/>
</filter>
<filter id="filter3_f" x="24.9303" y="25.7782" width="15.9489" height="11.8186" filterUnits="userSpaceOnUse" color-interpolation-filters="sRGB">
<feFlood flood-opacity="0" result="BackgroundImageFix"/>
<feBlend mode="normal" in="SourceGraphic" in2="BackgroundImageFix" result="shape"/>
<feGaussianBlur stdDeviation="2" result="effect1_foregroundBlur"/>
</filter>
</defs>
</svg>
