<svg width="66" height="92" viewBox="0 0 66 92" fill="none" xmlns="http://www.w3.org/2000/svg">
<path d="M6.60178 82.0358C5.78626 82.0358 4.67963 81.8397 3.89594 82.1713C6.71328 82.7596 9.52982 85.1208 11.96 86.4081C13.5743 87.2632 16.1219 88.036 17.9423 88.2325C18.7159 88.3161 19.1273 88.9195 19.906 89.0708C20.912 89.2664 22.0073 89.299 23.0266 89.4324C24.9443 89.6834 26.7562 90.9118 28.7349 90.9118C30.9072 90.9118 33.2789 91.1804 35.4327 90.7803C38.8441 90.1465 42.5888 90.8352 45.8447 89.4982C47.0848 88.989 48.1164 88.4584 49.4067 88.2161C51.1178 87.8948 52.2627 86.7975 54.0647 86.7697C54.9219 86.7564 55.78 86.7697 56.6373 86.7697H59.3468C60.416 86.7697 61.1303 85.8682 62.2238 85.652C62.5823 85.5811 65.4716 84.7657 64.9334 83.9754C64.4295 83.2354 63.4953 82.8431 62.7414 82.4632C59.5319 80.8459 55.4528 81.1845 52.0249 81.1482C50.0626 81.1275 49.1411 79.6493 47.3365 79.3895C45.0159 79.0554 42.5636 79.4112 40.2734 78.9457C37.9945 78.4825 35.7006 78.4831 33.4538 77.7294C31.544 77.0887 31.0202 78.0261 29.4199 78.9621C25.5609 81.2192 21.5787 78.6092 17.5922 79.6854C15.7296 80.1882 12.3975 79.7727 11.0315 81.5756C10.2251 82.6398 7.82316 82.0358 6.60178 82.0358Z" fill="#4C3C1D"/>
<path d="M1 84.4028C1.34095 82.516 1.22031 82.7397 2.88756 82.6111C3.37757 82.5733 3.44899 82.3808 3.83134 82.2002C4.61787 81.8286 5.76359 82.0358 6.60178 82.0358C7.82316 82.0358 10.2251 82.6398 11.0315 81.5756C12.3975 79.7727 15.7296 80.1882 17.5922 79.6854C21.5787 78.6092 25.5609 81.2192 29.4199 78.9621C31.0202 78.0261 31.544 77.0887 33.4538 77.7294C35.7006 78.4831 37.9945 78.4825 40.2734 78.9457C42.5636 79.4112 45.0159 79.0554 47.3365 79.3895C49.1411 79.6493 50.0626 81.1275 52.0249 81.1482C55.4528 81.1845 59.5319 80.8459 62.7414 82.4632C63.4953 82.8431 64.4295 83.2354 64.9334 83.9754C65.4716 84.7657 62.5823 85.5811 62.2238 85.652C61.1303 85.8682 60.416 86.7697 59.3468 86.7697C58.4436 86.7697 57.5405 86.7697 56.6373 86.7697C55.78 86.7697 54.9219 86.7564 54.0647 86.7697C52.2627 86.7975 51.1178 87.8948 49.4067 88.2161C48.1164 88.4584 47.0848 88.989 45.8447 89.4982C42.5888 90.8352 38.8441 90.1465 35.4327 90.7803C33.2789 91.1804 30.9072 90.9118 28.7349 90.9118C26.7562 90.9118 24.9443 89.6834 23.0266 89.4324C22.0073 89.299 20.912 89.2664 19.906 89.0708C19.1273 88.9195 18.7159 88.3161 17.9423 88.2325C16.1219 88.036 13.5743 87.2632 11.96 86.4081C9.16951 84.9299 5.86961 82.0358 2.644 82.0358" stroke="#4D3C1D" stroke-linecap="round" stroke-linejoin="round"/>
<ellipse cx="7.125" cy="81.4271" rx="6.5" ry="2" transform="rotate(9.86195 7.125 81.4271)" fill="#4C3C1D"/>
<ellipse cx="22.1619" cy="82.2949" rx="6.5" ry="1.13142" transform="rotate(-2.43257 22.1619 82.2949)" fill="#4C3C1D"/>
<path d="M32.0648 82.4266C36.6914 72.7073 38.4353 64.9221 34.3276 56.2989C27.9695 45.5147 26.2284 40.7321 26.9474 34.8514" stroke="#709E60" stroke-opacity="0.9"/>
<path fill-rule="evenodd" clip-rule="evenodd" d="M31.7397 12.6342C30.417 13.4034 28.8137 13.8539 27.0857 13.8539C25.3732 13.8539 23.7831 13.4115 22.4673 12.6548C22.4421 15.6622 20.1454 18.214 16.9527 19.1498C18.9022 20.4163 20.1585 22.4052 20.1585 24.6417C20.1585 25.7498 19.8501 26.7971 19.3018 27.7259C19.4999 27.7138 19.7001 27.7077 19.9019 27.7077C22.8137 27.7077 25.3715 28.9867 26.8291 30.9151C28.1992 29.1025 30.5411 27.8637 33.2355 27.7214C32.9086 26.9741 32.73 26.1661 32.73 25.323C32.73 22.9128 34.189 20.7901 36.4025 19.5493C33.6248 18.4388 31.7038 16.0517 31.7038 13.2861C31.7038 13.0662 31.7159 12.8488 31.7397 12.6342ZM35.2598 7.57886C35.2835 7.36424 35.2957 7.14678 35.2957 6.92693C35.2957 3.10129 31.6199 0 27.0857 0C22.5712 0 18.9077 3.07429 18.8759 6.87689C17.56 6.1202 15.97 5.67783 14.2575 5.67783C9.72324 5.67783 6.04749 8.77912 6.04749 12.6048C6.04749 14.8412 7.30372 16.8302 9.25331 18.0966C6.04289 19.0376 3.73843 21.6126 3.73843 24.6417C3.73843 28.4673 7.41418 31.5686 11.9485 31.5686C12.1503 31.5686 12.3504 31.5625 12.5486 31.5504C12.0003 32.4792 11.6919 33.5265 11.6919 34.6346C11.6919 38.4603 15.3676 41.5616 19.9019 41.5616C22.8137 41.5616 25.3715 40.2826 26.8291 38.3542C28.2867 40.2826 30.8445 41.5616 33.7563 41.5616C38.2906 41.5616 41.9663 38.4603 41.9663 34.6346C41.9663 33.7915 41.7878 32.9836 41.4609 32.2362C45.7525 32.0096 49.1501 29.0011 49.1501 25.323C49.1501 22.5574 47.2291 20.1703 44.4514 19.0598C46.6649 17.819 48.1238 15.6963 48.1238 13.2861C48.1238 9.46045 44.4481 6.35916 39.9138 6.35916C38.1858 6.35916 36.5825 6.80958 35.2598 7.57886Z" fill="#CA7E7E"/>
<path d="M27.9474 6.17902V20.2222M27.9474 20.2222L42.5439 13.4815M27.9474 20.2222L42.5439 25.8395M27.9474 20.2222L35.2456 35.3889M27.9474 20.2222L18.9649 35.3889M27.9474 20.2222L12.7895 23.0309M27.9474 20.2222L12.7895 13.4815" stroke="#DCA8A8" stroke-width="0.5"/>
<ellipse cx="27.386" cy="21.3457" rx="10.6667" ry="11.2346" fill="#544324"/>
<ellipse cx="21.2105" cy="21.3457" rx="1.12281" ry="1.12346" fill="#8F7D5B"/>
<ellipse cx="23.4561" cy="15.7284" rx="1.12281" ry="1.12346" fill="#8F7D5B"/>
<ellipse cx="30.193" cy="15.7284" rx="1.12281" ry="1.12346" fill="#8F7D5B"/>
<ellipse cx="26.8246" cy="20.2222" rx="1.12281" ry="1.12346" fill="#8F7D5B"/>
<path d="M27.1265 67.1338L34.3877 75.9044" stroke="#75995E" stroke-width="0.5"/>
<path d="M29.1225 64.5397C31.3384 67.2714 32.2515 68.7826 31.3723 71.3236L29.396 71.8683C24.237 70.3651 22.4098 69.4374 18.0276 66.857C19.7592 67.4053 19.8687 67.3661 21.0736 67.1528C17.0513 65.4573 16.6845 64.1178 15.2037 61.8108L17.63 62.6229C16.2995 61.2127 15.7777 60.0731 15.4713 58.2819C18.8521 59.2079 19.5151 59.6354 22.7958 61.9397C24.3789 62.3011 23.307 61.8686 23.1546 60.8536C26.1458 62.6047 27.2154 63.7187 27.7396 66.0067C28.8037 66.4052 28.8792 65.6628 29.1225 64.5397Z" fill="#75995E" stroke="#75995E"/>
<path d="M37.5846 44.1452C35.0139 48.7307 33.9499 51.4281 34.9249 57.2025L37.1807 59.3577C43.1053 58.856 45.2085 57.8501 50.2572 54.693C48.2681 54.9532 48.1432 54.8147 46.7665 53.7497C51.3923 52.2617 51.8287 49.6437 53.5526 45.5708L50.7649 46.027C52.3055 43.7553 52.9169 41.6358 53.2899 38.0406C49.4081 38.2456 48.6437 38.801 44.8595 41.9448C43.0427 41.8896 44.2752 41.5336 44.4622 39.4854C41.0162 41.619 39.7779 43.4038 39.1495 47.9281C37.9264 48.2169 37.8491 46.6228 37.5846 44.1452Z" fill="#75995E" stroke="#75995E"/>
<ellipse cx="27.9474" cy="24.716" rx="1.12281" ry="1.12346" fill="#8F7D5B"/>
<ellipse cx="32.4386" cy="20.2222" rx="1.12281" ry="1.12346" fill="#8F7D5B"/>
<ellipse cx="32.4386" cy="25.8395" rx="1.12281" ry="1.12346" fill="#8F7D5B"/>
<ellipse cx="23.4561" cy="26.963" rx="1.12281" ry="1.12346" fill="#8F7D5B"/>
</svg>
