<svg width="113" height="111" viewBox="0 0 113 111" fill="none" xmlns="http://www.w3.org/2000/svg">
<path d="M32.016 18.582C26.4623 34.5556 27.9904 49.6496 36.9313 71.6375L56.8923 82.2491C78.8153 78.5707 74.9376 77.3325 79.5383 68.7034C80.2973 67.2798 80.2776 65.6006 79.4081 64.1787C66.5771 43.1975 65.335 20.0498 36.2708 16.2594C34.3503 16.0089 32.5645 17.0045 32.016 18.582Z" fill="#9F7295" stroke="#9F7295"/>
<path d="M72.6919 70.1229L46.0928 79.4051L49.9948 88.795C81.6448 94.7724 92.3497 93.3168 100.706 83.3893L104.949 84.8673C106.254 92.1085 115.877 81.7753 106.036 83.5497L101.236 81.4247C97.7031 66.7345 70.7706 79.0675 72.6919 70.1229Z" fill="#B680AA" stroke="#B680AA"/>
<path d="M72.4092 8.31945C56.4412 21.5796 41.5001 39.8146 35.8722 64.6981L49.5739 84.0111C69.9641 77.2286 82.1049 74.8006 99.0816 66.428C101.515 65.2277 102.442 62.269 101.498 59.7246C94.5381 40.9541 100.984 22.7867 76.8248 7.98389C75.4373 7.13374 73.6611 7.27986 72.4092 8.31945Z" fill="#B680AA" stroke="#B680AA"/>
<path d="M26.8701 63.7808C32.8514 69.9833 41.5636 82.7911 53.7829 97.2255C54.1787 97.693 54.917 97.1782 54.6139 96.6473C45.3127 80.3599 36.9469 61.8139 32.0196 56.6527C27.7386 52.1686 20.3077 56.9758 26.8701 63.7808Z" fill="#5A5757" stroke="#5A5757"/>
<path d="M28.426 56.792C25.771 47.9684 25.913 34.2834 34.996 34.1074" stroke="#5A5757"/>
<path d="M27.8072 60.2014C20.2504 52.592 13.1285 40.0444 19.256 34.8273" stroke="#5A5757"/>
<path d="M73.2406 19.42C63.9668 23.1694 56.8917 33.8438 43.1627 62.4595C42.7108 63.4013 42.7779 64.5247 43.3484 65.3998C44.4249 67.051 46.7783 67.2261 48.0955 65.7597C61.7532 50.5543 70.0108 41.9573 80.0407 36.7557C81.0028 36.2567 81.7631 35.4196 82.078 34.3826C84.6278 25.9859 83.2779 22.3061 75.7847 19.4181C74.9662 19.1026 74.0538 19.0912 73.2406 19.42Z" fill="#D8A4A4" stroke="#D8A3A3"/>
<path d="M89.1808 60.8635C79.2242 63.707 69.0989 68.1802 53.3009 75.3038C51.9092 75.9313 50.2457 75.3994 49.469 74.0724C48.8099 72.9462 48.9632 71.5314 49.8399 70.5845C65.1288 54.0712 73.5951 43.783 83.0511 42.3878C85.4305 42.0368 86.9274 44.4613 87.1103 46.8516C87.3628 50.1494 89.0331 52.5512 90.9542 54.6576C92.9509 56.8468 92.0094 60.0557 89.1808 60.8635Z" fill="#D8A3A3" stroke="#D8A3A3"/>
<path d="M91.8993 85.8139C80.9371 89.6309 70.359 89.1757 54.9448 84.5804C54.0947 84.327 53.6128 83.4993 53.792 82.6132C53.9997 81.5862 55.0162 80.8404 56.0645 80.9138C71.4198 81.9901 82.3876 77.4107 88.458 78.0113C91.9195 78.3537 93.4539 80.3475 94.1337 82.0801C94.7282 83.5954 93.5731 85.2311 91.8993 85.8139Z" fill="#D4BA86" stroke="#D4BA86"/>
</svg>
