<svg width="79" height="96" viewBox="0 0 79 96" fill="none" xmlns="http://www.w3.org/2000/svg">
<path d="M27.1442 95C40.9326 90.7661 37.1458 76.5608 35.3814 59.75H45.4093C45.4093 79.1459 41.6488 92.1446 52.214 95H27.1442Z" fill="#7B5E27" stroke="#7B5E27"/>
<path d="M35.3199 67.3421C33.1731 70.1388 28.164 72.9356 23.5127 67.3421C17.7879 70.1388 12.9577 67.3421 14.21 60.3501C10.2742 62.7973 7.05406 60.3501 7.05406 56.5046C1.32932 56.5046 -0.817448 51.6102 4.19169 48.1142C-1.35414 44.2687 0.792631 37.9759 7.05406 37.9759C4.19169 33.2564 7.05406 28.5368 14.21 31.6832C10.7298 29.7006 9.74572 28.4885 10.2742 26.0896C7.05406 21.8945 12.0632 16.8253 17.7879 19.0977C16.1778 15.6017 19.398 12.805 23.5127 15.6017C21.834 13.0295 21.9026 9.65859 26.0172 9.65859C22.6182 1.26827 31.5631 -1.8781 37.8245 4.06504C41.4024 0.918671 46.7694 0.743873 46.7694 7.56101C49.4542 6.39509 51.766 8.6315 50.283 11.2309C52.0631 9.66507 54.1571 9.51579 54.9987 12.805C61.0812 11.2318 65.017 16.8253 61.0812 21.8945C66.627 17.3497 72.8885 19.7969 72.1729 26.0896C77.182 28.1872 79.6866 33.9556 72.1729 37.9759C78.4343 37.9759 79.6866 42.6955 75.7508 45.6671C77.7187 50.037 74.1408 53.1834 68.5949 51.6102C74.6774 54.2322 75.0352 59.8257 68.5949 62.7973C68.5949 67.3421 62.5124 69.09 58.5766 64.8949C58.5766 70.1388 54.9987 73.1104 48.9162 70.1388C44.2648 73.9844 36.5722 72.2364 35.3199 67.3421Z" fill="#7EAA62" stroke="#7EAA62"/>
<path d="M14.1587 47.8615C11.3801 50.4005 10.3956 52.0984 11.0013 56.2566C14.533 55.0118 16.2642 51.1071 14.1587 47.8615Z" fill="#668E4D" stroke="#668E4D"/>
<path d="M13.95 47.7344C12.8241 51.3717 12.8226 53.347 15.413 56.6061C17.8307 53.6879 17.3762 49.4241 13.95 47.7344Z" fill="#8FC46D" stroke="#8FC36D"/>
<path d="M54.066 56.6417C51.7001 58.8224 50.8619 60.2806 51.3776 63.8519C54.3848 62.7827 55.8589 59.4292 54.066 56.6417Z" fill="#668E4D" stroke="#668E4D"/>
<path d="M53.8883 56.5326C52.9297 59.6565 52.9284 61.3529 55.1341 64.152C57.1927 61.6457 56.8057 57.9837 53.8883 56.5326Z" fill="#8FC46D" stroke="#8FC36D"/>
<path d="M36.4137 8.89794C38.5903 10.9748 39.3615 12.3636 38.887 15.7648C36.1204 14.7465 34.7643 11.5527 36.4137 8.89794Z" fill="#668E4D" stroke="#668E4D"/>
<path d="M36.5772 8.79405C37.4591 11.7692 37.4603 13.3848 35.4311 16.0507C33.5371 13.6637 33.8932 10.1761 36.5772 8.79405Z" fill="#8FC46D" stroke="#8FC36D"/>
<path d="M39.2822 45.2912C42.0607 47.8302 43.0452 49.5282 42.4396 53.6863C38.9079 52.4415 37.1766 48.5368 39.2822 45.2912Z" fill="#668E4D" stroke="#668E4D"/>
<path d="M39.4909 44.7969C40.6167 48.4342 40.6183 50.4095 38.0279 53.6686C35.6102 50.7504 36.0647 46.4866 39.4909 44.7969Z" fill="#8FC46D" stroke="#8FC36D"/>
<path d="M56.2808 30.9099C58.552 33.1893 59.3568 34.7135 58.8617 38.4464C55.9748 37.3289 54.5597 33.8236 56.2808 30.9099Z" fill="#668E4D" stroke="#668E4D"/>
<path d="M56.4514 30.4662C57.3717 33.7315 57.373 35.5047 55.2555 38.4305C53.2792 35.8107 53.6508 31.983 56.4514 30.4662Z" fill="#8FC46D" stroke="#8FC36D"/>
<path d="M66.9306 47.274C69.8722 48.517 71.171 49.6259 72.044 53.3005C68.9421 53.3808 66.3628 50.6613 66.9306 47.274Z" fill="#668E4D" stroke="#668E4D"/>
<path d="M66.9449 46.7972C68.9639 49.4708 69.5969 51.1158 68.6706 54.6517C65.8998 52.9865 64.8815 49.2903 66.9449 46.7972Z" fill="#8FC46D" stroke="#8FC36D"/>
<path d="M34.8534 60.4965C31.5156 62.1444 30.123 63.4996 29.6113 67.6933C33.3323 67.5144 36.0229 64.2433 34.8534 60.4965Z" fill="#8FC36D" stroke="#8FC36D"/>
<path d="M35.4994 60.5601C33.4608 63.7316 32.9406 65.6293 34.5782 69.5056C37.6715 67.3962 38.3535 63.1685 35.4994 60.5601Z" fill="#668E4D" stroke="#668E4D"/>
<path d="M28.1038 26.2971C25.299 28.8057 24.297 30.4927 24.8594 34.6573C28.4038 33.4511 30.1755 29.5655 28.1038 26.2971Z" fill="#8FC46D" stroke="#8FC36D"/>
<path d="M28.5298 26.0659C27.2106 29.6342 27.1031 31.6064 29.5149 35.0067C32.0854 32.2291 31.8602 27.9461 28.5298 26.0659Z" fill="#668E4D" stroke="#668E4D"/>
</svg>
