<svg width="80" height="92" viewBox="0 0 80 92" fill="none" xmlns="http://www.w3.org/2000/svg">
<path d="M75.6195 74.3524L72.2599 71.8261L70.5856 70.1353L66.9664 73.7194L68.1329 74.8489L69.2542 75.9219L70.6322 78.8328C71.0976 79.5013 71.1789 79.836 71.5672 79.3741L71.0213 77.104L72.1215 77.4684L73.8844 80.7384C74.2558 81.3381 74.4413 81.4453 74.7095 81.0117L72.7496 77.8591L71.8469 75.7741L73.3921 77.7007L75.9611 80.7031L75.984 80.7214C76.5144 81.1445 76.6017 81.2141 76.6223 80.5401L72.9192 75.8943L75.1324 77.2715L76.746 79.1815C77.4819 79.9435 77.7378 78.937 77.7378 78.937L74.4935 75.8908L75.0948 75.3579L76.7169 76.8809C77.5693 77.755 77.7472 76.8735 77.2931 76.1932L75.6195 74.3524Z" fill="#FAD1B7" stroke="#FAD1B7"/>
<path d="M10.5837 51.3501C11.0299 52.7589 11.895 54.2461 11.4677 55.3594L12.7146 56.0561L9.97228 59.2562L8.56147 58.1976C6.18181 57.5191 5.64468 57.3831 3.06345 57.4072C3.06345 57.4072 1.73714 57.1447 2.89713 56.7547C4.05713 56.3646 8.12462 56.4837 8.12462 56.4837L1.80149 54.8908C1.80149 54.8908 0.86653 54.5746 1.62165 54.1852C2.37677 53.7958 7.88685 55.5508 7.88685 55.5508L2.81512 52.4294C2.30956 50.9631 2.31235 51.2023 3.60888 51.3744L8.82647 54.7608L4.41372 50.0664C4.41372 50.0664 4.29951 48.7857 5.54639 49.4823C6.79328 50.1789 8.88418 53.0621 8.88418 53.0621L9.17284 50.2915C9.73953 48.6737 10.8471 49.8747 10.5837 51.3501Z" fill="#FAD1B7" stroke="#FAD1B7"/>
<path d="M33.9895 50.1597H47.4767L49.7198 54.0081C44.3484 56.1798 40.8211 56.9728 32.6412 54.0081L33.9895 50.1597Z" fill="#FAD1B7"/>
<path d="M33.7431 50.1597C35.5011 52.007 37.9396 53.0527 40.4897 53.0527H42.5201C44.884 53.0527 47.1227 51.9906 48.618 50.1597H33.7431Z" fill="#D5B48E"/>
<path d="M62.1966 31.645C65.9882 48.7133 50.53 51.0276 40.6134 51.0276C23.4052 51.0276 19.0302 41.9782 19.0302 33.6701C19.0302 25.3619 28.6933 16.6018 40.6134 16.6018C52.5335 16.6018 62.1966 23.3369 62.1966 31.645Z" fill="#FAD1B7"/>
<ellipse cx="33.6134" cy="35.6951" rx="2.33332" ry="2.31434" fill="#393535"/>
<ellipse cx="34.4884" cy="35.4058" rx="0.874994" ry="0.867878" fill="#E5E5E5"/>
<ellipse cx="48.78" cy="35.6951" rx="2.33332" ry="2.31434" fill="#393535"/>
<ellipse cx="49.655" cy="35.4058" rx="0.874994" ry="0.867878" fill="#E5E5E5"/>
<path d="M43.2384 39.6385C42.655 37.3242 40.6134 37.6135 40.0301 39.6385" stroke="#5A402D"/>
<path d="M29.5301 33.3808C30.5538 32.0931 31.2757 31.5311 33.6134 31.6641" stroke="#4B3A2E"/>
<path d="M52.28 33.3808C51.4025 32.0931 50.7838 31.5311 48.78 31.6641" stroke="#4B3A2E"/>
<g filter="url(#filter0_f)">
<ellipse cx="32.7384" cy="40.0345" rx="3.20831" ry="0.867878" fill="#E1D6D6"/>
<ellipse cx="32.7384" cy="40.0345" rx="3.20831" ry="0.867878" fill="#A05B5B"/>
<ellipse cx="32.7384" cy="40.0345" rx="3.20831" ry="0.867878" fill="#CA7E7E"/>
</g>
<g filter="url(#filter1_f)">
<ellipse cx="49.0717" cy="40.0345" rx="3.20831" ry="0.867878" fill="#E1D6D6"/>
<ellipse cx="49.0717" cy="40.0345" rx="3.20831" ry="0.867878" fill="#FBFBFB"/>
<ellipse cx="49.0717" cy="40.0345" rx="3.20831" ry="0.867878" fill="#D09286"/>
</g>
<path d="M21.9469 38.588C21.9469 40.6651 20.641 42.3488 19.0302 42.3488C17.4194 42.3488 16.1136 40.6651 16.1136 38.588C16.1136 36.511 16.2527 35.1165 17.8635 35.1165C19.4744 35.1165 21.9469 36.511 21.9469 38.588Z" fill="#FAD1B7"/>
<path d="M20.1969 39.1818C20.1969 40.0421 19.9598 40.4722 19.2598 40.9024C18.3264 40.9024 18.3264 39.929 18.3264 39.4538C18.3264 38.9787 18.8732 38.3215 19.2598 38.3215C19.6464 38.3215 20.1969 38.7066 20.1969 39.1818Z" fill="#A2896C"/>
<path d="M19.9635 39.3969C19.9635 39.3969 19.0302 34.6652 17.8636 38.1064" stroke="#A2896C"/>
<path d="M59.8633 38.1483C59.8633 40.3084 61.1691 42.0596 62.7799 42.0596C64.3908 42.0596 65.6966 40.3084 65.6966 38.1483C65.6966 35.9882 65.5574 34.5379 63.9466 34.5379C62.3358 34.5379 59.8633 35.9882 59.8633 38.1483Z" fill="#FAD1B7"/>
<path d="M61.6133 39.1818C61.6133 40.0421 61.9097 40.4722 62.7847 40.9024C63.9513 40.9024 63.9513 39.929 63.9513 39.4538C63.9513 38.9787 63.2679 38.3215 62.7847 38.3215C62.3014 38.3215 61.6133 38.7067 61.6133 39.1818Z" fill="#A3896C"/>
<path d="M61.9049 39.3969C61.9049 39.3969 63.0716 34.6652 64.5299 38.1064" stroke="#A2896C"/>
<path d="M38.475 44.6979C40.4469 45.2431 42.5298 45.2431 44.5017 44.6979L46.4467 42.0596H36.5301L38.475 44.6979Z" fill="#913E1C"/>
<path d="M44.6967 44.3739C44.6967 44.6934 43.9837 45.5311 41.4884 45.5311C38.993 45.5311 38.2801 44.6934 38.2801 44.3739C38.2801 44.0544 39.7165 43.7953 41.4884 43.7953C43.2603 43.7953 44.6967 44.0544 44.6967 44.3739Z" fill="#D64A38"/>
<path d="M37.1134 42.0596C37.9823 42.8062 39.0899 43.2167 40.2355 43.2167H42.0803C43.2231 43.2167 44.3314 42.8252 45.2207 42.1074L45.28 42.0596H37.1134Z" fill="#C4C4C4"/>
<path d="M13.4546 63.5074C20.9614 58.5352 23.2777 49.814 33.6587 52.5038C53.1398 61.5512 41.9391 56.3914 47.6643 52.5038C60.2123 50.7921 67.9116 64.5689 72 69.1314C70.7375 71.9027 70.0354 71.3348 67.2849 72.0657L57.4619 64.6491V74.4544C44.2712 75.1624 38.8258 75.2011 25.6352 74.4544V64.6491L17.3562 70.2647C11.0695 67.3304 13.4291 65.8712 13.4546 63.5074Z" fill="#B0C1CD" stroke="#B0C1CD"/>
<path d="M13.0441 54.4154L19.4483 58.6719L19.9442 68.5019C19.9063 69.906 15.4458 71.5525 14.2065 70.5299L4.03564 66.4599L13.0441 54.4154Z" fill="#B0C1CD" stroke="#B0C1CD"/>
<path d="M25 73.5388V65.1265C25 64.8503 25.2239 64.6265 25.5 64.6265H26.4512C26.5376 64.6265 26.6224 64.6041 26.6976 64.5615L48.6521 52.1287C48.7128 52.0944 48.7808 52.0729 48.8502 52.0665C57.9294 51.2315 65.2179 58.3198 74.6816 69.8842C74.8565 70.0978 74.8266 70.4154 74.6127 70.5899L63.5989 79.5762C63.3397 79.7876 62.9501 79.69 62.8213 79.3813L58.4118 68.8132C58.2014 68.3089 57.4503 68.4593 57.4503 69.0057V73.5388C57.4503 73.815 57.2265 74.0388 56.9503 74.0388H25.5C25.2239 74.0388 25 73.815 25 73.5388Z" fill="#7B5E27" stroke="#7B5E27"/>
<path d="M25.0375 64.4805L49 52C50.5787 51.2128 51.6391 51.146 53.7957 51.9249C53.876 51.9539 53.8843 52.0638 53.8095 52.1051L25.1178 67.935C25.0591 67.9674 24.9858 67.9339 24.9719 67.8684C24.702 66.596 24.6072 65.8382 24.9879 64.541C24.9955 64.5151 25.0135 64.493 25.0375 64.4805Z" fill="#D5B48E" stroke="#D5B48E"/>
<path d="M21.2278 87.8117L24.2957 71.8117C24.386 71.3406 24.7982 71 25.2778 71H56.2261C56.6954 71 57.1015 71.3263 57.2026 71.7846L60.7319 87.7846C60.8696 88.4087 60.3945 89 59.7554 89H22.21C21.5822 89 21.1096 88.4283 21.2278 87.8117Z" fill="#7B5E27" stroke="#7B5E27"/>
<path d="M5 67L14 56" stroke="#89A5B9" stroke-width="0.3"/>
<path d="M15 56L8 68" stroke="#89A5B9" stroke-width="0.3"/>
<path d="M10 69L16 57" stroke="#89A5B9" stroke-width="0.3"/>
<path d="M17 58L13 69" stroke="#89A5B9" stroke-width="0.3"/>
<path d="M16 71L18 58" stroke="#89A5B9" stroke-width="0.3"/>
<path d="M20 57V68" stroke="#89A5B9" stroke-width="0.3"/>
<path d="M22 67V56" stroke="#89A5B9" stroke-width="0.3"/>
<path d="M25 53V64" stroke="#89A5B9" stroke-width="0.3"/>
<path d="M27 53V63" stroke="#89A5B9" stroke-width="0.3"/>
<path d="M32 52V60" stroke="#89A5B9" stroke-width="0.3"/>
<path d="M29 52V62" stroke="#89A5B9" stroke-width="0.3"/>
<path d="M34 52V59" stroke="#89A5B9" stroke-width="0.3"/>
<path d="M36 53V58" stroke="#89A5B9" stroke-width="0.3"/>
<path d="M38 53V57" stroke="#89A5B9" stroke-width="0.3"/>
<path d="M39 54V56" stroke="#89A5B9" stroke-width="0.3"/>
<path d="M39.9051 91.2193H31.0985C30.5462 91.2193 30.0985 90.7716 30.0985 90.2193V87.1456C30.0985 86.9128 30.1825 86.6829 30.3332 86.5055C34.8043 81.2412 37.0124 82.6929 40.6312 86.4961C40.8069 86.6808 40.9051 86.9275 40.9051 87.1824V90.2193C40.9051 90.7716 40.4573 91.2193 39.9051 91.2193Z" fill="#393535" stroke="#393535"/>
<path d="M32.8845 85.6343C32.9892 85.4412 33.153 85.2849 33.3549 85.1982C34.9749 84.5026 36.0075 84.5844 37.6209 85.2035C37.8395 85.2874 38.0188 85.4495 38.1304 85.6554C38.4959 86.3295 38.0077 87.1493 37.2409 87.1493H33.7865C33.0089 87.1493 32.514 86.318 32.8845 85.6343Z" fill="#B89C7B"/>
<path d="M53.2543 91.2193H44.4478C43.8955 91.2193 43.4478 90.7716 43.4478 90.2193V87.1456C43.4478 86.9128 43.5318 86.6829 43.6825 86.5055C48.1535 81.2412 50.3617 82.6929 53.9804 86.4961C54.1562 86.6808 54.2543 86.9275 54.2543 87.1824V90.2193C54.2543 90.7716 53.8066 91.2193 53.2543 91.2193Z" fill="#393535" stroke="#393535"/>
<path d="M46.2338 85.6343C46.3385 85.4412 46.5023 85.2849 46.7042 85.1982C48.3242 84.5026 49.3568 84.5844 50.9702 85.2035C51.1888 85.2874 51.3681 85.4495 51.4797 85.6554C51.8451 86.3295 51.357 87.1493 50.5902 87.1493H47.1358C46.3582 87.1493 45.8632 86.318 46.2338 85.6343Z" fill="#B89C7B"/>
<path d="M20.1528 11L16 31L27.9859 24.9346L49.3662 24.0248L62 31L58.1667 11C47.9444 -2.57149 29.8917 -2.09301 20.1528 11Z" fill="#51401F" stroke="#51401F"/>
<path d="M14.4077 29.7326L21.3304 23.2406C22.223 22.4035 23.3916 21.9228 24.6149 21.8896L55.0842 21.062C56.534 21.0226 57.9294 21.6146 58.9085 22.6845L65.9226 30.3486C67.7046 32.2958 66.6606 35.4429 64.0681 35.939C62.671 36.2064 61.2564 35.5686 60.5316 34.3446L58.819 31.4524C57.9189 29.9323 56.2834 29 54.5167 29H27.7919C26.3488 29 24.9761 29.6235 24.0266 30.7103L20.0889 35.2172C19.1299 36.3148 17.6447 36.7957 16.2243 36.4685C13.1422 35.7583 12.1006 31.8962 14.4077 29.7326Z" fill="#B8AE77" stroke="#B8AE77"/>
<path d="M13.5376 28.1976L17.228 32.3922C17.3648 32.5477 17.4798 32.7211 17.5697 32.9075C18.5613 34.9621 16.2419 36.9824 14.3468 35.7147L9.7093 32.6123C7.98874 31.4613 7.90599 28.9615 9.54821 27.7461C10.7784 26.8356 12.512 27.0318 13.5376 28.1976Z" fill="#B8AE77" stroke="#B8AE77"/>
<path d="M66.2667 27.2197L63.215 29.7054C62.6578 30.1593 62.2717 30.7906 62.1225 31.492C61.5585 34.1437 64.4078 36.1508 66.7216 34.7316L70.0732 32.6759C72.1447 31.4054 72.2672 28.4386 70.3051 27.0572C69.0869 26.1995 67.4377 26.2659 66.2667 27.2197Z" fill="#B8AE77" stroke="#B8AE77"/>
<path d="M21.1316 41.678L20.0109 36.4033C20.0041 36.3712 20.0135 36.3378 20.036 36.3139L25.6395 30.3817C25.7152 30.3015 25.846 30.3851 25.805 30.4875L21.3223 41.6944C21.2855 41.7861 21.1521 41.7747 21.1316 41.678Z" fill="#4B3A2E" stroke="#4B3A2E"/>
<path d="M54.7514 39.7514L45.1707 30.1707C45.1077 30.1077 45.1523 30 45.2414 30H52.5679C52.6143 30 52.6546 30.0319 52.6652 30.0771L54.9195 39.6578C54.9426 39.7558 54.8226 39.8226 54.7514 39.7514Z" fill="#4B3A2E" stroke="#4B3A2E"/>
<path d="M60 41.6697V35.608C60 35.5906 59.9954 35.5734 59.9868 35.5583L56.8288 30.0503C56.811 30.0192 56.7779 30 56.7421 30H52.1869C52.107 30 52.0593 30.089 52.1036 30.1555L59.8168 41.7252C59.8717 41.8075 60 41.7687 60 41.6697Z" fill="#4B3A2E" stroke="#4B3A2E"/>
<defs>
<filter id="filter0_f" x="25.5301" y="35.1666" width="14.4166" height="9.73576" filterUnits="userSpaceOnUse" color-interpolation-filters="sRGB">
<feFlood flood-opacity="0" result="BackgroundImageFix"/>
<feBlend mode="normal" in="SourceGraphic" in2="BackgroundImageFix" result="shape"/>
<feGaussianBlur stdDeviation="2" result="effect1_foregroundBlur"/>
</filter>
<filter id="filter1_f" x="41.8634" y="35.1666" width="14.4166" height="9.73576" filterUnits="userSpaceOnUse" color-interpolation-filters="sRGB">
<feFlood flood-opacity="0" result="BackgroundImageFix"/>
<feBlend mode="normal" in="SourceGraphic" in2="BackgroundImageFix" result="shape"/>
<feGaussianBlur stdDeviation="2" result="effect1_foregroundBlur"/>
</filter>
</defs>
</svg>
