<svg width="65" height="83" viewBox="0 0 65 83" fill="none" xmlns="http://www.w3.org/2000/svg">
<path d="M5.04002 61.1414L7.49875 59.3929L8.74052 58.2128L11.149 60.8379L10.2858 61.6254L9.45639 62.3733L8.37659 64.431C8.02383 64.901 7.95393 65.1389 7.69841 64.802L8.16879 63.1881L7.38124 63.4297L6.01704 65.7375C5.73304 66.1599 5.59849 66.2333 5.42637 65.9187L6.92466 63.6982L7.63883 62.223L6.47889 63.5739L4.55803 65.6765L4.54123 65.6891C4.15215 65.9825 4.0881 66.0308 4.09926 65.5485L6.88022 62.2905L5.2714 63.2371L4.06403 64.575C3.51753 65.1071 3.37588 64.383 3.37588 64.383L5.77325 62.2608L5.37071 61.8694L4.17205 62.9304C3.53935 63.5407 3.44783 62.9074 3.79304 62.4287L5.04002 61.1414Z" fill="#FAD1B7" stroke="#FAD1B7"/>
<ellipse cx="53" cy="20.5" rx="9" ry="10.5" fill="#4B3A2E"/>
<ellipse cx="8.5" cy="20.5" rx="8.5" ry="10.5" fill="#4B3A2E"/>
<path d="M27.3549 40.1535H35.3912L36.7278 44.165C33.5273 46.4288 31.4255 47.2554 26.5515 44.165L27.3549 40.1535Z" fill="#FAD1B7"/>
<path d="M27.3255 40.5634C28.2212 42.104 29.8688 43.0519 31.6509 43.0519C33.5475 43.0519 35.2811 41.9795 36.1279 40.2824L36.1922 40.1535H27.0871L27.3255 40.5634Z" fill="#D5B48E"/>
<path d="M50.6533 21.6037C54.1346 38.7043 39.9414 41.023 30.8363 41.023C15.0363 41.023 11.0193 31.9565 11.0193 23.6326C11.0193 15.3087 19.8917 6.53194 30.8363 6.53194C41.7809 6.53194 50.6533 13.2798 50.6533 21.6037Z" fill="#FAD1B7"/>
<path d="M33.2465 29.6124C32.7109 27.2936 30.8363 27.5835 30.3007 29.6124" stroke="#5A402D"/>
<path d="M20.5555 22.3413C21.4954 21.0512 22.1582 20.4881 24.3047 20.6213" stroke="#4B3A2E"/>
<path d="M41.5351 22.3413C40.7295 21.0512 40.1613 20.4881 38.3215 20.6213" stroke="#4B3A2E"/>
<g filter="url(#filter0_f)">
<ellipse cx="23.6058" cy="30.0091" rx="2.94577" ry="0.869524" fill="#E1D6D6"/>
<ellipse cx="23.6058" cy="30.0091" rx="2.94577" ry="0.869524" fill="#A05B5B"/>
<ellipse cx="23.6058" cy="30.0091" rx="2.94577" ry="0.869524" fill="#CA7E7E"/>
</g>
<g filter="url(#filter1_f)">
<ellipse cx="38.6024" cy="30.0091" rx="2.94577" ry="0.869524" fill="#E1D6D6"/>
<ellipse cx="38.6024" cy="30.0091" rx="2.94577" ry="0.869524" fill="#FBFBFB"/>
<ellipse cx="38.6024" cy="30.0091" rx="2.94577" ry="0.869524" fill="#D09286"/>
</g>
<ellipse cx="24.4092" cy="25.6615" rx="2.14238" ry="2.31873" fill="#393535"/>
<ellipse cx="25.2126" cy="25.3716" rx="0.803391" ry="0.869524" fill="#E5E5E5"/>
<path d="M23.2694 24.2952L21.8161 23.1605" stroke="#393535" stroke-width="0.5"/>
<path d="M22.7763 25.7187L21.1107 25.0792" stroke="#393535" stroke-width="0.5"/>
<path d="M13.6973 28.5599C13.6973 30.6408 12.4983 32.3278 11.0193 32.3278C9.54032 32.3278 8.34135 30.6408 8.34135 28.5599C8.34135 26.4789 8.46913 25.0818 9.94814 25.0818C11.4271 25.0818 13.6973 26.4789 13.6973 28.5599Z" fill="#FAD1B7"/>
<path d="M12.0905 29.1547C12.0905 30.0167 11.8728 30.4476 11.2301 30.8786C10.3732 30.8786 10.3732 29.9033 10.3732 29.4273C10.3732 28.9513 10.8751 28.2928 11.2301 28.2928C11.5851 28.2928 12.0905 28.6787 12.0905 29.1547Z" fill="#A2896C"/>
<path d="M11.8763 29.3702C11.8763 29.3702 11.0193 24.6296 9.94814 28.0773" stroke="#A2896C"/>
<path d="M48.5109 28.1193C48.5109 30.2835 49.7099 32.038 51.1889 32.038C52.6679 32.038 53.8668 30.2835 53.8668 28.1193C53.8668 25.9551 53.739 24.5021 52.26 24.5021C50.781 24.5021 48.5109 25.9551 48.5109 28.1193Z" fill="#FAD1B7"/>
<path d="M50.1177 29.1547C50.1177 30.0167 50.3898 30.4476 51.1932 30.8786C52.2644 30.8786 52.2644 29.9033 52.2644 29.4273C52.2644 28.9513 51.6369 28.2928 51.1932 28.2928C50.7495 28.2928 50.1177 28.6787 50.1177 29.1547Z" fill="#A3896C"/>
<path d="M50.3855 29.3702C50.3855 29.3702 51.4567 24.6296 52.7956 28.0773" stroke="#A2896C"/>
<path d="M28.8729 34.6813C30.6773 35.2257 32.6021 35.2257 34.4064 34.6813L36.1922 32.038H27.0871L28.8729 34.6813Z" fill="#913E1C"/>
<path d="M34.5855 34.3567C34.5855 34.6769 33.9308 35.5161 31.6397 35.5161C29.3485 35.5161 28.6939 34.6769 28.6939 34.3567C28.6939 34.0366 30.0128 33.777 31.6397 33.777C33.2666 33.777 34.5855 34.0366 34.5855 34.3567Z" fill="#D64A38"/>
<path d="M27.6227 32.038C28.4171 32.7828 29.4652 33.1973 30.5541 33.1973H32.0507C33.1811 33.1973 34.2727 32.7851 35.121 32.038H27.6227Z" fill="#C4C4C4"/>
<ellipse cx="38.3346" cy="25.6615" rx="2.14238" ry="2.31873" fill="#393535"/>
<ellipse cx="39.138" cy="25.3716" rx="0.803391" ry="0.869524" fill="#E5E5E5"/>
<path d="M39.9871 25.0792L41.6527 24.4396" stroke="#453B3B" stroke-width="0.5"/>
<path d="M39.7428 24.7648L40.8119 23.1605" stroke="#453B3B" stroke-width="0.5"/>
<g filter="url(#filter2_f)">
<ellipse cx="22.7763" cy="30.8352" rx="4.44151" ry="1.27912" fill="#E1D6D6"/>
<ellipse cx="22.7763" cy="30.8352" rx="4.44151" ry="1.27912" fill="#A05B5B"/>
<ellipse cx="22.7763" cy="30.8352" rx="4.44151" ry="1.27912" fill="#CA7E7E"/>
</g>
<g filter="url(#filter3_f)">
<ellipse cx="38.8767" cy="30.1957" rx="3.88632" ry="1.91868" fill="#E1D6D6"/>
<ellipse cx="38.8767" cy="30.1957" rx="3.88632" ry="1.91868" fill="#A05B5B"/>
<ellipse cx="38.8767" cy="30.1957" rx="3.88632" ry="1.91868" fill="#CA7E7E"/>
</g>
<path d="M29.3195 0C49.686 1.29051e-05 55.8168 12.3077 51.8704 24L43.9776 17.8461L42.85 14.7692L41.1587 17.8461L10.715 24C7.33237 9.23078 16.3527 -8.21626e-06 29.3195 0Z" fill="#4B3A2E"/>
<path d="M53.6456 53.5067C47.7928 48.967 45.9869 41.0041 37.8932 43.46C22.7046 51.7207 31.4373 47.0095 26.9736 43.46C17.1904 41.8972 11.1876 54.4759 8 58.6417C8.98431 61.172 9.53173 60.6535 11.6762 61.3209L19.3348 54.5492V63.5018C29.6191 64.1483 33.8646 64.1836 44.1488 63.5018V54.5492L50.6036 59.6765C55.5052 56.9973 53.6654 55.665 53.6456 53.5067Z" fill="#C6A783" stroke="#C7A781"/>
<path d="M36.1535 42.3473L43.8734 46.1846L36.1535 54.6718L25.4237 51.9136L36.1535 42.3473Z" fill="#C4C4C4"/>
<path d="M18 62.5V54.9286C18 54.6524 18.2239 54.4286 18.5 54.4286H19.2807C19.3684 54.4286 19.4546 54.4055 19.5306 54.3616L39.0825 43.0791C39.1717 43.0276 39.2745 43.0049 39.3771 43.0141L45.1788 43.5349C45.4154 43.5562 45.6044 43.741 45.631 43.977L47 56.1429V62.5C47 62.7761 46.7761 63 46.5 63H18.5C18.2239 63 18 62.7761 18 62.5Z" fill="#A05B5B" stroke="#A05B5B"/>
<path d="M18 44.7148V54.4C18 54.7314 18.2686 55 18.6 55H19.1145C19.2353 55 19.3534 54.9635 19.4531 54.8953L30.3174 47.4667C30.6542 47.2365 30.6679 46.7446 30.3446 46.4958L26.0034 43.1565C25.8735 43.0565 25.7084 43.0141 25.5464 43.039L18.5088 44.1217C18.2161 44.1668 18 44.4186 18 44.7148Z" fill="#A05B5B" stroke="#A05B5B"/>
<path d="M30.9207 45.4963L27.2597 42.0274C27.2411 42.0098 27.2165 42 27.1909 42H24.2547C24.1638 42 24.12 42.1114 24.1866 42.1733L29.3182 46.9383C29.3559 46.9733 29.414 46.974 29.4525 46.94L30.9182 45.6438C30.9621 45.6049 30.9633 45.5367 30.9207 45.4963Z" fill="#D5B48E" stroke="#D5B48E" stroke-width="0.5"/>
<path d="M18.0477 53.536L36.824 42.0203C36.8453 42.0073 36.8708 42.0026 36.8953 42.0074L39.7462 42.5595C39.8359 42.5769 39.8572 42.6956 39.7791 42.7431L18.152 55.9075C18.0854 55.948 18 55.9001 18 55.8221V53.6212C18 53.5864 18.0181 53.5541 18.0477 53.536Z" fill="#D5B48E" stroke="#D5B48E"/>
<path d="M16.1454 76.8722L17.9501 62.8722C18.0144 62.3734 18.439 62 18.9419 62H45.3173C45.802 62 46.217 62.3477 46.3018 62.8249L48.7911 76.8249C48.9 77.4377 48.4288 78 47.8065 78H17.1372C16.5341 78 16.0683 77.4702 16.1454 76.8722Z" fill="#C17676" stroke="#CA7E7E"/>
<path d="M45.7894 58.3363H18.6396L16.114 71.767H47.6836L45.7894 58.3363Z" fill="#715C5C"/>
<path d="M34.4243 67.9297H46.3094" stroke="#913E1C"/>
<path d="M47.0522 68.5692H34.4243" stroke="#533B7A"/>
<path d="M34.4243 65.3714H46.3094V66.011" stroke="#715C5C"/>
<path d="M34.4243 66.6506H46.3094V67.2901" stroke="#EAAF3E"/>
<path d="M34.4243 69.2088H47.0522" stroke="#7B5E27"/>
<path d="M34.4243 70.4879H47.0522" stroke="#3D6230" stroke-opacity="0.9"/>
<path d="M36.9499 67.9296H28.6304" stroke="#913E1C"/>
<path d="M28.1104 67.2901H36.9499" stroke="#533B7A"/>
<path d="M36.9499 70.4879H28.6304V69.8483" stroke="#715C5C"/>
<path d="M36.9499 69.2088H28.6304V68.5692" stroke="#EAAF3E"/>
<path d="M36.9499 66.6505H28.1104" stroke="#7B5E27"/>
<path d="M36.9499 65.3714H28.1104" stroke="#3D6230" stroke-opacity="0.9"/>
<path d="M35.6871 61.5341H45.7894" stroke="#913E1C"/>
<path d="M46.4208 62.1736H35.6871" stroke="#533B7A"/>
<path d="M35.6871 58.9758H45.7894V59.6154" stroke="#715C5C"/>
<path d="M35.6871 60.255H45.7894V60.8945" stroke="#EAAF3E"/>
<path d="M35.6871 62.8132H46.4208" stroke="#7B5E27"/>
<path d="M35.6871 64.0923H46.4208" stroke="#3D6230" stroke-opacity="0.9"/>
<path d="M16.7454 67.9297H28.6304" stroke="#913E1C"/>
<path d="M29.3732 68.5692H16.7454" stroke="#533B7A"/>
<path d="M16.7454 65.3714H28.6304V66.011" stroke="#715C5C"/>
<path d="M16.7454 66.6506H28.6304V67.2901" stroke="#EAAF3E"/>
<path d="M16.7454 69.2088H29.3732" stroke="#7B5E27"/>
<path d="M16.7454 70.4879H29.3732" stroke="#3D6230" stroke-opacity="0.9"/>
<path d="M18.0082 61.5341H28.1104" stroke="#913E1C"/>
<path d="M28.7418 62.1736H18.0082" stroke="#533B7A"/>
<path d="M18.0082 58.9758H28.1104V59.6154" stroke="#715C5C"/>
<path d="M18.0082 60.255H28.1104V60.8945" stroke="#EAAF3E"/>
<path d="M18.0082 62.8132H28.7418" stroke="#7B5E27"/>
<path d="M18.0082 64.0923H28.7418" stroke="#3D6230" stroke-opacity="0.9"/>
<path d="M28.1104 61.5341H36.4299" stroke="#913E1C"/>
<path d="M36.9499 60.8945H28.1104" stroke="#533B7A"/>
<path d="M28.1104 64.0923H36.4299V63.4528" stroke="#715C5C"/>
<path d="M28.1104 62.8132H36.4299V62.1736" stroke="#EAAF3E"/>
<path d="M28.1104 60.255H36.9499" stroke="#7B5E27"/>
<path d="M28.1104 58.9758H36.9499" stroke="#3D6230" stroke-opacity="0.9"/>
<path d="M45.7894 58.3363L48.315 71.767" stroke="#715C5C"/>
<path d="M18.6396 58.3363L16.114 71.767" stroke="#715C5C" stroke-width="0.9"/>
<path d="M18.6396 58.3363L16.114 71.767" stroke="#715C5C" stroke-width="0.9"/>
<path d="M18.6396 58.3363L16.114 71.767" stroke="#715C5C" stroke-width="0.9"/>
<path d="M18.6396 58.3363L16.114 71.767" stroke="#715C5C" stroke-width="0.9"/>
<path d="M18.6396 58.3363L16.114 71.767" stroke="#715C5C" stroke-width="0.9"/>
<path d="M28.7418 58.3363V71.767" stroke="#715C5C" stroke-width="1.1"/>
<path d="M36.9499 58.3363V71.767" stroke="#715C5C"/>
<path d="M29.5489 82H23.7763C23.224 82 22.7763 81.5523 22.7763 81V78.8524C22.7763 78.6344 22.8491 78.4188 22.9835 78.2471C26.1544 74.194 27.7403 75.2992 30.3051 78.2354C30.4629 78.416 30.5489 78.6483 30.5489 78.888V81C30.5489 81.5523 30.1012 82 29.5489 82Z" fill="#523E18" stroke="#523E18"/>
<path d="M24.7759 77.6204C24.854 77.4631 24.9799 77.3335 25.1391 77.2595C26.2843 76.7273 27.0227 76.7889 28.1623 77.2632C28.3355 77.3353 28.4747 77.4702 28.5582 77.6383C28.8239 78.1739 28.4343 78.8022 27.8364 78.8022H25.5088C24.9017 78.8022 24.5061 78.1642 24.7759 77.6204Z" fill="#B89C7B"/>
<path d="M40.6527 82H34.88C34.3278 82 33.88 81.5523 33.88 81V78.8524C33.88 78.6344 33.9529 78.4188 34.0873 78.2471C37.2581 74.194 38.8441 75.2992 41.4089 78.2354C41.5666 78.416 41.6527 78.6483 41.6527 78.888V81C41.6527 81.5523 41.205 82 40.6527 82Z" fill="#523E18" stroke="#523E18"/>
<path d="M35.8797 77.6204C35.9577 77.4631 36.0837 77.3335 36.2429 77.2595C37.3881 76.7273 38.1264 76.7889 39.266 77.2632C39.4393 77.3353 39.5785 77.4702 39.6619 77.6383C39.9277 78.1739 39.5381 78.8022 38.9402 78.8022H36.6126C36.0054 78.8022 35.6098 78.1642 35.8797 77.6204Z" fill="#B89C7B"/>
<path d="M57.0059 41.7175C56.8408 43.1097 56.3706 44.6733 56.8257 45.5873L55.9736 46.5206L58.4184 48.7865L59.35 47.4837C61.0548 46.2966 61.4417 46.0443 63.3826 45.4503C63.3826 45.4503 64.3467 44.8942 63.4287 44.8151C62.5108 44.736 59.4713 45.8154 59.4713 45.8154L64.0266 42.8527C64.0266 42.8527 64.6904 42.341 64.0765 42.1659C63.4626 41.9908 59.5373 44.9073 59.5373 44.9073L62.9687 40.8485C63.1715 39.3897 63.1982 39.6087 62.2455 40.0752L58.7366 44.4106L61.4835 39.0736C61.4835 39.0736 61.4148 37.8776 60.5627 38.8109C59.7105 39.7442 58.4884 42.8743 58.4884 42.8743L57.9375 40.4148C57.317 39.0737 56.6303 40.434 57.0059 41.7175Z" fill="#FAD1B7" stroke="#FAD1B7"/>
<path d="M55.8753 45.9669L51.094 50.0028L50.5357 58.9758C50.5357 60.255 53.2351 59.5322 54.1643 58.5699L59.1045 48.553L55.8753 45.9669Z" fill="#C6A783" stroke="#C6A783"/>
<defs>
<filter id="filter0_f" x="16.66" y="25.1396" width="13.8915" height="9.73905" filterUnits="userSpaceOnUse" color-interpolation-filters="sRGB">
<feFlood flood-opacity="0" result="BackgroundImageFix"/>
<feBlend mode="normal" in="SourceGraphic" in2="BackgroundImageFix" result="shape"/>
<feGaussianBlur stdDeviation="2" result="effect1_foregroundBlur"/>
</filter>
<filter id="filter1_f" x="31.6566" y="25.1396" width="13.8915" height="9.73905" filterUnits="userSpaceOnUse" color-interpolation-filters="sRGB">
<feFlood flood-opacity="0" result="BackgroundImageFix"/>
<feBlend mode="normal" in="SourceGraphic" in2="BackgroundImageFix" result="shape"/>
<feGaussianBlur stdDeviation="2" result="effect1_foregroundBlur"/>
</filter>
<filter id="filter2_f" x="14.3347" y="25.5561" width="16.883" height="10.5582" filterUnits="userSpaceOnUse" color-interpolation-filters="sRGB">
<feFlood flood-opacity="0" result="BackgroundImageFix"/>
<feBlend mode="normal" in="SourceGraphic" in2="BackgroundImageFix" result="shape"/>
<feGaussianBlur stdDeviation="2" result="effect1_foregroundBlur"/>
</filter>
<filter id="filter3_f" x="30.9904" y="24.277" width="15.7726" height="11.8374" filterUnits="userSpaceOnUse" color-interpolation-filters="sRGB">
<feFlood flood-opacity="0" result="BackgroundImageFix"/>
<feBlend mode="normal" in="SourceGraphic" in2="BackgroundImageFix" result="shape"/>
<feGaussianBlur stdDeviation="2" result="effect1_foregroundBlur"/>
</filter>
</defs>
</svg>
