<svg width="261" height="118" viewBox="0 0 261 118" fill="none" xmlns="http://www.w3.org/2000/svg">
<path d="M41.0221 46.628C38.4819 44.5344 34.6413 46.2343 34.4828 49.5223L33.7424 64.8875C33.6767 66.2506 32.9206 67.4861 31.7368 68.1649L19.526 75.1673C16.4207 76.948 17.0386 81.5984 20.5011 82.5064L33.2833 85.8584C34.7669 86.2475 35.8974 87.4506 36.1935 88.9554L39.0725 103.59C39.7368 106.967 44.0723 107.984 46.1691 105.255L55.4554 93.169C56.2877 92.0858 57.6152 91.5023 58.976 91.6214L74.3464 92.9669C77.7444 93.2643 79.9317 89.4453 77.9557 86.6649L69.2167 74.3683C68.3508 73.1498 68.2365 71.5501 68.9205 70.2209L74.917 58.5678C76.5448 55.4044 73.5424 51.8493 70.1512 52.9247L56.7071 57.1879C55.4139 57.598 54.001 57.3246 52.954 56.4618L41.0221 46.628Z" fill="#DEC543"/>
<path d="M219.72 46.628C222.26 44.5344 226.101 46.2343 226.259 49.5223L227 64.8875C227.066 66.2506 227.822 67.4861 229.005 68.1649L241.216 75.1673C244.321 76.948 243.704 81.5984 240.241 82.5064L227.459 85.8584C225.975 86.2475 224.845 87.4506 224.549 88.9554L221.67 103.59C221.005 106.967 216.67 107.984 214.573 105.255L205.287 93.169C204.454 92.0858 203.127 91.5023 201.766 91.6214L186.396 92.9669C182.998 93.2643 180.811 89.4453 182.786 86.6649L191.525 74.3683C192.391 73.1498 192.506 71.5501 191.822 70.2209L185.825 58.5678C184.197 55.4044 187.2 51.8493 190.591 52.9247L204.035 57.1879C205.328 57.598 206.741 57.3246 207.788 56.4618L219.72 46.628Z" fill="#DEC543"/>
<path d="M123.603 10.7625C125.823 6.33626 132.146 6.35206 134.343 10.7894L143.737 29.759C144.648 31.5969 146.433 32.8425 148.473 33.0619L167.505 35.1094C172.833 35.6825 174.794 42.421 170.606 45.7641L156.536 56.9957C154.746 58.425 153.925 60.7493 154.422 62.9859L158.874 83.0252C159.994 88.0682 154.641 92.0752 150.118 89.5799L131.898 79.5285C130.094 78.5333 127.906 78.5333 126.102 79.5285L107.636 89.7155C103.153 92.1889 97.8307 88.2712 98.8602 83.2555L103.041 62.8896C103.49 60.7022 102.687 58.4464 100.957 57.0346L87.1155 45.7395C82.9893 42.3723 84.9688 35.6985 90.2637 35.1257L109.345 33.0615C111.372 32.8422 113.149 31.6085 114.063 29.7859L123.603 10.7625Z" fill="#DEC543"/>
</svg>
