<svg width="254" height="66" viewBox="0 0 254 66" fill="none" xmlns="http://www.w3.org/2000/svg">
<path d="M39.87 21.986H35.362V50H28.14V36.2H11.028V40.708C11.028 41.7507 11.2733 42.6093 11.764 43.284C12.2853 43.928 13.0367 44.25 14.018 44.25C14.938 44.25 15.6433 43.9433 16.134 43.33C16.6553 42.7167 16.916 41.9347 16.916 40.984V40.386H23.862C23.8927 40.662 23.908 40.9993 23.908 41.398C23.908 44.158 23.034 46.3507 21.286 47.976C19.5687 49.6013 17.192 50.414 14.156 50.414C11.9787 50.414 10.108 49.9847 8.544 49.126C7.01067 48.2367 5.84533 47.0407 5.048 45.538C4.28133 44.0047 3.898 42.272 3.898 40.34V31.048H7.302C9.66333 31.048 11.3347 30.5267 12.316 29.484C13.328 28.4107 13.834 26.9233 13.834 25.022V21.986H0.218V15.96H39.87V21.986ZM28.14 21.986H21.056V25.022C21.056 27.0153 20.688 28.7787 19.952 30.312H28.14V21.986ZM39.5078 56.808C39.5078 59.5373 38.6031 61.684 36.7937 63.248C34.9537 64.8427 32.4851 65.64 29.3877 65.64C27.2411 65.64 25.2631 65.272 23.4537 64.536C21.6444 63.8307 20.1877 62.6807 19.0837 61.086C17.9797 59.4913 17.4431 57.4367 17.4737 54.922H23.8677C23.8371 56.6393 24.3124 57.912 25.2937 58.74C26.2444 59.568 27.5477 59.982 29.2037 59.982C30.5224 59.982 31.5497 59.6907 32.2857 59.108C33.0217 58.556 33.3897 57.7587 33.3897 56.716C33.3897 55.8267 33.0831 55.0907 32.4697 54.508C31.8257 53.9253 30.9211 53.634 29.7557 53.634H28.1457V48.022H29.7557C32.9451 48.022 35.3677 48.7887 37.0237 50.322C38.6797 51.886 39.5078 54.048 39.5078 56.808ZM60.3918 24.286C60.3918 26.494 59.9011 28.4873 58.9198 30.266H61.8178C65.3444 30.266 68.0278 31.1707 69.8678 32.98C71.7078 34.7893 72.6278 37.2733 72.6278 40.432V44.618H65.9118V40.57C65.9118 39.1593 65.4978 38.0553 64.6698 37.258C63.8418 36.4607 62.6458 36.062 61.0818 36.062H49.1218V40.8C49.1218 41.8427 49.3518 42.686 49.8118 43.33C50.2718 43.9433 50.9771 44.25 51.9278 44.25C52.7864 44.25 53.4611 43.9587 53.9518 43.376C54.4424 42.7933 54.6878 42.0267 54.6878 41.076V40.11H61.6338V40.846C61.6338 43.79 60.7904 46.1207 59.1038 47.838C57.4171 49.5553 55.0711 50.414 52.0658 50.414C49.9191 50.414 48.0791 49.9847 46.5458 49.126C45.0431 48.2367 43.9084 47.0407 43.1418 45.538C42.3751 44.0353 41.9918 42.3333 41.9918 40.432V30.266H46.6378C48.9991 30.266 50.6704 29.76 51.6518 28.748C52.6638 27.736 53.1698 26.2487 53.1698 24.286V21.986H38.3117V15.96H75.2038V21.986H60.3918V24.286ZM122.422 15.96V21.986H117.914V50H110.692V21.986H104.896V32.382C104.896 35.326 104.114 37.7027 102.55 39.512C100.986 41.3213 98.6251 42.226 95.4664 42.226C92.3997 42.226 90.0231 41.4133 88.3364 39.788C86.6497 38.132 85.8064 35.786 85.8064 32.75C85.8064 32.0753 85.8217 31.5847 85.8524 31.278H92.8444V32.704C92.8444 34.9427 93.6571 36.062 95.2824 36.062C96.8464 36.062 97.6284 34.9273 97.6284 32.658V21.986H83.3684V15.96H122.422ZM131.688 36.2V40.8C131.688 41.8427 131.918 42.686 132.378 43.33C132.838 43.9433 133.543 44.25 134.494 44.25C135.353 44.25 136.027 43.9433 136.518 43.33C137.009 42.7167 137.254 41.9347 137.254 40.984V39.696H144.2V40.754C144.2 43.698 143.357 46.044 141.67 47.792C139.983 49.54 137.637 50.414 134.632 50.414C132.485 50.414 130.645 49.9847 129.112 49.126C127.609 48.2367 126.475 47.0407 125.708 45.538C124.941 44.0353 124.558 42.3333 124.558 40.432V30.404H129.204C131.565 30.404 133.237 29.898 134.218 28.886C135.23 27.874 135.736 26.3867 135.736 24.424V21.986H120.878V15.96H146.868V21.986H142.958V24.424C142.958 28.0733 142.099 30.956 140.382 33.072C138.695 35.1573 135.874 36.2 131.918 36.2H131.688ZM149.824 50V21.986H145.316V15.96H161.554V21.986H157.046V50H149.824ZM140.915 0.687999C143.491 0.687999 145.438 0.963999 146.757 1.516C148.076 2.068 149.456 3.37133 150.897 5.426C152.308 7.45 154.332 11.0073 156.969 16.098H150.759L149.885 15.546C148.321 14.5647 147.217 13.9207 146.573 13.614C145.898 13.2767 145.208 13.062 144.503 12.97C143.798 12.878 142.602 12.832 140.915 12.832H138.431V8.324H140.777C142.433 8.324 143.66 8.37 144.457 8.462C145.254 8.554 146.036 8.784 146.803 9.152C147.539 9.48933 148.474 10.0873 149.609 10.946C148.536 9.16733 147.57 7.87933 146.711 7.082C145.822 6.254 144.994 5.748 144.227 5.564C143.43 5.34933 142.372 5.242 141.053 5.242H138.431V0.687999H140.915ZM165.249 8.968C165.249 10.1333 164.835 11.13 164.007 11.958C163.179 12.7553 162.182 13.154 161.017 13.154C159.852 13.154 158.87 12.7553 158.073 11.958C157.245 11.13 156.831 10.1333 156.831 8.968C156.831 7.80266 157.245 6.82133 158.073 6.024C158.87 5.196 159.852 4.782 161.017 4.782C162.182 4.782 163.179 5.196 164.007 6.024C164.835 6.82133 165.249 7.80266 165.249 8.968ZM184.335 30.312C183.507 30.312 182.817 30.496 182.265 30.864C181.744 31.2013 181.483 31.7533 181.483 32.52C181.483 33.4093 181.897 34.0687 182.725 34.498C183.369 34.406 184.044 34.36 184.749 34.36C188 34.36 190.514 35.142 192.293 36.706C194.102 38.27 195.16 40.34 195.467 42.916H188.567C188.383 42.1493 187.938 41.49 187.233 40.938C186.528 40.3553 185.638 40.064 184.565 40.064C183.338 40.064 182.326 40.478 181.529 41.306C180.732 42.134 180.333 43.238 180.333 44.618C180.333 46.0287 180.716 47.148 181.483 47.976C182.28 48.804 183.308 49.218 184.565 49.218C185.577 49.218 186.436 48.9573 187.141 48.436C187.877 47.884 188.352 47.2247 188.567 46.458H195.467C195.222 49.0953 194.102 51.196 192.109 52.76C190.146 54.3547 187.632 55.152 184.565 55.152C182.265 55.152 180.256 54.7073 178.539 53.818C176.852 52.9593 175.549 51.7173 174.629 50.092C173.709 48.4973 173.249 46.6267 173.249 44.48C173.249 42.7013 173.602 41.122 174.307 39.742C175.043 38.362 176.07 37.2427 177.389 36.384C175.334 35.1267 174.307 33.3633 174.307 31.094C174.307 29.2847 174.966 27.8587 176.285 26.816C177.634 25.7427 179.459 25.206 181.759 25.206H185.439V21.986H169.753V15.96H198.227V21.986H192.339V30.312H184.335ZM176.179 0.687999C178.755 0.687999 180.702 0.963999 182.021 1.516C183.339 2.068 184.719 3.37133 186.161 5.426C187.571 7.45 189.595 11.0073 192.233 16.098H186.023L185.149 15.546C183.585 14.5647 182.481 13.9207 181.837 13.614C181.162 13.2767 180.472 13.062 179.767 12.97C179.061 12.878 177.865 12.832 176.179 12.832H173.695V8.324H176.041C177.697 8.324 178.923 8.37 179.721 8.462C180.518 8.554 181.3 8.784 182.067 9.152C182.803 9.48933 183.738 10.0873 184.873 10.946C183.799 9.16733 182.833 7.87933 181.975 7.082C181.085 6.254 180.257 5.748 179.491 5.564C178.693 5.34933 177.635 5.242 176.317 5.242H173.695V0.687999H176.179ZM240.541 21.986H236.033V50H228.811V33.578H223.061C221.191 33.578 219.703 34.038 218.599 34.958C217.495 35.878 216.943 37.1813 216.943 38.868C216.943 40.5547 217.419 41.8733 218.369 42.824C219.351 43.7747 220.792 44.25 222.693 44.25H223.567V49.954H221.589C218.063 49.954 215.18 49.0187 212.941 47.148C210.733 45.2773 209.629 42.4713 209.629 38.73C209.629 34.958 210.841 32.1213 213.263 30.22C215.717 28.3187 218.86 27.368 222.693 27.368H228.811V21.986H206.409V15.96H240.541V21.986ZM252.962 16.558L252.042 38.592H245.372L244.452 16.558H252.962ZM248.822 50.368C247.442 50.368 246.307 49.9693 245.418 49.172C244.559 48.344 244.13 47.332 244.13 46.136C244.13 44.9093 244.559 43.882 245.418 43.054C246.307 42.226 247.442 41.812 248.822 41.812C250.171 41.812 251.275 42.226 252.134 43.054C253.023 43.882 253.468 44.9093 253.468 46.136C253.468 47.332 253.023 48.344 252.134 49.172C251.275 49.9693 250.171 50.368 248.822 50.368Z" fill="#27AE60"/>
</svg>
