<svg width="122" height="97" viewBox="0 0 122 97" fill="none" xmlns="http://www.w3.org/2000/svg">
<ellipse rx="4.08004" ry="3.31008" transform="matrix(0.992297 0.123884 -0.122582 0.992458 15.3706 22.0031)" fill="#1AA886"/>
<path d="M20.5293 19.3074C36.151 12.0912 45.5759 15.1787 62.3344 20.1298L62.002 22.8212C40.4606 16.2686 31.5909 17.6883 21.1724 25.9247C15.8505 23.0467 19.7791 19.8234 20.5293 19.3074Z" fill="#1AA886"/>
<ellipse rx="4.08004" ry="3.31008" transform="matrix(-0.992297 0.123884 0.122582 0.992458 108.74 22.8307)" fill="#1AA886"/>
<path d="M103.582 20.135C87.96 12.9188 78.5351 16.0063 61.7766 20.9574L62.109 23.6488C83.6504 17.0961 92.5201 18.5159 102.939 26.7523C108.261 23.8743 104.332 20.6509 103.582 20.135Z" fill="#1AA886"/>
<path d="M62.4204 20.3214C55.9768 15.9111 59.352 10.4507 63.0341 1L63.0341 84.5862C56.4 82.2319 52.924 73.2782 60.2725 46.1534L60.2725 28.302C56.8973 24.3117 59.6589 23.0516 62.4204 20.3214Z" fill="#75995E" stroke="#75995E"/>
<path d="M63.5228 20.3214C69.9664 15.9111 66.5912 10.4507 62.9091 1L62.9091 84.5862C69.5432 82.2319 73.0192 73.2782 65.6707 46.1534L65.6707 28.302C69.0459 24.3117 66.2843 23.0516 63.5228 20.3214Z" fill="#75995E" stroke="#75995E"/>
<rect x="42.5331" y="82.6552" width="40.2282" height="7.17241" fill="#4E673F"/>
<rect x="35.3958" y="89.8276" width="55.1516" height="7.17241" fill="#242F1C"/>
<path d="M18.9326 24.1724L27.9874 53.1379" stroke="#756654"/>
<path d="M18.9326 24.1724L18.5211 53.9655" stroke="#756654"/>
<path d="M18.9326 23.7586L8.23158 53.1379" stroke="#756654"/>
<path d="M105.364 24.1724L114.419 53.1379" stroke="#756654"/>
<path d="M105.364 24.1724L104.953 53.9655" stroke="#756654"/>
<path d="M105.364 23.7586L94.6632 53.1379" stroke="#756654"/>
<path d="M2.18447 52.5701L33.8192 52.2674C28.2829 72.318 5.09718 68.0212 2.18447 52.5701Z" fill="#E4C062"/>
<rect x="1.64632" y="51.4828" width="32.9263" height="2.48276" fill="#BD9340"/>
<path d="M88.6161 52.5701L120.251 52.2674C114.715 72.318 91.5288 68.0212 88.6161 52.5701Z" fill="#E4C062"/>
<rect x="88.0779" y="51.4828" width="32.9263" height="2.48276" fill="#BD9340"/>
</svg>
