<svg width="109" height="44" viewBox="0 0 109 44" fill="none" xmlns="http://www.w3.org/2000/svg">
<path d="M16.8309 35.6712L6.41177 22.9315H100.985L92.9706 35.6712C71.3309 45.0137 40.0735 45.863 16.8309 35.6712Z" fill="#E4C062" stroke="#E4C062"/>
<path d="M109 19.2121C109 25.3584 84.6475 33.1233 54.6071 33.1233C24.5667 33.1233 0.214192 25.3584 0.214192 19.2121C-2.69971 9.75247 24.5667 0 54.6071 0C84.6475 0 109 9.75247 109 19.2121Z" fill="#C0A253"/>
<path d="M97.7794 16.3127C97.7794 21.4886 78.0825 28.0274 53.7852 28.0274C29.4878 28.0274 9.79089 21.4886 9.79089 16.3127C7.43405 8.34671 29.4878 0.849319 53.7852 0.849319C78.0825 0.849319 97.7794 8.34671 97.7794 16.3127Z" fill="#988042"/>
<path d="M90.5662 22.0822C84.9559 26.3288 73.0951 28.0274 52.532 28.0274C31.969 28.0274 21.6397 24.6301 16.0294 22.0822C20.0368 19.5342 35.7408 14.4383 52.532 14.4384C73.0951 14.4384 84.7258 18.8848 90.5662 22.0822Z" fill="#6B5730"/>
</svg>
