<svg width="150" height="280" viewBox="0 0 150 280" fill="none" xmlns="http://www.w3.org/2000/svg">
<path d="M17.9427 261.075L22.2798 220.073C22.4412 218.546 23.7284 217.388 25.2631 217.388H124.269C125.804 217.388 127.091 218.546 127.253 220.073L131.59 261.075C131.777 262.847 130.388 264.391 128.606 264.391H20.9261C19.1444 264.391 17.7553 262.847 17.9427 261.075Z" fill="#E5E5E5" stroke="#E5E5E5"/>
<path d="M62.6473 149.684H89.1258L93.5297 161.688C82.9843 168.462 76.0592 170.935 60.0002 161.688L62.6473 149.684Z" fill="#CAA68E"/>
<path d="M62.8913 151.445C65.6487 155.752 70.4103 158.357 75.5243 158.357H78.1254C83.5982 158.357 88.6366 155.377 91.2719 150.58L91.7642 149.684H61.7642L62.8913 151.445Z" fill="#9F896E"/>
<path d="M139.412 94.1764C150.882 145.348 104.117 152.286 74.1174 152.286C22.0585 152.286 8.82324 125.156 8.82324 100.248C8.82324 75.3395 38.0564 49.0764 74.1174 49.0764C110.178 49.0764 139.412 69.2684 139.412 94.1764Z" fill="#CAA68E"/>
<path d="M82.0587 118.141C80.294 111.203 74.1175 112.07 72.3528 118.141" stroke="#5A402D"/>
<path d="M40.2437 96.3838C43.3406 92.5234 45.5244 90.8384 52.5966 91.2371" stroke="#4B3A2E"/>
<path d="M109.369 96.3838C106.715 92.5234 104.843 90.8384 98.7809 91.2371" stroke="#4B3A2E"/>
<g filter="url(#filter0_f)">
<ellipse cx="50.2943" cy="119.328" rx="9.70588" ry="2.60192" fill="#E1D6D6"/>
<ellipse cx="50.2943" cy="119.328" rx="9.70588" ry="2.60192" fill="#A05B5B"/>
<ellipse cx="50.2943" cy="119.328" rx="9.70588" ry="2.60192" fill="#CA7E7E"/>
</g>
<g filter="url(#filter1_f)">
<ellipse cx="99.7061" cy="119.328" rx="9.70589" ry="2.60192" fill="#E1D6D6"/>
<ellipse cx="99.7061" cy="119.328" rx="9.70589" ry="2.60192" fill="#FBFBFB"/>
<ellipse cx="99.7061" cy="119.328" rx="9.70589" ry="2.60192" fill="#D09286"/>
</g>
<ellipse cx="52.9416" cy="106.319" rx="7.05883" ry="6.93846" fill="#393535"/>
<ellipse cx="55.588" cy="105.452" rx="2.64706" ry="2.60194" fill="#E5E5E5"/>
<path d="M49.1854 102.23L44.397 98.835" stroke="#393535" stroke-width="0.5"/>
<path d="M47.561 106.49L42.0732 104.576" stroke="#393535" stroke-width="0.5"/>
<path d="M17.6471 114.992C17.6471 121.219 13.6966 126.267 8.82353 126.267C3.95043 126.267 0 121.219 0 114.992C0 108.765 0.421017 104.584 5.29412 104.584C10.1672 104.584 17.6471 108.765 17.6471 114.992Z" fill="#CAA68E"/>
<path d="M12.353 116.772C12.353 119.351 11.6358 120.641 9.51811 121.93C6.69458 121.93 6.69458 119.012 6.69458 117.587C6.69458 116.163 8.34857 114.193 9.51811 114.193C10.6877 114.193 12.353 115.347 12.353 116.772Z" fill="#A2896C"/>
<path d="M11.6471 117.417C11.6471 117.417 8.8236 103.231 5.29419 113.548" stroke="#A2896C"/>
<path d="M132.352 113.674C132.352 120.15 136.303 125.4 141.176 125.4C146.049 125.4 149.999 120.15 149.999 113.674C149.999 107.198 149.578 102.85 144.705 102.85C139.832 102.85 132.352 107.198 132.352 113.674Z" fill="#CAA68E"/>
<path d="M137.646 116.772C137.646 119.351 138.543 120.641 141.19 121.93C144.719 121.93 144.719 119.012 144.719 117.588C144.719 116.163 142.652 114.193 141.19 114.193C139.728 114.193 137.646 115.348 137.646 116.772Z" fill="#A3896C"/>
<path d="M138.529 117.417C138.529 117.417 142.058 103.231 146.47 113.548" stroke="#A2896C"/>
<path d="M70.1575 133.997C74.4822 135.182 79.0461 135.182 83.3708 133.997L85.8802 133.31L91.7642 125.4H61.7642L67.6481 133.31L70.1575 133.997Z" fill="#913E1C"/>
<path d="M86.4701 132.338C86.4701 133.296 84.3133 135.807 76.7642 135.807C69.2152 135.807 67.0583 133.296 67.0583 132.338C67.0583 131.38 71.4038 130.604 76.7642 130.604C82.1246 130.604 86.4701 131.38 86.4701 132.338Z" fill="#D64A38"/>
<path d="M66.2018 127.676C67.1063 128.446 68.2555 128.869 69.4436 128.869H82.1444C83.2796 128.869 84.3811 128.483 85.2676 127.773L88.2352 125.4H63.5293L66.2018 127.676Z" fill="#C4C4C4"/>
<ellipse cx="98.823" cy="106.319" rx="7.05883" ry="6.93846" fill="#393535"/>
<ellipse cx="101.471" cy="105.452" rx="2.64706" ry="2.60194" fill="#E5E5E5"/>
<path d="M104.268 104.576L109.756 102.663" stroke="#453B3B" stroke-width="0.5"/>
<path d="M103.463 103.636L106.985 98.835" stroke="#453B3B" stroke-width="0.5"/>
<g filter="url(#filter2_f)">
<ellipse cx="47.5607" cy="121.8" rx="14.6341" ry="3.82758" fill="#E1D6D6"/>
<ellipse cx="47.5607" cy="121.8" rx="14.6341" ry="3.82758" fill="#A05B5B"/>
<ellipse cx="47.5607" cy="121.8" rx="14.6341" ry="3.82758" fill="#CA7E7E"/>
</g>
<g filter="url(#filter3_f)">
<ellipse cx="100.312" cy="121.476" rx="12.1875" ry="4.0222" fill="#E1D6D6"/>
<ellipse cx="100.312" cy="121.476" rx="12.1875" ry="4.0222" fill="#A05B5B"/>
<ellipse cx="100.312" cy="121.476" rx="12.1875" ry="4.0222" fill="#CA7E7E"/>
</g>
<ellipse cx="95.2904" cy="30.8456" rx="27.8541" ry="30.8456" fill="#4B3A2E"/>
<path d="M78.157 34.8882L59.2014 24.989" stroke="#E1D6D6"/>
<path d="M116.291 45.249L136.516 41.4214" stroke="#E1D6D6"/>
<path d="M74.9252 29.7285L69.1011 11.3662" stroke="#E1D6D6"/>
<path d="M108.47 38.5281L127.077 23.9194" stroke="#E1D6D6"/>
<path d="M96.8142 33.4292L107.118 8.2666" stroke="#E1D6D6"/>
<path d="M87.9401 31.0625L86.4771 3.22705" stroke="#E1D6D6"/>
<path d="M68.593 32.3145C133.401 32.3145 152.603 73.0438 140.045 105.756L83.1331 82.2442L76.4818 68.6857L70.7806 83.6072L23.2706 94.7984L8.06745 105.756C-2.69628 64.4353 27.332 32.3144 68.593 32.3145Z" fill="#4B3A2E"/>
<path d="M144.5 87.5879C144.792 89.4289 144.947 91.2258 144.947 93.0937" stroke="#B5B2B2" stroke-linecap="round" stroke-linejoin="round"/>
<path d="M76.1106 60.0587C75.7838 49.6071 73.2162 43.0264 85.1127 30.8955" stroke="#B5B2B2"/>
<path d="M70.7814 63.062C71.1509 57.7889 18.0314 68.6175 5.0564 85.0853" stroke="#B5B2B2"/>
<path d="M77.887 62.0608C102.763 62.3533 132.066 79.0788 144.5 87.0873" stroke="#B5B2B2"/>
<ellipse cx="76.1105" cy="63.0619" rx="7.1054" ry="8.00848" fill="#B5B2B2"/>
<ellipse cx="75.2224" cy="62.061" rx="4.44088" ry="5.00529" fill="#9E9999"/>
<path d="M10.385 81.0811C10.8291 82.9163 11.2732 84.7516 11.7173 86.5869" stroke="#AEA3A3" stroke-linecap="round" stroke-linejoin="round"/>
<path d="M6.83301 83.083C7.2771 84.9183 7.72118 86.7536 8.16527 88.5888" stroke="#AEA3A3" stroke-linecap="round" stroke-linejoin="round"/>
<path d="M14.8262 78.0779C14.8262 79.8733 15.273 81.3679 15.273 83.0832" stroke="#B5B2B2" stroke-linecap="round" stroke-linejoin="round"/>
<path d="M18.823 76.5762C18.823 78.2446 18.823 79.913 18.823 81.5815" stroke="#B5B2B2" stroke-linecap="round" stroke-linejoin="round"/>
<path d="M21.9314 74.0735C22.358 76.3173 22.9141 78.4932 23.7077 80.5804" stroke="#B5B2B2" stroke-linecap="round" stroke-linejoin="round"/>
<path d="M26.8171 72.572C26.8495 74.395 26.7762 77.0076 27.7053 78.5784" stroke="#B5B2B2" stroke-linecap="round" stroke-linejoin="round"/>
<path d="M31.2571 71.0703C31.2877 73.2997 31.7039 75.3793 31.7039 77.5772" stroke="#B5B2B2" stroke-linecap="round" stroke-linejoin="round"/>
<path d="M35.2539 69.0684C35.2539 71.5315 35.0892 72.3865 36.5862 74.0737" stroke="#B5B2B2" stroke-linecap="round" stroke-linejoin="round"/>
<path d="M39.2512 67.0662C40.5317 69.0507 40.4626 70.3433 41.0276 72.572" stroke="#B5B2B2" stroke-linecap="round" stroke-linejoin="round"/>
<path d="M45.0239 66.0652C45.2463 67.4295 45.5266 68.7659 45.9121 70.0694" stroke="#B5B2B2" stroke-linecap="round" stroke-linejoin="round"/>
<path d="M49.4648 64.5635C49.9473 66.2629 50.353 67.7883 50.353 69.5688" stroke="#B5B2B2" stroke-linecap="round" stroke-linejoin="round"/>
<path d="M53.0178 64.5635C53.3264 66.0589 53.797 67.1963 54.3501 68.5677" stroke="#B5B2B2" stroke-linecap="round" stroke-linejoin="round"/>
<path d="M57.0149 63.0618C57.2423 64.3992 57.4617 65.7033 57.4617 67.066" stroke="#B5B2B2" stroke-linecap="round" stroke-linejoin="round"/>
<path d="M61.011 62.0608C61.011 63.7292 61.011 65.3977 61.011 67.0661" stroke="#B5B2B2" stroke-linecap="round" stroke-linejoin="round"/>
<path d="M63.6763 62.0608C64.2469 63.1595 65.0085 64.2493 65.0085 65.5645" stroke="#B5B2B2" stroke-linecap="round" stroke-linejoin="round"/>
<path d="M85.8801 62.5615C86.9171 64.1686 87.1653 65.2672 87.6565 67.0663" stroke="#B5B2B2" stroke-linecap="round" stroke-linejoin="round"/>
<path d="M90.3208 64.063C90.9757 65.8775 91.4632 67.7825 92.0972 69.5688" stroke="#B5B2B2" stroke-linecap="round" stroke-linejoin="round"/>
<path d="M95.2058 65.064C95.2058 66.7324 95.2058 68.4008 95.2058 70.0693" stroke="#B5B2B2" stroke-linecap="round" stroke-linejoin="round"/>
<path d="M99.2029 66.5657C99.4027 67.7407 99.5324 68.8864 99.6497 70.0694" stroke="#B5B2B2" stroke-linecap="round" stroke-linejoin="round"/>
<path d="M139.171 83.5837C139.464 85.4248 139.618 87.2216 139.618 89.0896" stroke="#B5B2B2" stroke-linecap="round" stroke-linejoin="round"/>
<path d="M136.065 82.082C135.841 83.4291 135.728 84.7288 135.618 86.0863" stroke="#B5B2B2" stroke-linecap="round" stroke-linejoin="round"/>
<path d="M131.621 79.0789C131.621 80.4136 131.621 81.7483 131.621 83.0831" stroke="#B5B2B2" stroke-linecap="round" stroke-linejoin="round"/>
<path d="M127.625 77.0767C127.625 78.5782 127.625 80.0798 127.625 81.5814" stroke="#B5B2B2" stroke-linecap="round" stroke-linejoin="round"/>
<path d="M122.739 74.5742C123.019 76.2316 122.791 78.6662 123.627 80.08" stroke="#B5B2B2" stroke-linecap="round" stroke-linejoin="round"/>
<path d="M119.187 79.5794C119.187 77.5772 119.187 75.5751 119.187 73.573" stroke="#B5B2B2" stroke-linecap="round" stroke-linejoin="round"/>
<path d="M116.079 72.572C116.079 73.9068 116.079 75.2415 116.079 76.5763" stroke="#B5B2B2" stroke-linecap="round" stroke-linejoin="round"/>
<path d="M112.969 71.0703C112.969 72.5719 112.969 74.0735 112.969 75.5751" stroke="#B5B2B2" stroke-linecap="round" stroke-linejoin="round"/>
<path d="M108.529 69.0684C108.973 70.2363 109.417 71.4042 109.861 72.5721" stroke="#B5B2B2" stroke-linecap="round" stroke-linejoin="round"/>
<path d="M103.203 67.5667C103.003 68.7417 102.873 69.8873 102.756 71.0704" stroke="#B5B2B2" stroke-linecap="round" stroke-linejoin="round"/>
<path d="M44.4265 156.485H55.7694C69.874 163.148 76.641 162.931 86.9625 156.485H103.977C112.185 156.283 120.745 161.475 131.94 172.614L113.429 192.843L108.703 187.929L109.648 211.513L39.779 187.929H34.659L17.592 169.767C29.0632 156.914 34.9321 154.054 44.4265 156.485Z" fill="#100F0F" stroke="#100F0F"/>
<path d="M89.278 157.268L41.0481 195.99V217.388H111.416L109.044 157.268C101.325 155.413 96.9973 154.947 89.278 157.268Z" fill="#E5E5E5" stroke="#E5E5E5"/>
<path d="M72.4722 208.878L67.416 259.593" stroke="#B5B2B2"/>
<path d="M79.2141 209.835L85.9557 257.68" stroke="#C4C4C4"/>
<path d="M75.8428 208.878V259.593V262.464" stroke="#C4C4C4"/>
<path d="M105.18 278.731H81.8992C81.3469 278.731 80.8992 278.284 80.8992 277.731V267.597C80.8992 267.381 80.9742 267.164 81.1044 266.992C91.9607 252.627 97.1402 256.693 105.938 266.981C106.093 267.162 106.18 267.395 106.18 267.633V277.731C106.18 278.284 105.732 278.731 105.18 278.731Z" fill="#4B3A2E" stroke="#4B3A2E"/>
<path d="M87.4019 264.319C87.6568 263.799 88.07 263.37 88.594 263.124C92.3099 261.378 94.7094 261.58 98.4068 263.135C98.9775 263.375 99.4349 263.823 99.7075 264.379C100.573 266.144 99.288 268.206 97.3217 268.206H89.8248C87.8279 268.206 86.5227 266.112 87.4019 264.319Z" fill="#B89C7B"/>
<path d="M68.1007 278.731H44.8198C44.2675 278.731 43.8198 278.284 43.8198 277.731V267.597C43.8198 267.381 43.8948 267.164 44.0251 266.992C54.8813 252.627 60.0608 256.693 68.8587 266.981C69.0132 267.162 69.1007 267.395 69.1007 267.633V277.731C69.1007 278.284 68.653 278.731 68.1007 278.731Z" fill="#4B3A2E" stroke="#4B3A2E"/>
<path d="M50.3225 264.319C50.5774 263.799 50.9906 263.37 51.5146 263.124C55.2305 261.378 57.6301 261.58 61.3275 263.135C61.8982 263.375 62.3555 263.823 62.6281 264.379C63.4938 266.144 62.2086 268.206 60.2424 268.206H52.7455C50.7486 268.206 49.4434 266.112 50.3225 264.319Z" fill="#B89C7B"/>
<path d="M61.5723 154.711C69.9446 252.348 85.1827 256.195 87.9603 152.759" stroke="#913E1C" stroke-width="2"/>
<path d="M79.9839 169.861L88.7805 191.153C88.8179 191.244 88.8279 191.344 88.8092 191.44L85.6837 207.516C85.6381 207.751 85.4323 207.921 85.1929 207.921H77.1881C76.9226 207.921 76.7035 207.714 76.6889 207.449L74.3642 165.246C74.3387 164.784 74.9019 164.538 75.2235 164.872L79.8818 169.704C79.9253 169.75 79.96 169.803 79.9839 169.861Z" fill="#CAA68E" stroke="#CAA68E"/>
<path d="M66.065 169.863L56.1763 191.139C56.1302 191.239 56.1179 191.35 56.1412 191.457L59.6561 207.528C59.7063 207.757 59.9096 207.921 60.1446 207.921H68.374C68.6342 207.921 68.8509 207.721 68.8723 207.462L72.3657 165.182C72.4032 164.728 71.8634 164.464 71.5284 164.773L66.1795 169.706C66.1314 169.75 66.0925 169.803 66.065 169.863Z" fill="#CAA68E" stroke="#CAA68E"/>
<path d="M141.526 214.314C141.242 196.065 143.897 191.291 130.843 177.3L116.114 192.1L113.363 194.877L113.273 194.829C107.473 191.738 104.193 189.989 88.9558 192.1L85.2008 206.91C115.756 218.253 128.274 220.058 141.526 214.314Z" fill="#CAA68E" stroke="#CAA68E"/>
<path d="M3.37036 214.619C3.64479 195.752 4.36534 187.937 17.0087 173.473L33.3748 188.783L30.6471 194.524L30.7348 194.474C36.3523 191.279 39.529 189.471 54.287 191.654L57.9239 206.964C28.33 218.691 16.2052 220.557 3.37036 214.619Z" fill="#CAA68E" stroke="#CAA68E"/>
<path d="M112.478 193.567C115.637 194.227 117.437 195.246 120.661 197.395" stroke="#C6A783" stroke-width="0.5"/>
<path d="M31.5563 193.567C28.3967 194.227 26.5972 195.246 23.3733 197.395" stroke="#C6A783" stroke-width="0.5"/>
<path d="M14.9964 179.198C12.9148 185.593 20.5951 188.593 35.184 193.887" stroke="#715C5C" stroke-width="1.2"/>
<path d="M111.417 193.887C126.773 192.987 135.957 192.641 137.805 188.011" stroke="#715C5C" stroke-width="1.5"/>
<path d="M26.3882 176.261C27.418 171.692 28.3765 164.51 30.6265 164.51C31.4766 164.51 32.6269 164.843 32.1335 168.166C31.5188 172.304 28.498 173.928 27.2358 176.261" stroke="#882727" stroke-linecap="round" stroke-linejoin="round"/>
<path d="M123.144 176.261C123.043 176.261 119.424 176.261 120.37 176.261C121.025 176.261 121.471 176.261 122.276 176.261" stroke="#851919" stroke-linecap="round" stroke-linejoin="round"/>
<ellipse cx="74.7663" cy="146.884" rx="1.466" ry="2.93768" fill="#393535"/>
<defs>
<filter id="filter0_f" x="36.5884" y="112.727" width="27.4118" height="13.2038" filterUnits="userSpaceOnUse" color-interpolation-filters="sRGB">
<feFlood flood-opacity="0" result="BackgroundImageFix"/>
<feBlend mode="normal" in="SourceGraphic" in2="BackgroundImageFix" result="shape"/>
<feGaussianBlur stdDeviation="2" result="effect1_foregroundBlur"/>
</filter>
<filter id="filter1_f" x="86.0002" y="112.727" width="27.4118" height="13.2038" filterUnits="userSpaceOnUse" color-interpolation-filters="sRGB">
<feFlood flood-opacity="0" result="BackgroundImageFix"/>
<feBlend mode="normal" in="SourceGraphic" in2="BackgroundImageFix" result="shape"/>
<feGaussianBlur stdDeviation="2" result="effect1_foregroundBlur"/>
</filter>
<filter id="filter2_f" x="28.9265" y="113.973" width="37.2683" height="15.6552" filterUnits="userSpaceOnUse" color-interpolation-filters="sRGB">
<feFlood flood-opacity="0" result="BackgroundImageFix"/>
<feBlend mode="normal" in="SourceGraphic" in2="BackgroundImageFix" result="shape"/>
<feGaussianBlur stdDeviation="2" result="effect1_foregroundBlur"/>
</filter>
<filter id="filter3_f" x="84.125" y="113.454" width="32.375" height="16.0444" filterUnits="userSpaceOnUse" color-interpolation-filters="sRGB">
<feFlood flood-opacity="0" result="BackgroundImageFix"/>
<feBlend mode="normal" in="SourceGraphic" in2="BackgroundImageFix" result="shape"/>
<feGaussianBlur stdDeviation="2" result="effect1_foregroundBlur"/>
</filter>
</defs>
</svg>
