<svg width="152" height="277" viewBox="0 0 152 277" fill="none" xmlns="http://www.w3.org/2000/svg">
<path d="M43.0939 263.889C30.3029 241.522 30.2799 220.672 28.7778 200H134.265C138.056 221.775 139.94 240.918 127.483 263.889H101.865C94.5702 259.037 84.7265 233.282 84.7265 221.835C78.1178 234.491 78.8811 247.025 68.7121 259.845L43.0939 263.889Z" fill="#AEA3A3" stroke="#AEA3A3"/>
<path d="M23.2222 245.494L29.749 191.667H84.411H129.283L139.889 245.494H124.388C91.6325 244.949 80.9028 236.238 82.3841 208.899C78.2956 229.638 68.8976 236.171 52.5928 243.887C40.9991 246.822 34.48 248.821 23.2222 245.494Z" fill="#E1D6D6" stroke="#E1D6D6"/>
<path d="M78.7778 225C80.9968 214.428 82.1777 208.541 81.2209 200" stroke="#AEA3A3"/>
<path d="M1 155.128L14.3681 75L20.4444 78.2051V158.333L14.3681 148.718L1 155.128Z" fill="#C17676" stroke="#C17676"/>
<path d="M58.6829 130.251H97.2226L103.633 140.893C88.2837 146.899 78.2041 149.092 54.8301 140.893L58.6829 130.251Z" fill="#CAA68E"/>
<path d="M61.2793 131.233C64.129 134.665 68.3589 136.651 72.8203 136.651H81.59C86.4407 136.651 90.9918 134.306 93.8065 130.355L95.0204 128.651H59.1362L61.2793 131.233Z" fill="#A48D72"/>
<path d="M136.865 78.0642C147.512 125.957 104.105 132.451 76.2591 132.451C27.9379 132.451 15.6528 107.059 15.6528 83.7464C15.6528 60.434 42.7872 35.8532 76.2591 35.8532C109.731 35.8532 136.865 54.7517 136.865 78.0642Z" fill="#CAA68E"/>
<ellipse cx="56.6028" cy="89.4287" rx="6.55202" ry="6.494" fill="#393535"/>
<ellipse cx="59.06" cy="88.617" rx="2.45701" ry="2.43525" fill="#E5E5E5"/>
<ellipse cx="99.1912" cy="89.4287" rx="6.55203" ry="6.494" fill="#393535"/>
<ellipse cx="101.648" cy="88.617" rx="2.45702" ry="2.43525" fill="#E5E5E5"/>
<path d="M83.6296 100.494C81.9916 93.9998 76.2586 94.8116 74.6206 100.494" stroke="#5A402D"/>
<path d="M45.1367 82.9347C48.0113 79.3217 50.0383 77.7446 56.6028 78.1177" stroke="#4B3A2E"/>
<path d="M109.02 82.9347C106.556 79.3217 104.818 77.7446 99.1915 78.1177" stroke="#4B3A2E"/>
<g filter="url(#filter0_f)">
<ellipse cx="54.1458" cy="101.605" rx="9.00904" ry="2.43525" fill="#E1D6D6"/>
<ellipse cx="54.1458" cy="101.605" rx="9.00904" ry="2.43525" fill="#A05B5B"/>
<ellipse cx="54.1458" cy="101.605" rx="9.00904" ry="2.43525" fill="#CA7E7E"/>
</g>
<g filter="url(#filter1_f)">
<ellipse cx="100.01" cy="101.605" rx="9.00904" ry="2.43525" fill="#E1D6D6"/>
<ellipse cx="100.01" cy="101.605" rx="9.00904" ry="2.43525" fill="#FBFBFB"/>
<ellipse cx="100.01" cy="101.605" rx="9.00904" ry="2.43525" fill="#D09286"/>
</g>
<path d="M23.843 97.5462C23.843 103.374 20.1762 108.099 15.6529 108.099C11.1297 108.099 7.46289 103.374 7.46289 97.5462C7.46289 91.7181 7.85368 87.8052 12.3769 87.8052C16.9001 87.8052 23.843 91.7181 23.843 97.5462Z" fill="#CAA68E"/>
<path d="M18.9284 99.2122C18.9284 101.626 18.2627 102.833 16.2971 104.04C13.6763 104.04 13.6763 101.309 13.6763 99.9756C13.6763 98.6424 15.2115 96.7982 16.2971 96.7982C17.3827 96.7982 18.9284 97.879 18.9284 99.2122Z" fill="#A2896C"/>
<path d="M18.2738 99.8157C18.2738 99.8157 15.653 86.5388 12.377 96.1947" stroke="#A2896C"/>
<path d="M130.313 96.3123C130.313 102.374 133.98 107.287 138.503 107.287C143.027 107.287 146.693 102.374 146.693 96.3123C146.693 90.2511 146.303 86.1817 141.779 86.1817C137.256 86.1817 130.313 90.2511 130.313 96.3123Z" fill="#CAA68E"/>
<path d="M135.227 99.2123C135.227 101.626 136.059 102.833 138.516 104.04C141.792 104.04 141.792 101.309 141.792 99.9756C141.792 98.6424 139.873 96.7983 138.516 96.7983C137.159 96.7983 135.227 97.8791 135.227 99.2123Z" fill="#A3896C"/>
<path d="M136.046 99.8157C136.046 99.8157 139.322 86.5388 143.417 96.1947" stroke="#A2896C"/>
<path d="M72.0582 115.189C76.4151 116.392 81.0169 116.392 85.3738 115.189L87.1776 114.69L92.6391 107.287H64.793L70.2545 114.69L72.0582 115.189Z" fill="#913E1C"/>
<path d="M87.7251 113.781C87.7251 114.678 85.7231 117.028 78.7161 117.028C71.709 117.028 69.707 114.678 69.707 113.781C69.707 112.885 73.7405 112.158 78.7161 112.158C83.6916 112.158 87.7251 112.885 87.7251 113.781Z" fill="#D64A38"/>
<path d="M68.8072 109.328C69.7139 110.106 70.8695 110.534 72.0646 110.534H83.5724C84.7147 110.534 85.8224 110.143 86.7115 109.426L89.3632 107.287H66.4312L68.8072 109.328Z" fill="#C4C4C4"/>
<path d="M69.006 14.5842C124.754 8.95854 148.54 37.8908 137.08 86.1111L120.052 75.4779V61.3003L112.53 72.8196L98.9889 70.1613L97.9949 54.9247L94.2784 70.1613H76.439L74.2091 54.9247L72.3316 70.1613H59.3431L52.3488 57.7559V70.1613L37.3036 75.4779L31.2855 67.503V79.0223L17.4848 86.1111C6.5684 33.0687 31.2855 18.3907 69.006 14.5842Z" fill="#413227"/>
<path d="M134.766 42.6002C90.3667 20.3837 72.4137 17.9152 19.3282 42.6002C16.0122 49.8748 13.8245 62.0625 15.4232 72.2222C65.0934 45.0687 91.0498 47.5372 138.857 69.1366C141.159 61.0634 139.528 50.3612 134.766 42.6002Z" fill="#C17676" stroke="#C17676"/>
<path d="M48.7969 134.285H57.3513C72.2538 142.333 86.7081 142.07 97.6135 134.285H111.716C120.388 134.041 128.06 140.205 139.889 153.659L121.703 178.199L119.783 175.263L117.236 200H42.5942V169.508L38.4768 172.264L20.4443 150.328C32.5645 134.803 38.7653 131.349 48.7969 134.285Z" fill="#E1D6D6" stroke="#E1D6D6"/>
<path d="M130.678 186.111H30.8695C30.4089 186.111 30.0079 186.426 29.8982 186.873L26.3034 201.54C26.149 202.17 26.626 202.778 27.2747 202.778H135.711C136.397 202.778 136.879 202.102 136.657 201.453L131.624 186.787C131.485 186.382 131.105 186.111 130.678 186.111Z" fill="#964F32" stroke="#964F32"/>
<path d="M53.7778 133.333C61.7693 157.598 93.7351 153.415 101 133.333" stroke="#504035" stroke-width="0.6"/>
<path d="M85.1133 150.826L94.5252 172.912C94.5648 173.005 94.5753 173.107 94.5555 173.206L91.2082 189.897C91.1613 190.131 90.9562 190.299 90.7179 190.299H82.0897C81.8245 190.299 81.6055 190.092 81.5905 189.827L79.0982 145.966C79.0721 145.507 79.6277 145.259 79.952 145.585L85.0078 150.669C85.0526 150.714 85.0884 150.768 85.1133 150.826Z" fill="#CAA68E" stroke="#CAA68E"/>
<path d="M70.2268 150.828L59.6459 172.898C59.5973 172.999 59.5843 173.114 59.609 173.224L63.3734 189.909C63.4249 190.137 63.6274 190.299 63.8612 190.299H72.7287C72.9884 190.299 73.2048 190.1 73.2269 189.841L76.9716 145.905C77.01 145.454 76.4775 145.188 76.1402 145.49L70.3444 150.671C70.2953 150.715 70.2553 150.768 70.2268 150.828Z" fill="#CAA68E" stroke="#CAA68E"/>
<path d="M150.949 196.929C150.646 178.003 153.487 173.053 139.522 158.544L123.766 173.892L120.823 176.772L120.726 176.722C114.521 173.516 111.013 171.703 94.7126 173.892L90.6957 189.25C123.382 201.014 136.774 202.885 150.949 196.929Z" fill="#CAA68E" stroke="#CAA68E"/>
<path d="M3.15674 197.245C3.45031 177.679 4.22112 169.575 17.7465 154.575L35.2542 170.452L32.3362 176.406L32.43 176.354C38.4394 173.04 41.8376 171.166 57.6251 173.429L62.7245 191.05C31.0662 203.212 16.8869 203.403 3.15674 197.245Z" fill="#CAA68E" stroke="#CAA68E"/>
<path d="M119.875 175.414C123.255 176.098 125.18 177.154 128.629 179.383" stroke="#E0C19C" stroke-width="0.5"/>
<path d="M33.3095 175.414C29.9295 176.098 28.0045 177.154 24.5557 179.383" stroke="#E0C19C" stroke-width="0.5"/>
<path d="M3.77783 169.259C5.88546 162.879 10.3575 155.637 16.0227 150L37.1112 167.037L31.669 172.222L3.77783 169.259Z" fill="#E1D6D6" stroke="#E1D6D6"/>
<path d="M148.222 169.444C146.35 161.977 144.832 158.761 143.391 155.556L126 169.444H148.222Z" fill="#E1D6D6" stroke="#E1D6D6"/>
<path d="M31.5557 172.222L34.3334 158.333" stroke="#AEA3A3"/>
<path d="M126 172.222V158.333" stroke="#AEA3A3"/>
<path d="M23.2222 63.8311C23.2222 71.7467 19.1243 78.77 12.2943 77.6622C-3.4145 75.1143 6.83039 63.8311 1.36645 63.8311C-0.682527 58.2096 6.25903 50 12.2943 50C15.7093 57.4412 23.2222 50 23.2222 63.8311Z" fill="#CD8585"/>
<path d="M6.55566 63.8889C11.4168 67.8267 6.55566 80.4277 17.6668 77.2774" stroke="#A05B5B"/>
<path d="M12.3222 55.5555C11.3441 62.4572 13.6809 63.6347 21.1811 62.6262C24.5484 67.4585 23.1716 70.1677 21.1811 75" stroke="#A05B5B"/>
<path d="M19.8887 119.444L17.6665 77.7778H19.8887L25.9998 113.941L22.6665 109.224L19.8887 119.444Z" fill="#CA7E7E" stroke="#CA7E7E"/>
<path d="M44.7578 8.73212C50.1419 13.2305 57.0566 15.1782 53.6847 24.5815L61.861 16.9548C57.5528 11.3451 51.3256 10.0059 44.7578 8.73212Z" fill="#413227" stroke="#413227"/>
<path d="M75.3912 1.74164C69.2909 3.68758 66.3286 7.30722 61.7737 17.7887L69.7815 21.4932C67.4176 14.0853 68.2283 9.78868 75.3912 1.74164Z" fill="#413227" stroke="#413227"/>
<path d="M71.0548 275.849H38.606C38.0537 275.849 37.606 275.401 37.606 274.849V261.38C37.606 261.156 37.6874 260.93 37.8274 260.754C52.6891 242.071 59.7483 247.377 71.795 260.745C71.9602 260.928 72.0548 261.17 72.0548 261.417V274.849C72.0548 275.401 71.607 275.849 71.0548 275.849Z" fill="#393535" stroke="#393535"/>
<path d="M46.5461 257.073C46.8417 256.502 47.3137 256.035 47.8997 255.769C53.1401 253.39 56.4463 253.67 61.6626 255.778C62.309 256.04 62.8351 256.532 63.1553 257.151L63.5275 257.871C64.5602 259.868 63.1108 262.249 60.8628 262.249H48.7985C46.5504 262.249 45.101 259.868 46.1337 257.871L46.5461 257.073Z" fill="#CAA68E"/>
<path d="M57.7012 265.449V252.649" stroke="#393535"/>
<path d="M125.599 275.849H93.1499C92.5976 275.849 92.1499 275.401 92.1499 274.849V261.38C92.1499 261.156 92.2313 260.93 92.3713 260.754C107.233 242.071 114.292 247.377 126.339 260.745C126.504 260.928 126.599 261.17 126.599 261.417V274.849C126.599 275.401 126.151 275.849 125.599 275.849Z" fill="#393535" stroke="#393535"/>
<path d="M101.09 257.073C101.386 256.502 101.858 256.035 102.444 255.769C107.684 253.39 110.99 253.67 116.207 255.778C116.853 256.04 117.379 256.532 117.699 257.151L118.071 257.871C119.104 259.868 117.655 262.249 115.407 262.249H103.342C101.094 262.249 99.645 259.868 100.678 257.871L101.09 257.073Z" fill="#CAA68E"/>
<path d="M105.786 265.449V253.449" stroke="#393535"/>
<path d="M76 144.444L78.4056 138.194H73.5943L76 144.444Z" fill="#CAA68E"/>
<defs>
<filter id="filter0_f" x="41.1367" y="95.1697" width="26.0181" height="12.8705" filterUnits="userSpaceOnUse" color-interpolation-filters="sRGB">
<feFlood flood-opacity="0" result="BackgroundImageFix"/>
<feBlend mode="normal" in="SourceGraphic" in2="BackgroundImageFix" result="shape"/>
<feGaussianBlur stdDeviation="2" result="effect1_foregroundBlur"/>
</filter>
<filter id="filter1_f" x="87.001" y="95.1697" width="26.0181" height="12.8705" filterUnits="userSpaceOnUse" color-interpolation-filters="sRGB">
<feFlood flood-opacity="0" result="BackgroundImageFix"/>
<feBlend mode="normal" in="SourceGraphic" in2="BackgroundImageFix" result="shape"/>
<feGaussianBlur stdDeviation="2" result="effect1_foregroundBlur"/>
</filter>
</defs>
</svg>
