<svg width="67" height="91" viewBox="0 0 67 91" fill="none" xmlns="http://www.w3.org/2000/svg">
<path d="M7.52326 82.0611C-2.22325 73.5403 1.88618 40.2984 3.03841 32.2871C3.19398 31.2054 3.94968 30.3114 4.98265 29.9547C28.4324 21.8567 40.6734 22.4063 62.2044 29.9321C63.2628 30.302 64.0225 31.2348 64.1495 32.3486C65.0542 40.2817 68.0538 72.0888 59.3256 82.0611C49.3248 93.4873 18.6294 91.7706 7.52326 82.0611Z" fill="#967E61" stroke="#8E785E"/>
<path d="M2.9186 39.0066C22.5592 50.08 46.2595 51.4641 64.6977 39.0066" stroke="#7D6950"/>
<path d="M1.76744 55.934C21.4081 67.0074 46.2595 68.3915 64.6977 55.934" stroke="#7D6950"/>
<path d="M2.53488 69.9175C21.936 80.9909 45.7169 82.3751 63.9302 69.9175" stroke="#7D6950"/>
<path d="M2.53488 72.1255C21.6965 83.1988 45.9418 84.583 63.9302 72.1255" stroke="#7D6950"/>
<path d="M1.76744 67.7096C21.4081 78.783 46.2595 80.1671 64.6977 67.7096" stroke="#7D6950"/>
<path d="M1.76744 51.5182C21.4081 62.5915 46.2595 63.9757 64.6977 51.5182" stroke="#7D6950"/>
<path d="M1.76744 53.7261C21.4081 64.7995 46.2595 66.1836 64.6977 53.7261" stroke="#7E6A51"/>
<path d="M3.30232 36.7987C22.943 47.8721 46.2595 49.2562 64.6977 36.7987" stroke="#7D6950"/>
<path d="M63.9302 31.4659C63.9302 35.8638 50.688 42.6865 34.3529 42.6865C18.0178 42.6865 2.53488 35.8638 2.53488 31.4659C2.53488 27.0681 18.0178 20.6073 34.3529 20.6073C50.688 20.6073 63.9302 27.0681 63.9302 31.4659Z" fill="#A2896C"/>
<path d="M58.5581 26.1271C52.0349 21.7112 42.5738 25.0231 32.8193 25.0231C24.2354 25.0231 16.3488 21.3433 9.82558 26.1271C9.82558 29.1466 19.028 34.5908 32.8193 34.5908C46.6106 34.5908 58.5581 29.1466 58.5581 26.1271Z" fill="#82694C"/>
<path d="M15.5814 23.8764V21.6073C15.5814 21.055 16.0291 20.6073 16.5814 20.6073H50.6512C51.2034 20.6073 51.6512 21.055 51.6512 21.6073V23.9082C51.6512 24.2889 51.4301 24.6395 51.0875 24.8055C38.0481 31.1253 30.1836 30.844 16.186 24.7931C15.8216 24.6356 15.5814 24.2734 15.5814 23.8764Z" fill="#82694C" stroke="#82694C"/>
<path d="M12.2238 20.8076C9.51283 18.2165 5.9537 17.2947 4.45349 13.2475H62.3954C60.8048 15.5803 59.9219 16.7712 55.1047 20.8076L54.8332 20.884C37.0626 25.8833 33.3532 26.9268 12.2238 20.8076Z" fill="#A2896C" stroke="#A2896C"/>
<path d="M67 12.1436C67 16.2082 52.2544 21.3433 34.0648 21.3433C15.8753 21.3433 1.12969 16.2082 1.12969 12.1436C-0.634689 5.88779 15.8753 0 34.0648 0C52.2544 0 67 5.88779 67 12.1436Z" fill="#C2A188"/>
<path d="M61.0895 10.3671C61.0895 13.5908 48.7649 17.6634 33.5617 17.6634C18.3584 17.6634 6.03377 13.5908 6.03377 10.3671C4.55906 5.4056 18.3584 0.735973 33.5617 0.735973C48.7649 0.735973 61.0895 5.4056 61.0895 10.3671Z" fill="#A2896C"/>
<path d="M56.1642 13.9835C49.2687 17.2954 42.0576 17.6634 33.0149 17.6634C25.0574 17.6634 19.7164 17.2954 11.3433 14.3515C11.3433 10.8675 20.2299 6.62377 33.0149 6.62377C45.7999 6.62377 56.1642 10.4995 56.1642 13.9835Z" fill="#786249"/>
<path d="M28.274 13.2198C28.3474 11.9782 28.186 11.2098 27.8026 10.2897C27.6613 9.95038 27.9013 9.56766 28.2688 9.56766H37.8544C38.2112 9.56766 38.4518 9.93118 38.3312 10.2671C37.9025 11.4615 37.8866 12.1641 38.115 13.1823C38.1706 13.4301 38.0423 13.6858 37.8031 13.7709C35.0637 14.7456 32.2506 14.8738 28.6213 13.7372C28.3998 13.6678 28.2603 13.4515 28.274 13.2198Z" fill="#A2896C" stroke="#A2896C"/>
<path d="M31.5641 4.6825C32.5888 4.03972 33.8911 4.01197 34.9291 4.63308C36.1718 5.37671 37.1341 6.07578 37.9567 6.83238C39.6896 8.4263 38.6123 11.1988 36.2827 11.54C34.1369 11.8544 32.2054 11.8561 30.0507 11.5332C27.7607 11.1901 26.7127 8.49152 28.4433 6.95312C29.2567 6.23005 30.252 5.5056 31.5641 4.6825Z" fill="#61503C"/>
<path d="M10.2093 19.1353C24.5805 24.672 42.7645 25.3641 56.2558 19.1353" stroke="#7D6950" stroke-width="0.5"/>
</svg>
