<svg width="80" height="65" viewBox="0 0 80 65" fill="none" xmlns="http://www.w3.org/2000/svg">
<path d="M16.7327 21.3072C17.3516 19.747 18.6707 18.5542 20.2622 18.1155L54.0229 8.80918C55.6863 8.35066 57.4204 8.77789 58.6172 9.94105L60.4239 11.697C60.5663 11.8353 60.6858 11.9961 60.7782 12.1737L75.8435 41.1237C52.2762 58.9811 31.5 53.5 7.5326 44.5011L16.7327 21.3072Z" fill="#1F1B1B"/>
<path d="M69.6418 37.3062L64.9666 28.0337C64.4634 27.0358 62.9512 27.4894 63.0804 28.5996L63.9375 35.963C63.9765 36.2981 64.1818 36.5909 64.4836 36.7418L68.3016 38.6508C69.1627 39.0814 70.0752 38.1658 69.6418 37.3062Z" fill="#5A5757" stroke="#5A5757"/>
<path d="M59 13.5C59 22.762 32.3854 22.994 19.9313 19.293C19.6475 19.2087 19.6614 18.8163 19.9467 18.737L55 9C55 9 59.5 9 59 13.5Z" fill="#5A5757" stroke="#5A5757"/>
</svg>
